<svg width="16" height="16" viewBox="0 0 16 16" fill="none" xmlns="http://www.w3.org/2000/svg">
<path d="M4 1.30078L2 3.90241V13.0081C2 13.3531 2.14048 13.684 2.39052 13.9279C2.64057 14.1719 2.97971 14.3089 3.33333 14.3089H12.6667C13.0203 14.3089 13.3594 14.1719 13.6095 13.9279C13.8595 13.684 14 13.3531 14 13.0081V3.90241L12 1.30078H4Z" stroke="#016DEA" stroke-linecap="round" stroke-linejoin="round"/>
<path d="M2 3.90234H14" stroke="#016DEA" stroke-linecap="round" stroke-linejoin="round"/>
<path d="M10.6668 6.50391C10.6668 7.1939 10.3859 7.85563 9.88578 8.34353C9.38568 8.83143 8.70741 9.10553 8.00016 9.10553C7.29292 9.10553 6.61464 8.83143 6.11454 8.34353C5.61445 7.85563 5.3335 7.1939 5.3335 6.50391" stroke="#016DEA" stroke-linecap="round" stroke-linejoin="round"/>
</svg>
