<svg width="20" height="20" viewBox="0 0 20 20" fill="none" xmlns="http://www.w3.org/2000/svg">
<path d="M14.167 2.5009C14.3859 2.28203 14.6457 2.10842 14.9317 1.98996C15.2176 1.87151 15.5241 1.81055 15.8337 1.81055C16.1432 1.81055 16.4497 1.87151 16.7356 1.98996C17.0216 2.10842 17.2815 2.28203 17.5003 2.5009C17.7192 2.71977 17.8928 2.97961 18.0113 3.26558C18.1297 3.55154 18.1907 3.85804 18.1907 4.16757C18.1907 4.4771 18.1297 4.7836 18.0113 5.06956C17.8928 5.35553 17.7192 5.61537 17.5003 5.83424L6.25032 17.0842L1.66699 18.3342L2.91699 13.7509L14.167 2.5009Z" stroke="#AAA9AD" stroke-linecap="round" stroke-linejoin="round"/>
</svg>
