<svg width="11" height="3" viewBox="0 0 11 3" fill="none" xmlns="http://www.w3.org/2000/svg">
<path d="M2.85185 1.42593C2.85185 2.21528 2.18981 2.85185 1.42593 2.85185C0.636574 2.85185 0 2.21528 0 1.42593C0 0.662037 0.636574 0 1.42593 0C2.18981 0 2.85185 0.662037 2.85185 1.42593ZM6.92593 1.42593C6.92593 2.21528 6.26389 2.85185 5.5 2.85185C4.71065 2.85185 4.07407 2.21528 4.07407 1.42593C4.07407 0.662037 4.71065 0 5.5 0C6.26389 0 6.92593 0.662037 6.92593 1.42593ZM8.14815 1.42593C8.14815 0.662037 8.78472 0 9.57407 0C10.338 0 11 0.662037 11 1.42593C11 2.21528 10.338 2.85185 9.57407 2.85185C8.78472 2.85185 8.14815 2.21528 8.14815 1.42593Z" fill="#016DEA"/>
</svg>
