<svg width="27" height="30" viewBox="0 0 27 30" fill="none" xmlns="http://www.w3.org/2000/svg">
<path d="M9.00014 21.0074L10.5183 20.0051L11.7387 17.8913L15.2617 19.9253C15.6513 20.1502 16.1481 20.0171 16.3731 19.6275L17.0183 18.51C17.2322 18.1394 17.2914 17.6887 17.1806 17.2753L16.7595 15.7038L18.2183 13.1771C18.6079 13.4021 19.1047 13.269 19.3297 12.8793L20.5501 10.7655C20.9988 9.98837 20.7316 8.99145 19.9545 8.54275L14.3177 5.28837C13.5405 4.83967 12.5436 5.10679 12.0949 5.88396L10.8745 7.99774C10.6496 8.38739 10.7834 8.88458 11.1723 9.10914L9.71355 11.6358L8.14205 12.0569C7.7279 12.1673 7.36792 12.4442 7.15394 12.8148L6.50876 13.9323C6.2838 14.3219 6.41762 14.8191 6.80656 15.0437L10.3295 17.0777L9.10914 19.1915L9.00014 21.0074ZM13.5041 6.69756L19.1409 9.95194L18.3273 11.3611L12.6905 8.10675L13.5041 6.69756ZM8.56313 13.6284L10.4603 13.1201C10.6688 13.0648 10.8461 12.9285 10.9543 12.7411L12.5815 9.92273L16.8091 12.3635L15.1819 15.1819C15.0737 15.3693 15.0443 15.591 15.1007 15.7992L15.6091 17.6964L15.3707 18.1093L8.32475 14.0413L8.56313 13.6284Z" fill="#016DEA"/>
</svg>
