<svg width="16" height="16" viewBox="0 0 16 16" fill="none" xmlns="http://www.w3.org/2000/svg">
<g clip-path="url(#clip0_0_698)">
<path d="M10.0057 5.13055C8.89982 4.49252 7.11333 4.49252 6.01395 5.13055C4.91457 5.76858 4.92111 6.8058 6.02704 7.44383C7.13296 8.08186 8.91945 8.08186 10.0188 7.44383C11.1182 6.80252 11.1117 5.76858 10.0057 5.13055ZM9.49859 6.13504C9.4037 6.16449 9.30881 6.19721 9.21393 6.22666C9.15503 6.24302 9.11904 6.24629 9.09286 6.2332C9.07978 6.22339 9.06669 6.2103 9.0536 6.19067C8.99143 6.08923 8.89655 6.00089 8.76894 5.92891C8.75258 5.91909 8.73295 5.90928 8.71332 5.89946C8.67078 5.87656 8.63152 5.8602 8.57917 5.84711C8.39594 5.80457 8.23234 5.87329 8.25524 5.9878C8.26506 6.0467 8.29778 6.09905 8.33704 6.15467C8.40248 6.24629 8.47446 6.3379 8.52027 6.43606C8.67405 6.74363 8.34031 7.04792 7.80371 7.07737C7.61067 7.08718 7.42744 7.06428 7.25729 7.00866C7.18204 6.98575 7.12642 6.98575 7.07079 7.02502C7.01517 7.06101 6.953 7.09373 6.89411 7.12645C6.84175 7.15589 6.78613 7.15917 6.73378 7.12972C6.69452 7.11009 6.65852 7.08718 6.61926 7.06755C6.59309 7.05119 6.56691 7.0381 6.54073 7.02174C6.48511 6.98902 6.49165 6.95631 6.54401 6.92359C6.58654 6.89741 6.62908 6.87451 6.66834 6.84833C6.76323 6.79271 6.76323 6.78943 6.6847 6.72727C6.58654 6.64874 6.4982 6.56694 6.44257 6.47533C6.40004 6.40334 6.40985 6.38698 6.52437 6.34772C6.60944 6.32154 6.69124 6.2921 6.77632 6.26592C6.83848 6.24629 6.87447 6.24302 6.90065 6.2561C6.91701 6.26592 6.92683 6.27901 6.93991 6.30191C6.99554 6.40662 7.09042 6.49823 7.20494 6.58657C7.22457 6.60293 7.24748 6.61602 7.26711 6.62911C7.32928 6.6651 7.40126 6.69128 7.48306 6.71091C7.69574 6.75999 7.88551 6.67492 7.86588 6.54077C7.85933 6.49496 7.83643 6.4557 7.80698 6.41316C7.735 6.30518 7.64011 6.20375 7.59103 6.08923C7.51251 5.906 7.5485 5.73913 7.80044 5.60826C8.08837 5.46102 8.40903 5.4512 8.74931 5.54282C8.89 5.58208 8.88673 5.58208 8.99471 5.51991C9.0307 5.49701 9.06669 5.47738 9.10268 5.45775C9.18448 5.41194 9.21393 5.41194 9.29573 5.45775C9.3219 5.47083 9.34481 5.48719 9.37098 5.50028C9.5444 5.59844 9.5444 5.59844 9.37425 5.69987C9.25319 5.76858 9.25319 5.76858 9.35462 5.85038C9.43315 5.91255 9.49532 5.97799 9.54112 6.04997C9.57712 6.08596 9.56403 6.11541 9.49859 6.13504ZM11.4814 8.28799C11.1771 8.46468 10.683 8.46468 10.3755 8.28799C10.0712 8.11131 10.0679 7.82338 10.3722 7.64669C10.6765 7.47 11.1706 7.47 11.4781 7.64669C11.7857 7.82338 11.789 8.11131 11.4814 8.28799ZM5.6573 4.92442C5.35301 5.1011 4.85894 5.1011 4.55138 4.92442C4.24382 4.74773 4.24382 4.4598 4.54811 4.28311C4.8524 4.10643 5.34647 4.10643 5.65403 4.28311C5.95832 4.4598 5.9616 4.74773 5.6573 4.92442ZM15.6204 6.91704L6.90065 1.88149C6.39677 1.59028 5.57878 1.59028 5.07817 1.88149L0.40253 4.59722C-0.09808 4.88842 -0.094808 5.36286 0.409074 5.65406L9.12886 10.6896C9.63274 10.9808 10.4507 10.9808 10.9513 10.6896L15.6237 7.97389C16.1276 7.68268 16.1243 7.20825 15.6204 6.91704ZM11.0462 9.73093C10.9906 9.67858 10.9252 9.6295 10.8466 9.58369C10.3362 9.28922 9.5084 9.28922 9.00125 9.58369C8.96199 9.6066 8.92927 9.6295 8.89328 9.65568L2.12358 5.74568C2.18902 5.7195 2.25119 5.69006 2.31009 5.65734C2.81724 5.36286 2.81397 4.88515 2.30354 4.59068C2.24792 4.55796 2.18902 4.52851 2.12686 4.5056L4.91784 2.88271C4.96038 2.9187 5.00946 2.95142 5.06508 2.98414C5.5755 3.27862 6.40331 3.27862 6.91047 2.98414C6.96936 2.95142 7.01844 2.91543 7.06425 2.87617L13.8568 6.79598C13.7652 6.8287 13.6834 6.86469 13.6049 6.9105C13.0977 7.20497 13.0977 7.68595 13.6114 7.98043C13.69 8.02624 13.7783 8.06223 13.8699 8.09495L11.0462 9.73093ZM0.180037 6.66183C0.40253 6.54731 0.746087 6.56367 0.958764 6.688L10.0745 11.9493L15.002 9.08308C15.2147 8.95875 15.5648 8.95875 15.7808 9.08308C15.9967 9.20742 15.9967 9.41028 15.784 9.53461L10.5456 12.5775C10.2904 12.7281 9.87159 12.7281 9.61311 12.5775L9.42988 12.4728L9.30227 12.3976L0.163677 7.12318C-0.0588165 6.99557 -0.0555445 6.78289 0.180037 6.66183ZM15.7906 11.1804L10.5522 14.2233C10.2969 14.3738 9.87814 14.3738 9.61965 14.2233L9.43969 14.1186L9.30882 14.0434L0.170221 8.76897C-0.0522725 8.64137 -0.0457286 8.42869 0.189853 8.30763C0.409074 8.19311 0.755902 8.20947 0.96858 8.3338L10.081 13.5951L15.0086 10.7322C15.2245 10.6078 15.5714 10.6078 15.7873 10.7322C16.0033 10.8532 16.0065 11.0561 15.7906 11.1804Z" fill="#016DEA"/>
</g>
<defs>
<clipPath id="clip0_0_698">
<rect width="16" height="16" fill="white"/>
</clipPath>
</defs>
</svg>
