<svg width="376" height="30" viewBox="0 0 376 30" fill="none" xmlns="http://www.w3.org/2000/svg">
<path d="M244.014 27.866C244.014 27.866 252.444 23.651 252.444 17.3285V9.95227L244.014 6.79102L235.584 9.95227V17.3285C235.584 23.651 244.014 27.866 244.014 27.866Z" stroke="#016DEA" stroke-width="1.405" stroke-linecap="round" stroke-linejoin="round"/>
<g clip-path="url(#clip0_2239_61411)">
<path d="M244.014 11.4473V21.1066" stroke="#016DEA" stroke-width="1.405" stroke-linecap="round" stroke-linejoin="round"/>
<path d="M246.209 13.2031H242.916C242.508 13.2031 242.117 13.365 241.829 13.6532C241.541 13.9414 241.379 14.3323 241.379 14.7398C241.379 15.1474 241.541 15.5383 241.829 15.8265C242.117 16.1147 242.508 16.2766 242.916 16.2766H245.111C245.519 16.2766 245.909 16.4385 246.198 16.7267C246.486 17.0148 246.648 17.4057 246.648 17.8133C246.648 18.2208 246.486 18.6117 246.198 18.8999C245.909 19.1881 245.519 19.35 245.111 19.35H241.379" stroke="#016DEA" stroke-width="1.405" stroke-linecap="round" stroke-linejoin="round"/>
</g>
<circle cx="256.659" cy="4.68333" r="4.68333" fill="#0ACD5E"/>
<path d="M258.494 3.52148L255.918 6.09732L254.747 4.92648" stroke="white" stroke-width="0.936667" stroke-linecap="round" stroke-linejoin="round"/>
<path d="M4.57332 8.89844H21.4333C22.5924 8.89844 23.5408 9.84681 23.5408 11.0059V23.6509C23.5408 24.8101 22.5924 25.7584 21.4333 25.7584H4.57332C3.4142 25.7584 2.46582 24.8101 2.46582 23.6509V11.0059C2.46582 9.84681 3.4142 8.89844 4.57332 8.89844Z" stroke="#016DEA" stroke-width="1.405" stroke-linecap="round" stroke-linejoin="round"/>
<path d="M23.5408 11.0059L13.0033 18.3821L2.46582 11.0059" stroke="#016DEA" stroke-width="1.405" stroke-linecap="round" stroke-linejoin="round"/>
<circle cx="27.5222" cy="4.68333" r="4.68333" fill="#FA0101"/>
<path d="M28.9272 3.27734L26.1172 6.08734" stroke="white" stroke-width="0.936667" stroke-linecap="round" stroke-linejoin="round"/>
<path d="M26.1172 3.27734L28.9272 6.08734" stroke="white" stroke-width="0.936667" stroke-linecap="round" stroke-linejoin="round"/>
<path d="M141.388 22.5131V25.6743C141.389 25.9678 141.329 26.2583 141.211 26.5272C141.094 26.7961 140.921 27.0374 140.705 27.2358C140.489 27.4342 140.233 27.5853 139.955 27.6793C139.677 27.7733 139.383 27.8082 139.091 27.7818C135.848 27.4295 132.733 26.3215 129.997 24.5468C127.451 22.9289 125.292 20.7703 123.674 18.2243C121.893 15.4753 120.785 12.3454 120.439 9.08829C120.413 8.7969 120.448 8.50321 120.541 8.22593C120.634 7.94865 120.784 7.69385 120.982 7.47776C121.179 7.26167 121.419 7.08902 121.687 6.97081C121.954 6.85259 122.244 6.79139 122.536 6.79112H125.697C126.209 6.78608 126.705 6.96718 127.092 7.30064C127.48 7.6341 127.733 8.09718 127.805 8.60357C127.938 9.61524 128.186 10.6086 128.543 11.5646C128.684 11.9418 128.715 12.3517 128.631 12.7457C128.547 13.1398 128.352 13.5015 128.068 13.788L126.73 15.1263C128.23 17.7644 130.414 19.9487 133.053 21.4488L134.391 20.1105C134.677 19.8272 135.039 19.632 135.433 19.5479C135.827 19.4639 136.237 19.4946 136.614 19.6363C137.57 19.9931 138.564 20.2405 139.575 20.374C140.087 20.4462 140.555 20.704 140.889 21.0984C141.223 21.4928 141.401 21.9963 141.388 22.5131Z" stroke="#016DEA" stroke-width="1.405" stroke-linecap="round" stroke-linejoin="round"/>
<circle cx="140.685" cy="4.68333" r="4.68333" fill="#0ACD5E"/>
<path d="M142.52 3.52148L139.944 6.09732L138.773 4.92648" stroke="white" stroke-width="0.936667" stroke-linecap="round" stroke-linejoin="round"/>
<g clip-path="url(#clip1_2239_61411)">
<path d="M359.987 19.2029C360.575 19.2029 361.149 19.0286 361.638 18.7021C362.127 18.3756 362.508 17.9115 362.733 17.3685C362.957 16.8255 363.016 16.228 362.902 15.6516C362.787 15.0752 362.504 14.5457 362.088 14.1301C361.673 13.7145 361.143 13.4315 360.567 13.3169C359.99 13.2022 359.393 13.2611 358.85 13.486C358.307 13.7109 357.843 14.0918 357.516 14.5804C357.19 15.0691 357.016 15.6436 357.016 16.2313C357.016 17.0195 357.329 17.7753 357.886 18.3326C358.443 18.8898 359.199 19.2029 359.987 19.2029ZM359.987 14.3838C360.353 14.3838 360.71 14.4921 361.014 14.6951C361.317 14.8982 361.554 15.1867 361.694 15.5243C361.834 15.8619 361.871 16.2334 361.799 16.5918C361.728 16.9502 361.552 17.2794 361.294 17.5378C361.035 17.7962 360.706 17.9721 360.348 18.0434C359.989 18.1147 359.618 18.0781 359.28 17.9383C358.943 17.7984 358.654 17.5616 358.451 17.2578C358.248 16.954 358.14 16.5968 358.14 16.2313C358.14 15.7413 358.334 15.2714 358.681 14.9249C359.027 14.5784 359.497 14.3838 359.987 14.3838Z" fill="#016DEA"/>
<path d="M362.797 6.55734C362.797 6.18471 362.649 5.82735 362.385 5.56386C362.122 5.30037 361.764 5.15234 361.392 5.15234H358.582C358.209 5.15234 357.852 5.30037 357.588 5.56386C357.325 5.82735 357.177 6.18471 357.177 6.55734V11.4748H362.797V6.55734ZM361.392 10.0698H358.582V6.55734H361.392V10.0698Z" fill="#016DEA"/>
<path d="M365.607 24.8205V23.2048C365.609 23.0175 365.545 22.8357 365.425 22.6919C364.743 21.9324 363.902 21.3323 362.963 20.9341C362.023 20.5358 361.007 20.3493 359.987 20.3877C358.966 20.352 357.949 20.5418 357.009 20.9437C356.069 21.3456 355.23 21.9497 354.55 22.713C354.43 22.8571 354.366 23.0387 354.367 23.2258V24.8205H355.491V23.3242C356.068 22.7184 356.767 22.2432 357.543 21.9305C358.318 21.6179 359.152 21.4751 359.987 21.5117C360.823 21.476 361.657 21.6199 362.433 21.9337C363.208 22.2476 363.907 22.7242 364.483 23.3312V24.8205H365.607Z" fill="#016DEA"/>
<path d="M367.012 7.96094H364.202V9.36594H367.012V26.2259H352.962V9.36594H355.772V7.96094H352.962C352.589 7.96094 352.232 8.10896 351.968 8.37245C351.705 8.63594 351.557 8.99331 351.557 9.36594V26.2259C351.557 26.5986 351.705 26.9559 351.968 27.2194C352.232 27.4829 352.589 27.6309 352.962 27.6309H367.012C367.384 27.6309 367.742 27.4829 368.005 27.2194C368.269 26.9559 368.417 26.5986 368.417 26.2259V9.36594C368.417 8.99331 368.269 8.63594 368.005 8.37245C367.742 8.10896 367.384 7.96094 367.012 7.96094Z" fill="#016DEA"/>
</g>
<circle cx="370.759" cy="4.68333" r="4.68333" fill="#0ACD5E"/>
<g clip-path="url(#clip2_2239_61411)">
<path d="M372.593 3.52148L370.018 6.09732L368.847 4.92648" stroke="white" stroke-width="0.936667" stroke-linecap="round" stroke-linejoin="round"/>
</g>
<defs>
<clipPath id="clip0_2239_61411">
<rect width="10.5375" height="10.5375" fill="white" transform="translate(238.745 11.0059)"/>
</clipPath>
<clipPath id="clip1_2239_61411">
<rect width="25.29" height="25.29" fill="white" transform="translate(347.342 3.74609)"/>
</clipPath>
<clipPath id="clip2_2239_61411">
<rect width="5.62" height="5.62" fill="white" transform="translate(367.91 2.11523)"/>
</clipPath>
</defs>
</svg>
