<svg width="20" height="20" viewBox="0 0 20 20" fill="none" xmlns="http://www.w3.org/2000/svg">
<path d="M17.7791 6.66674H14.0791L14.9402 2.36674C14.9689 2.2194 14.9379 2.06667 14.8541 1.94217C14.7702 1.81767 14.6403 1.73158 14.493 1.70285C14.3456 1.67412 14.1929 1.70509 14.0684 1.78896C13.9439 1.87283 13.8578 2.00273 13.8291 2.15007L12.9457 6.66674H8.39575L9.25686 2.36674C9.27108 2.29378 9.2708 2.21874 9.25603 2.14589C9.24125 2.07304 9.21227 2.00382 9.17074 1.94217C9.12921 1.88052 9.07595 1.82766 9.01399 1.7866C8.95203 1.74553 8.88259 1.71708 8.80963 1.70285C8.66229 1.67412 8.50957 1.70509 8.38507 1.78896C8.26056 1.87283 8.17448 2.00273 8.14575 2.15007L7.26241 6.66674H3.33464C3.18729 6.66674 3.04599 6.72527 2.9418 6.82946C2.83761 6.93364 2.77908 7.07495 2.77908 7.22229C2.77908 7.36964 2.83761 7.51094 2.9418 7.61513C3.04599 7.71932 3.18729 7.77785 3.33464 7.77785H7.04019L6.1513 12.2223H2.22352C2.07618 12.2223 1.93487 12.2808 1.83069 12.385C1.7265 12.4892 1.66797 12.6305 1.66797 12.7778C1.66797 12.9252 1.7265 13.0665 1.83069 13.1707C1.93487 13.2749 2.07618 13.3334 2.22352 13.3334H5.92352L5.06241 17.6334C5.03469 17.7778 5.06531 17.9272 5.14757 18.0491C5.22983 18.1709 5.35703 18.2552 5.5013 18.2834C5.53814 18.2889 5.57558 18.2889 5.61241 18.2834C5.74238 18.286 5.86916 18.243 5.97067 18.1618C6.07218 18.0806 6.142 17.9663 6.16797 17.839L7.05686 13.3334H11.6069L10.7457 17.6334C10.718 17.7778 10.7486 17.9272 10.8309 18.0491C10.9132 18.1709 11.0404 18.2552 11.1846 18.2834C11.2196 18.2888 11.2552 18.2888 11.2902 18.2834C11.4202 18.286 11.5469 18.243 11.6484 18.1618C11.75 18.0806 11.8198 17.9663 11.8457 17.839L12.7402 13.3334H16.668C16.8153 13.3334 16.9566 13.2749 17.0608 13.1707C17.165 13.0665 17.2235 12.9252 17.2235 12.7778C17.2235 12.6305 17.165 12.4892 17.0608 12.385C16.9566 12.2808 16.8153 12.2223 16.668 12.2223H12.9624L13.8569 7.77785H17.7791C17.9264 7.77785 18.0677 7.71932 18.1719 7.61513C18.2761 7.51094 18.3346 7.36964 18.3346 7.22229C18.3346 7.07495 18.2761 6.93364 18.1719 6.82946C18.0677 6.72527 17.9264 6.66674 17.7791 6.66674ZM11.8291 12.2223H7.27908L8.17352 7.77785H12.7235L11.8291 12.2223Z" fill="#016DEA"/>
</svg>
