<svg width="17" height="17" viewBox="0 0 17 17" fill="none" xmlns="http://www.w3.org/2000/svg">
<path d="M16.868 12.8408L16.0757 16.1748C15.9767 16.6699 15.5806 17 15.0854 17C6.76699 16.967 0 10.2 0 1.88155C0 1.38641 0.297087 0.990291 0.792233 0.891262L4.12621 0.0990291C4.58835 0 5.0835 0.264078 5.28155 0.693204L6.83301 4.29126C6.99806 4.72039 6.89903 5.21553 6.53592 5.47961L4.7534 6.93204C5.87573 9.20971 7.72427 11.0583 10.035 12.1806L11.4874 10.3981C11.7515 10.068 12.2466 9.93592 12.6757 10.101L16.2738 11.6524C16.7029 11.8835 16.967 12.3786 16.868 12.8408Z" fill="white"/>
</svg>
