<svg width="18" height="16" viewBox="0 0 18 16" fill="none" xmlns="http://www.w3.org/2000/svg">
<path d="M17.5 9H15V12L14 11.3344L13 12V9H10.5C10.225 9 10 9.225 10 9.5V15.5C10 15.775 10.225 16 10.5 16H17.5C17.775 16 18 15.775 18 15.5V9.5C18 9.225 17.775 9 17.5 9ZM5.5 7H12.5C12.775 7 13 6.775 13 6.5V0.5C13 0.225 12.775 0 12.5 0H10V3L9 2.33437L8 3V0H5.5C5.225 0 5 0.225 5 0.5V6.5C5 6.775 5.225 7 5.5 7ZM7.5 9H5V12L4 11.3344L3 12V9H0.5C0.225 9 0 9.225 0 9.5V15.5C0 15.775 0.225 16 0.5 16H7.5C7.775 16 8 15.775 8 15.5V9.5C8 9.225 7.775 9 7.5 9Z" fill="#016DEA"/>
</svg>
