<svg width="26" height="16" viewBox="0 0 26 16" fill="none" xmlns="http://www.w3.org/2000/svg">
<g clip-path="url(#clip0_1987_61610)">
<path d="M20.1654 15.5V13.8333C20.1654 12.9493 19.8142 12.1014 19.1891 11.4763C18.5639 10.8512 17.7161 10.5 16.832 10.5H10.1654C9.28131 10.5 8.43346 10.8512 7.80834 11.4763C7.18322 12.1014 6.83203 12.9493 6.83203 13.8333V15.5" stroke="#016DEA" stroke-linecap="round" stroke-linejoin="round"/>
<path d="M13.5013 7.16667C15.3423 7.16667 16.8346 5.67428 16.8346 3.83333C16.8346 1.99238 15.3423 0.5 13.5013 0.5C11.6604 0.5 10.168 1.99238 10.168 3.83333C10.168 5.67428 11.6604 7.16667 13.5013 7.16667Z" stroke="#016DEA" stroke-linecap="round" stroke-linejoin="round"/>
<path d="M25.168 15.5001V13.8334C25.1674 13.0948 24.9216 12.3774 24.4691 11.7937C24.0166 11.2099 23.3831 10.793 22.668 10.6084" stroke="#016DEA" stroke-linecap="round" stroke-linejoin="round"/>
<path d="M1.33203 15.5001V13.8334C1.33258 13.0948 1.5784 12.3774 2.03089 11.7937C2.48339 11.2099 3.11692 10.793 3.83203 10.6084" stroke="#016DEA" stroke-linecap="round" stroke-linejoin="round"/>
<path d="M19.332 0.608398C20.049 0.791983 20.6846 1.20898 21.1384 1.79366C21.5922 2.37833 21.8386 3.09742 21.8386 3.83757C21.8386 4.57771 21.5922 5.2968 21.1384 5.88147C20.6846 6.46615 20.049 6.88315 19.332 7.06673" stroke="#016DEA" stroke-linecap="round" stroke-linejoin="round"/>
<path d="M7.16797 0.608398C6.45096 0.791983 5.81544 1.20898 5.3616 1.79366C4.90777 2.37833 4.66143 3.09742 4.66143 3.83757C4.66143 4.57771 4.90777 5.2968 5.3616 5.88147C5.81544 6.46615 6.45096 6.88315 7.16797 7.06673" stroke="#016DEA" stroke-linecap="round" stroke-linejoin="round"/>
</g>
<defs>
<clipPath id="clip0_1987_61610">
<rect width="26" height="16" fill="white"/>
</clipPath>
</defs>
</svg>
