<svg width="187" height="187" viewBox="0 0 187 187" fill="none" xmlns="http://www.w3.org/2000/svg">
<path d="M120.78 159.72C157.352 144.653 174.786 102.792 159.72 66.2198C144.653 29.6476 102.792 12.2138 66.2197 27.2803C29.6475 42.3468 12.2138 84.2082 27.2803 120.78C42.3468 157.352 84.2081 174.786 120.78 159.72Z" stroke="#7CD4FF" stroke-width="2" stroke-miterlimit="10"/>
<path d="M93.4898 155.96C81.144 155.96 69.0755 152.299 58.8104 145.44C48.5453 138.581 40.5448 128.832 35.8205 117.425C31.0963 106.019 29.8606 93.4684 32.2696 81.3599C34.6786 69.2514 40.6242 58.1292 49.3545 49.3999C58.0847 40.6705 69.2075 34.7261 81.3163 32.3184C93.425 29.9106 105.976 31.1477 117.381 35.8731C128.787 40.5985 138.535 48.6001 145.393 58.8659C152.251 69.1317 155.911 81.2006 155.91 93.5464C155.889 110.094 149.306 125.958 137.604 137.659C125.902 149.359 110.038 155.941 93.4898 155.96V155.96Z" stroke="#7CD4FF" stroke-width="2" stroke-miterlimit="10"/>
<path d="M93.4899 146.768C122.883 146.768 146.711 122.94 146.711 93.5467C146.711 64.1534 122.883 40.3254 93.4899 40.3254C64.0966 40.3254 40.2687 64.1534 40.2687 93.5467C40.2687 122.94 64.0966 146.768 93.4899 146.768Z" stroke="#7CD4FF" stroke-width="2" stroke-miterlimit="10"/>
<path d="M93.4897 136.896C117.431 136.896 136.84 117.488 136.84 93.5465C136.84 69.6049 117.431 50.1965 93.4897 50.1965C69.5481 50.1965 50.1397 69.6049 50.1397 93.5465C50.1397 117.488 69.5481 136.896 93.4897 136.896Z" stroke="#7CD4FF" stroke-width="2" stroke-miterlimit="10"/>
<path d="M93.4897 127.854C112.437 127.854 127.798 112.494 127.798 93.5464C127.798 74.5987 112.437 59.2386 93.4897 59.2386C74.542 59.2386 59.1818 74.5987 59.1818 93.5464C59.1818 112.494 74.542 127.854 93.4897 127.854Z" stroke="#7CD4FF" stroke-width="2" stroke-miterlimit="10"/>
</svg>
