<svg width="20" height="20" viewBox="0 0 20 20" fill="none" xmlns="http://www.w3.org/2000/svg">
<g clip-path="url(#clip0_1987_61635)">
<path d="M15.9375 2.53921C13.9492 3.08999 10.8867 3.85952 9.36721 4.19937C7.33596 4.64858 5.59377 4.83608 2.18752 4.96108C1.57424 4.98452 1.00393 5.02358 0.917993 5.04312C0.687524 5.10562 0.41018 5.29702 0.257837 5.50015C-0.00778839 5.86343 2.41127e-05 5.78921 2.41127e-05 8.51577C2.41127e-05 11.2423 -0.00778839 11.1681 0.257837 11.5314C0.41018 11.7345 0.687524 11.9298 0.917993 11.9845C1.00393 12.008 1.32815 12.0353 1.64065 12.0509L2.20706 12.0783L3.35549 14.2658C3.9883 15.4689 4.57034 16.5509 4.64846 16.6759C5.36721 17.7892 7.0508 17.9455 8.00784 16.9923C8.43362 16.5666 8.66799 16.0041 8.6719 15.4064C8.6719 14.9533 8.55862 14.6447 7.96877 13.5275C7.66799 12.9572 7.4258 12.4806 7.43362 12.4767C7.46096 12.4494 8.60159 12.6642 9.5508 12.8751C10.7071 13.133 13.1641 13.7462 15.1563 14.2775C16.4688 14.6291 16.6016 14.6564 16.8594 14.6408C17.3164 14.6095 17.6797 14.3556 17.8985 13.9103C17.9844 13.7384 17.9883 13.6759 18 12.7111L18.0117 11.6876L18.2696 11.5392C18.8711 11.1837 19.3399 10.6837 19.6485 10.0587C19.9102 9.52749 20 9.13687 20 8.51577C20 7.89468 19.9102 7.50015 19.6485 6.9728C19.3399 6.3439 18.8985 5.87124 18.2852 5.50796L18.0117 5.3439L18 4.32437C17.9883 3.35562 17.9844 3.29312 17.8985 3.12124C17.7696 2.85952 17.5742 2.64858 17.3399 2.51968C17.168 2.42593 17.0742 2.4064 16.8164 2.39468C16.5508 2.38687 16.418 2.4064 15.9375 2.53921ZM17.0117 3.20327C17.2774 3.36733 17.2578 3.01968 17.2735 8.49624C17.2852 13.2658 17.2813 13.4611 17.211 13.6017C17.125 13.7775 16.9336 13.9064 16.7617 13.9064C16.6914 13.9064 16.4844 13.8634 16.2969 13.8126C14.6953 13.3634 11.0977 12.4533 9.80471 12.1681C9.44924 12.09 9.12893 12.0197 9.09377 12.008C9.02737 11.9884 9.02346 11.7892 9.02346 8.51577C9.02346 5.24233 9.02737 5.04312 9.09377 5.02358C9.12893 5.01187 9.44924 4.94155 9.80471 4.86343C11.1133 4.57437 15.1719 3.54702 16.3281 3.20718C16.668 3.10952 16.8555 3.10562 17.0117 3.20327ZM8.28127 8.51577C8.28127 10.6525 8.26955 11.8361 8.24221 11.8361C8.22268 11.8361 7.9883 11.8009 7.72659 11.758C6.72268 11.5978 4.83596 11.4376 3.02737 11.3673C1.23831 11.2931 1.07034 11.2775 0.953149 11.1681C0.718774 10.9494 0.726587 11.0509 0.726587 8.51577C0.72268 5.9689 0.710962 6.08608 0.953149 5.86343C1.07034 5.75405 1.2344 5.73843 3.0469 5.66421C4.84768 5.58999 6.76565 5.42983 7.6758 5.27749C7.91409 5.23843 8.14455 5.20327 8.19534 5.19937L8.28127 5.19546V8.51577ZM18.3321 6.46499C18.9063 6.93765 19.2578 7.71499 19.2578 8.51577C19.2578 9.44155 18.8906 10.1408 18.0781 10.7775C18.0117 10.8283 18.0078 10.715 18.0078 8.51577C18.0078 6.31655 18.0117 6.20327 18.0781 6.25405C18.1133 6.2853 18.2305 6.37905 18.3321 6.46499ZM4.27737 12.1681C5.12502 12.2228 6.49612 12.3361 6.50784 12.3556C6.50784 12.3595 6.8008 12.922 7.16018 13.6017C7.51565 14.2853 7.83987 14.9416 7.87502 15.0666C8.05862 15.6955 7.70315 16.4376 7.07424 16.7501C6.87893 16.8439 6.81252 16.8556 6.46487 16.8556C6.1133 16.8556 6.0508 16.8439 5.84768 16.7462C5.40237 16.5236 5.35549 16.4533 4.17971 14.2189C3.58987 13.0978 3.10159 12.1603 3.09377 12.1447C3.07424 12.0978 3.18752 12.1017 4.27737 12.1681Z" fill="#016DEA"/>
</g>
<defs>
<clipPath id="clip0_1987_61635">
<rect width="20" height="20" fill="white"/>
</clipPath>
</defs>
</svg>
