<svg width="25" height="24" viewBox="0 0 25 24" fill="none" xmlns="http://www.w3.org/2000/svg">
<path d="M11.909 0.429221C12.095 -0.143291 12.905 -0.14329 13.091 0.429221L15.6158 8.19989C15.699 8.45592 15.9376 8.62927 16.2068 8.62927H24.3774C24.9794 8.62927 25.2297 9.39958 24.7427 9.75341L18.1325 14.5559C17.9147 14.7142 17.8236 14.9947 17.9068 15.2507L20.4316 23.0214C20.6176 23.5939 19.9624 24.07 19.4754 23.7161L12.8653 18.9136C12.6475 18.7554 12.3525 18.7554 12.1347 18.9136L5.52462 23.7161C5.03761 24.07 4.38235 23.5939 4.56837 23.0214L7.09321 15.2507C7.1764 14.9947 7.08527 14.7142 6.86747 14.5559L0.257349 9.75341C-0.229658 9.39958 0.0206308 8.62927 0.622605 8.62927H8.79317C9.06238 8.62927 9.30097 8.45592 9.38416 8.19989L11.909 0.429221Z" fill="#016DEA"/>
</svg>
