<svg width="744" height="32" viewBox="0 0 744 32" fill="none" xmlns="http://www.w3.org/2000/svg">
<path d="M647.953 11.0469C647.27 10.3906 646.203 10.3906 645.52 11.0469L640.488 16.0781C639.34 17.2266 639.34 19.1133 640.488 20.2617C641.637 21.4102 643.523 21.4102 644.672 20.2617L648.828 16.1055C649.129 15.8047 649.594 15.8047 649.895 16.1055C650.195 16.4062 650.195 16.8711 649.895 17.1719L645.738 21.3281C643.988 23.0781 641.172 23.0781 639.422 21.3281C637.672 19.5781 637.672 16.7617 639.422 15.0117L644.453 9.98047C645.711 8.69531 647.762 8.69531 649.02 9.98047C650.305 11.2383 650.305 13.2891 649.02 14.5469L644.207 19.3594C643.441 20.1523 642.156 20.1523 641.391 19.3594C640.598 18.5938 640.598 17.3086 641.391 16.543L645.328 12.6055C645.629 12.3047 646.094 12.3047 646.395 12.6055C646.695 12.9062 646.695 13.3711 646.395 13.6719L642.457 17.6094C642.293 17.8008 642.293 18.1016 642.457 18.293C642.648 18.457 642.949 18.457 643.141 18.293L647.953 13.4805C648.609 12.7969 648.609 11.7305 647.953 11.0469Z" fill="#8D879F"/>
<g clip-path="url(#clip0_2243_64360)">
<path d="M679.828 25.9999C684.674 25.9999 688.617 22.0397 688.617 17.1718C688.617 12.3144 684.686 8.38281 679.828 8.38281C674.96 8.38281 671 12.3256 671 17.1718C671 22.0304 674.97 25.9999 679.828 25.9999ZM679.828 9.55468C684.028 9.55468 687.445 12.9717 687.445 17.1718C687.445 21.3935 684.028 24.8281 679.828 24.8281C675.606 24.8281 672.172 21.3935 672.172 17.1718C672.172 12.9717 675.606 9.55468 679.828 9.55468Z" fill="#8D879F"/>
<path d="M679.828 22.4453C682.732 22.4453 685.102 20.0837 685.102 17.1719C685.102 16.8483 684.839 16.5859 684.516 16.5859H675.141C674.817 16.5859 674.555 16.8483 674.555 17.1719C674.555 20.085 676.925 22.4453 679.828 22.4453ZM677.924 20.8036C678.449 20.3521 679.116 20.1015 679.828 20.1015C680.54 20.1015 681.208 20.3521 681.733 20.8036C681.163 21.1035 680.515 21.2734 679.828 21.2734C679.141 21.2734 678.493 21.1035 677.924 20.8036ZM683.888 17.7578C683.757 18.6688 683.326 19.4839 682.698 20.0994C681.936 19.3498 680.919 18.9297 679.828 18.9297C678.737 18.9297 677.72 19.3498 676.959 20.0994C676.331 19.4839 675.899 18.6687 675.768 17.7578H683.888Z" fill="#8D879F"/>
<path d="M685.992 8.3279L686.265 6.68192C686.318 6.36266 686.102 6.06094 685.783 6.00797C685.464 5.95508 685.162 6.17086 685.109 6.49012L684.836 8.1361C684.783 8.45536 684.999 8.75708 685.318 8.81004C685.638 8.86301 685.939 8.64665 685.992 8.3279Z" fill="#8D879F"/>
<path d="M688.19 11.6816C688.242 12.0001 688.544 12.2167 688.864 12.1637L690.51 11.8906C690.829 11.8377 691.045 11.536 690.992 11.2167C690.939 10.8975 690.637 10.6816 690.318 10.7345L688.672 11.0076C688.353 11.0606 688.137 11.3623 688.19 11.6816Z" fill="#8D879F"/>
<path d="M688.525 7.64625L686.868 9.30285C686.639 9.53164 686.639 9.90265 686.868 10.1315C687.097 10.3603 687.468 10.3603 687.697 10.1315L689.353 8.47488C689.582 8.24609 689.582 7.87507 689.353 7.64625C689.124 7.41742 688.753 7.41738 688.525 7.64625Z" fill="#8D879F"/>
<path d="M675.727 14.8281C676.05 14.8281 676.312 14.5658 676.312 14.2422C676.312 13.9191 676.575 13.6562 676.898 13.6562C677.222 13.6562 677.484 13.9191 677.484 14.2422C677.484 14.5658 677.747 14.8281 678.07 14.8281C678.394 14.8281 678.656 14.5658 678.656 14.2422C678.656 13.2729 677.868 12.4844 676.898 12.4844C675.929 12.4844 675.141 13.2729 675.141 14.2422C675.141 14.5658 675.403 14.8281 675.727 14.8281Z" fill="#8D879F"/>
<path d="M681.586 14.8281C681.91 14.8281 682.172 14.5658 682.172 14.2422C682.172 13.9191 682.435 13.6562 682.758 13.6562C683.081 13.6562 683.344 13.9191 683.344 14.2422C683.344 14.5658 683.606 14.8281 683.93 14.8281C684.253 14.8281 684.516 14.5658 684.516 14.2422C684.516 13.2729 683.727 12.4844 682.758 12.4844C681.789 12.4844 681 13.2729 681 14.2422C681 14.5658 681.262 14.8281 681.586 14.8281Z" fill="#8D879F"/>
</g>
<circle cx="727" cy="16" r="16" fill="#016DEA"/>
<g clip-path="url(#clip1_2243_64360)">
<path d="M733.706 9.22995C733.465 9.00885 733.122 8.93516 732.811 9.03761L719.622 13.3853C719.263 13.5038 719.019 13.8246 719.001 14.2027C718.983 14.5807 719.196 14.923 719.543 15.0748L722.804 16.5019C722.82 16.5757 723.757 20.9186 723.788 21.0662C723.829 21.2558 723.926 21.4247 724.129 21.4766C724.336 21.5292 724.481 21.4165 724.635 21.3013C724.721 21.2372 727.056 19.4888 727.056 19.4888L729.885 21.8044C730.05 21.9393 730.252 22.0097 730.457 22.0097C730.555 22.0097 730.654 21.9937 730.75 21.9612C731.047 21.8602 731.268 21.6171 731.34 21.311L733.976 10.1049C734.051 9.78627 733.948 9.45105 733.706 9.22995ZM724.846 17.3196C724.844 17.3234 724.843 17.3278 724.841 17.3329L724.296 19.2392L723.687 16.4151L727.874 14.0888L724.946 17.1497C724.9 17.1979 724.866 17.2562 724.846 17.3196ZM725.019 19.9131L725.267 19.0473L725.504 18.2191L726.353 18.9141L725.019 19.9131ZM733.118 9.90313L730.483 21.1092C730.481 21.1148 730.48 21.1225 730.467 21.1269C730.454 21.1312 730.448 21.1262 730.443 21.1226L727.347 18.5888C727.347 18.5887 727.347 18.5886 727.347 18.5886L725.912 17.4146L730.521 12.5953C730.672 12.4379 730.685 12.1941 730.551 12.0217C730.418 11.8493 730.179 11.8 729.989 11.9058L723.164 15.6977L719.896 14.2676C719.886 14.2633 719.88 14.2609 719.881 14.244C719.882 14.2272 719.887 14.2253 719.898 14.2219L733.087 9.87428C733.093 9.87219 733.101 9.86979 733.111 9.87946C733.122 9.88919 733.12 9.89657 733.118 9.90313Z" fill="white"/>
</g>
<path d="M10 6.83398C9.33696 6.83398 8.70107 7.09738 8.23223 7.56622C7.76339 8.03506 7.5 8.67094 7.5 9.33398V16.0007C7.5 16.6637 7.76339 17.2996 8.23223 17.7684C8.70107 18.2373 9.33696 18.5007 10 18.5007C10.663 18.5007 11.2989 18.2373 11.7678 17.7684C12.2366 17.2996 12.5 16.6637 12.5 16.0007V9.33398C12.5 8.67094 12.2366 8.03506 11.7678 7.56622C11.2989 7.09738 10.663 6.83398 10 6.83398V6.83398Z" stroke="#8D879F" stroke-linecap="round" stroke-linejoin="round"/>
<path d="M15.8337 14.334V16.0007C15.8337 17.5477 15.2191 19.0315 14.1251 20.1254C13.0312 21.2194 11.5474 21.834 10.0003 21.834C8.45323 21.834 6.9695 21.2194 5.87554 20.1254C4.78157 19.0315 4.16699 17.5477 4.16699 16.0007V14.334" stroke="#8D879F" stroke-linecap="round" stroke-linejoin="round"/>
<path d="M10 21.834V25.1673" stroke="#8D879F" stroke-linecap="round" stroke-linejoin="round"/>
<path d="M6.66699 25.166H13.3337" stroke="#8D879F" stroke-linecap="round" stroke-linejoin="round"/>
<path d="M59.1663 11.834L53.333 16.0007L59.1663 20.1673V11.834Z" stroke="#8D879F" stroke-linecap="round" stroke-linejoin="round"/>
<path d="M51.6663 10.166H42.4997C41.5792 10.166 40.833 10.9122 40.833 11.8327V20.166C40.833 21.0865 41.5792 21.8327 42.4997 21.8327H51.6663C52.5868 21.8327 53.333 21.0865 53.333 20.166V11.8327C53.333 10.9122 52.5868 10.166 51.6663 10.166Z" stroke="#8D879F" stroke-linecap="round" stroke-linejoin="round"/>
<defs>
<clipPath id="clip0_2243_64360">
<rect width="20" height="20" fill="white" transform="translate(671 6)"/>
</clipPath>
<clipPath id="clip1_2243_64360">
<rect width="15" height="15" fill="white" transform="translate(719 8)"/>
</clipPath>
</defs>
</svg>
