<svg width="130" height="17" viewBox="0 0 130 17" fill="none" xmlns="http://www.w3.org/2000/svg">
<path d="M5.85156 2.32422C3.30859 2.84375 1.25781 4.89453 0.738281 7.4375C0 11.293 2.625 14.7383 6.17969 15.2305C6.69922 15.3125 7.19141 14.9023 7.19141 14.3828V14.3555C7.19141 13.9453 6.86328 13.5625 6.45312 13.5078C4.12891 13.1523 2.37891 11.1562 2.37891 8.75C2.37891 5.93359 4.78516 3.66406 7.65625 3.9375C10.1445 4.18359 12.0039 6.45312 12.0039 8.96875V9.40625C12.0039 10.0078 11.5117 10.5 10.9102 10.5C10.2812 10.5 9.81641 10.0078 9.81641 9.40625V6.125C9.81641 5.87891 9.59766 5.6875 9.37891 5.6875H8.50391C8.28516 5.6875 8.12109 5.82422 8.06641 5.98828C7.41016 5.66016 6.58984 5.55078 5.71484 5.85156C4.67578 6.23438 3.85547 7.19141 3.71875 8.3125C3.44531 10.1992 4.89453 11.8125 6.75391 11.8125C7.46484 11.8125 8.12109 11.5391 8.64062 11.1289C9.29688 11.9766 10.418 12.4688 11.6484 12.168C12.9062 11.8672 13.7539 10.6367 13.7266 9.35156V8.77734C13.7266 4.70312 10.0625 1.50391 5.85156 2.32422ZM6.72656 10.0898C5.98828 10.0898 5.41406 9.48828 5.41406 8.77734C5.41406 8.03906 5.98828 7.46484 6.72656 7.46484C7.4375 7.46484 8.03906 8.03906 8.03906 8.77734C8.03906 9.48828 7.46484 10.0898 6.72656 10.0898Z" fill="#8D879F"/>
<path d="M39.1445 4.04688C38.4609 3.39062 37.3945 3.39062 36.7109 4.04688L31.6797 9.07812C30.5312 10.2266 30.5312 12.1133 31.6797 13.2617C32.8281 14.4102 34.7148 14.4102 35.8633 13.2617L40.0195 9.10547C40.3203 8.80469 40.7852 8.80469 41.0859 9.10547C41.3867 9.40625 41.3867 9.87109 41.0859 10.1719L36.9297 14.3281C35.1797 16.0781 32.3633 16.0781 30.6133 14.3281C28.8633 12.5781 28.8633 9.76172 30.6133 8.01172L35.6445 2.98047C36.9023 1.69531 38.9531 1.69531 40.2109 2.98047C41.4961 4.23828 41.4961 6.28906 40.2109 7.54688L35.3984 12.3594C34.6328 13.1523 33.3477 13.1523 32.582 12.3594C31.7891 11.5938 31.7891 10.3086 32.582 9.54297L36.5195 5.60547C36.8203 5.30469 37.2852 5.30469 37.5859 5.60547C37.8867 5.90625 37.8867 6.37109 37.5859 6.67188L33.6484 10.6094C33.4844 10.8008 33.4844 11.1016 33.6484 11.293C33.8398 11.457 34.1406 11.457 34.332 11.293L39.1445 6.48047C39.8008 5.79688 39.8008 4.73047 39.1445 4.04688Z" fill="#8D879F"/>
<path d="M57.1914 8.75C57.1914 4.89453 60.3086 1.75 64.1914 1.75C68.0469 1.75 71.1914 4.89453 71.1914 8.75C71.1914 12.6328 68.0469 15.75 64.1914 15.75C60.3086 15.75 57.1914 12.6328 57.1914 8.75ZM61.6758 10.6641C61.5117 10.4727 61.2383 10.4727 61.0469 10.6094C60.8555 10.7734 60.8555 11.0469 60.9922 11.2383C61.6211 11.9492 62.6602 12.6875 64.1641 12.6875C65.6953 12.6875 66.7344 11.9492 67.3633 11.2383C67.5 11.0469 67.5 10.7734 67.3086 10.6094C67.1172 10.4727 66.8438 10.4727 66.6797 10.6641C66.1875 11.2383 65.3672 11.8125 64.1641 11.8125C62.9883 11.8125 62.168 11.2383 61.6758 10.6641ZM62.0039 6.5625C61.5117 6.5625 61.1289 6.97266 61.1289 7.4375C61.1289 7.92969 61.5117 8.3125 62.0039 8.3125C62.4961 8.3125 62.8789 7.92969 62.8789 7.4375C62.8789 6.97266 62.4961 6.5625 62.0039 6.5625ZM66.3789 8.3125C66.8711 8.3125 67.2539 7.92969 67.2539 7.4375C67.2539 6.97266 66.8711 6.5625 66.3789 6.5625C65.8867 6.5625 65.5039 6.97266 65.5039 7.4375C65.5039 7.92969 65.8867 8.3125 66.3789 8.3125Z" fill="#8D879F"/>
<path d="M99.7266 6.31641C99.8359 6.5625 99.7539 6.80859 99.5625 7L98.3867 8.06641C98.4141 8.28516 98.4414 8.53125 98.4414 8.75C98.4414 8.99609 98.4141 9.24219 98.3867 9.46094L99.5625 10.5273C99.7539 10.7188 99.8359 10.9648 99.7266 11.2109C99.6172 11.5391 99.4805 11.8398 99.3164 12.1406L99.1797 12.3594C98.9883 12.6602 98.7969 12.9609 98.5781 13.2344C98.4141 13.4258 98.1406 13.4805 97.8945 13.3984L96.3906 12.9336C96.0078 13.207 95.5977 13.4258 95.1875 13.6172L94.832 15.1758C94.7773 15.4219 94.5859 15.6133 94.3398 15.668C93.957 15.7227 93.5742 15.75 93.1641 15.75C92.7812 15.75 92.3984 15.7227 92.0156 15.668C91.7695 15.6133 91.5781 15.4219 91.5234 15.1758L91.168 13.6172C90.7578 13.4258 90.3477 13.207 89.9648 12.9336L88.4609 13.3984C88.2148 13.4805 87.9414 13.4258 87.7773 13.2344C87.5586 12.9609 87.3672 12.6602 87.1758 12.3594L87.0391 12.1406C86.875 11.8398 86.7383 11.5391 86.6289 11.2109C86.5195 10.9648 86.6016 10.7188 86.793 10.5273L87.9688 9.46094C87.9414 9.24219 87.9414 8.99609 87.9414 8.75C87.9414 8.53125 87.9414 8.28516 87.9688 8.06641L86.793 7C86.6016 6.80859 86.5195 6.5625 86.6289 6.31641C86.7383 5.98828 86.875 5.6875 87.0391 5.38672L87.1758 5.16797C87.3672 4.86719 87.5586 4.56641 87.7773 4.29297C87.9414 4.10156 88.2148 4.04688 88.4609 4.12891L89.9648 4.59375C90.3477 4.32031 90.7578 4.07422 91.168 3.91016L91.5234 2.35156C91.5781 2.10547 91.7695 1.91406 92.0156 1.85938C92.3984 1.80469 92.7812 1.75 93.1914 1.75C93.5742 1.75 93.957 1.80469 94.3398 1.85938C94.5859 1.91406 94.7773 2.10547 94.832 2.35156L95.1875 3.91016C95.5977 4.07422 96.0078 4.32031 96.3906 4.59375L97.8945 4.12891C98.1406 4.04688 98.4141 4.10156 98.5781 4.29297C98.7969 4.56641 98.9883 4.86719 99.1797 5.16797L99.3164 5.38672C99.4805 5.6875 99.6172 5.98828 99.7266 6.31641ZM93.1914 10.9375C94.3945 10.9375 95.3789 9.98047 95.3789 8.75C95.3789 7.54688 94.3945 6.5625 93.1914 6.5625C91.9609 6.5625 91.0039 7.54688 91.0039 8.75C91.0039 9.98047 91.9609 10.9375 93.1914 10.9375Z" fill="#8D879F"/>
<path d="M129.164 2.76172L127.414 14.1094C127.387 14.3828 127.223 14.6289 126.977 14.7656C126.84 14.8203 126.703 14.875 126.539 14.875C126.43 14.875 126.32 14.8477 126.211 14.793L122.875 13.3984L121.48 15.4766C121.371 15.668 121.18 15.75 120.988 15.75C120.688 15.75 120.441 15.5039 120.441 15.2031V12.5781C120.441 12.3594 120.496 12.168 120.605 12.0312L126.566 4.375L118.527 11.6211L115.711 10.4453C115.41 10.3086 115.191 10.0352 115.191 9.67969C115.164 9.29688 115.328 9.02344 115.629 8.85938L127.879 1.88672C128.152 1.72266 128.535 1.72266 128.809 1.91406C129.082 2.10547 129.219 2.43359 129.164 2.76172Z" fill="#8D879F"/>
</svg>
