<svg width="20" height="20" viewBox="0 0 20 20" fill="none" xmlns="http://www.w3.org/2000/svg">
<path d="M5.83464 18.3332H3.33464C2.89261 18.3332 2.46868 18.1576 2.15612 17.845C1.84356 17.5325 1.66797 17.1085 1.66797 16.6665V10.8332C1.66797 10.3911 1.84356 9.96722 2.15612 9.65466C2.46868 9.3421 2.89261 9.1665 3.33464 9.1665H5.83464M11.668 7.49984V4.1665C11.668 3.50346 11.4046 2.86758 10.9357 2.39874C10.4669 1.9299 9.83101 1.6665 9.16797 1.6665L5.83464 9.1665V18.3332H15.2346C15.6366 18.3377 16.0266 18.1968 16.3329 17.9365C16.6392 17.6762 16.841 17.3139 16.9013 16.9165L18.0513 9.4165C18.0876 9.17763 18.0714 8.93374 18.0041 8.70171C17.9367 8.46969 17.8197 8.25508 17.6612 8.07276C17.5026 7.89045 17.3064 7.74478 17.0859 7.64585C16.8655 7.54692 16.6262 7.4971 16.3846 7.49984H11.668Z" stroke="#016DEA" stroke-linecap="round" stroke-linejoin="round"/>
</svg>
