<svg width="16" height="16" viewBox="0 0 16 16" fill="none" xmlns="http://www.w3.org/2000/svg">
<path d="M4.22845 3.29292C4.4888 3.55327 4.4888 3.97538 4.22845 4.23573C2.14499 6.31919 2.14499 9.69716 4.22845 11.7806C4.4888 12.041 4.4888 12.4631 4.22845 12.7234C3.9681 12.9838 3.54599 12.9838 3.28564 12.7234C0.681478 10.1193 0.681478 5.89708 3.28564 3.29292C3.54599 3.03257 3.9681 3.03257 4.22845 3.29292ZM12.7162 3.29292C15.3203 5.89708 15.3203 10.1193 12.7162 12.7234C12.4558 12.9838 12.0337 12.9838 11.7734 12.7234C11.513 12.4631 11.513 12.041 11.7734 11.7806C13.8568 9.69716 13.8568 6.31919 11.7734 4.23573C11.513 3.97538 11.513 3.55327 11.7734 3.29292C12.0337 3.03257 12.4558 3.03257 12.7162 3.29292ZM6.20622 5.2085C6.46657 5.46885 6.46657 5.89096 6.20622 6.15131C5.18558 7.17195 5.18558 8.82674 6.20622 9.84738C6.46657 10.1077 6.46657 10.5298 6.20622 10.7902C5.94587 11.0505 5.52376 11.0505 5.26341 10.7902C3.72207 9.24885 3.72207 6.74984 5.26341 5.2085C5.52376 4.94815 5.94587 4.94815 6.20622 5.2085ZM10.8451 5.2085C12.3864 6.74984 12.3864 9.24885 10.8451 10.7902C10.5847 11.0505 10.1626 11.0505 9.90229 10.7902C9.64194 10.5298 9.64194 10.1077 9.90229 9.84738C10.9229 8.82674 10.9229 7.17195 9.90229 6.15131C9.64194 5.89096 9.64194 5.46885 9.90229 5.2085C10.1626 4.94815 10.5847 4.94815 10.8451 5.2085ZM8.05425 7.05478C8.60654 7.05478 9.05425 7.5025 9.05425 8.05478C9.05425 8.60707 8.60654 9.05478 8.05425 9.05478C7.50197 9.05478 7.05426 8.60707 7.05426 8.05478C7.05426 7.5025 7.50197 7.05478 8.05425 7.05478Z" fill="#FA0101"/>
</svg>
