<svg width="227" height="227" viewBox="0 0 227 227" fill="none" xmlns="http://www.w3.org/2000/svg">
<path d="M102.245 177.337C89.6182 175.11 77.9352 169.189 68.6732 160.323C59.4112 151.457 52.9863 140.044 50.2109 127.527C47.4355 115.009 48.4342 101.951 53.0809 90.0016C57.7275 78.0525 65.8133 67.7497 76.3157 60.3962C86.8182 53.0427 99.2656 48.9687 112.084 48.6894C124.902 48.4101 137.516 51.9379 148.329 58.8269C159.143 65.716 167.671 75.6567 172.835 87.392C177.999 99.1273 179.567 112.13 177.341 124.756" stroke="#F24E3D" stroke-width="1.69186" stroke-miterlimit="10"/>
<path d="M104.963 161.918C95.3863 160.229 86.5251 155.738 79.5001 149.013C72.4752 142.289 67.602 133.632 65.497 124.138C63.3919 114.644 64.1494 104.74 67.6738 95.6764C71.1981 86.6134 77.3309 78.799 85.2968 73.2216C93.2626 67.6441 102.704 64.5541 112.426 64.3423C122.148 64.1304 131.715 66.8062 139.917 72.0313C148.119 77.2565 154.587 84.7962 158.504 93.6972C162.421 102.598 163.61 112.46 161.922 122.037" stroke="#F24E3D" stroke-width="1.69186" stroke-miterlimit="10"/>
<path d="M106.188 141.649C100.087 140.573 94.4424 137.713 89.9673 133.429C85.4921 129.145 82.3878 123.63 81.0468 117.582C79.7058 111.534 80.1883 105.225 82.4335 99.4511C84.6786 93.6776 88.5854 88.6995 93.66 85.1465C98.7345 81.5935 104.749 79.625 110.942 79.49C117.136 79.3551 123.23 81.0597 128.455 84.3883C133.68 87.7169 137.801 92.52 140.296 98.1902C142.791 103.86 143.549 110.143 142.473 116.244" stroke="#F24E3D" stroke-width="1.69186" stroke-miterlimit="10"/>
</svg>
