<svg width="24" height="24" viewBox="0 0 24 24" fill="none" xmlns="http://www.w3.org/2000/svg">
<path d="M11.9993 12.5837C12.3215 12.5837 12.5827 12.3225 12.5827 12.0003C12.5827 11.6782 12.3215 11.417 11.9993 11.417C11.6772 11.417 11.416 11.6782 11.416 12.0003C11.416 12.3225 11.6772 12.5837 11.9993 12.5837Z" stroke="#AAA9AD" stroke-linecap="round" stroke-linejoin="round"/>
<path d="M11.9993 8.49967C12.3215 8.49967 12.5827 8.23851 12.5827 7.91634C12.5827 7.59417 12.3215 7.33301 11.9993 7.33301C11.6772 7.33301 11.416 7.59417 11.416 7.91634C11.416 8.23851 11.6772 8.49967 11.9993 8.49967Z" stroke="#AAA9AD" stroke-linecap="round" stroke-linejoin="round"/>
<path d="M11.9993 16.6667C12.3215 16.6667 12.5827 16.4055 12.5827 16.0833C12.5827 15.7612 12.3215 15.5 11.9993 15.5C11.6772 15.5 11.416 15.7612 11.416 16.0833C11.416 16.4055 11.6772 16.6667 11.9993 16.6667Z" stroke="#AAA9AD" stroke-linecap="round" stroke-linejoin="round"/>
</svg>
