<svg width="26" height="26" viewBox="0 0 26 26" fill="none" xmlns="http://www.w3.org/2000/svg">
<path d="M16.3438 9.575C14.5625 10.4187 13.6438 11.9375 13.625 14C13.625 16.8312 15.6125 18.8562 18.3875 18.875C19.8875 18.875 20.8063 18.5562 21.7813 17.7125C22.925 16.7 23.4313 15.575 23.4313 14.0187C23.4313 12.5562 23.0938 11.6937 22.175 10.6625C20.75 9.0875 18.3125 8.6375 16.3438 9.575ZM19.4563 12.8937C20.375 13.4187 21.125 13.925 21.125 14C21.125 14.2437 17.7688 16.1 17.5625 15.9688C17.3563 15.8375 17.3 12.2562 17.5063 12.0687C17.6938 11.8812 17.675 11.8625 19.4563 12.8937Z" fill="white"/>
<path d="M6.3502 11.0187C3.9127 12.2375 3.9127 15.8 6.36895 16.9812C7.1002 17.3375 7.5127 17.375 10.5877 17.375C12.4627 17.375 14.0002 17.3375 14.0002 17.3C14.0002 17.2625 13.794 16.775 13.5315 16.2125C13.194 15.4812 13.0627 14.9 13.0627 14C13.0627 13.1 13.194 12.5187 13.5315 11.7875C13.794 11.225 14.0002 10.7375 14.0002 10.7C14.0002 10.6625 12.4627 10.625 10.5877 10.625C7.4752 10.625 7.08145 10.6625 6.3502 11.0187Z" fill="white"/>
</svg>
