<svg width="16" height="16" viewBox="0 0 16 16" fill="none" xmlns="http://www.w3.org/2000/svg">
<path d="M13.4871 0H2.51562V0.489796H13.4871V0Z" fill="#016DEA"/>
<path d="M13.4871 15.5098H2.51562V15.9996H13.4871V15.5098Z" fill="#016DEA"/>
<path d="M3.23438 11.9468V14.9877H3.72417V11.9468C3.72417 10.9992 4.25243 10.1475 5.09988 9.72379L7.97762 8.28532L10.8473 9.72379C11.6947 10.1475 12.214 10.9992 12.214 11.9468V14.9877H12.7364V11.9468C12.7364 10.8085 12.1004 9.78534 11.0826 9.27647L8.53945 8.00574L10.976 6.78873C12.0602 6.24663 12.7364 5.15686 12.7364 3.94449V0.979492H12.214V3.94449C12.214 4.96614 11.654 5.88477 10.7403 6.34139L7.97468 7.72614L5.20541 6.34139C4.29168 5.88477 3.72417 4.96614 3.72417 3.94449V0.979492H3.23438V3.94449C3.23438 5.15686 3.90461 6.24663 4.98879 6.78873L7.42102 8.00574L4.88218 9.27647C3.86429 9.78534 3.23438 10.8085 3.23438 11.9468Z" fill="#016DEA"/>
<path d="M9.21126 14.2363H4.47656V14.7261H9.21126V14.2363Z" fill="#016DEA"/>
<path d="M10.4502 14.2363H9.69922V14.7261H10.4502V14.2363Z" fill="#016DEA"/>
</svg>
