<svg width="29" height="21" viewBox="0 0 29 21" fill="none" xmlns="http://www.w3.org/2000/svg">
<g clip-path="url(#clip0_1072_33340)">
<path d="M21.976 19.8145V17.8145C21.976 16.7536 21.555 15.7362 20.8057 14.986C20.0564 14.2359 19.0402 13.8145 17.9805 13.8145H9.9896C8.92994 13.8145 7.91368 14.2359 7.16438 14.986C6.41509 15.7362 5.99414 16.7536 5.99414 17.8145V19.8145" stroke="#8D879F" stroke-linecap="round" stroke-linejoin="round"/>
<path d="M13.9837 9.81445C16.1904 9.81445 17.9792 8.02359 17.9792 5.81445C17.9792 3.60531 16.1904 1.81445 13.9837 1.81445C11.7771 1.81445 9.98828 3.60531 9.98828 5.81445C9.98828 8.02359 11.7771 9.81445 13.9837 9.81445Z" stroke="#8D879F" stroke-linecap="round" stroke-linejoin="round"/>
<path d="M27.9673 19.8143V17.8143C27.9666 16.9281 27.672 16.0671 27.1296 15.3667C26.5872 14.6662 25.8279 14.1659 24.9707 13.9443" stroke="#8D879F" stroke-linecap="round" stroke-linejoin="round"/>
<path d="M0.999499 19.8143V17.8143C1.00016 16.9281 1.29481 16.0671 1.83718 15.3667C2.37956 14.6662 3.13894 14.1659 3.99609 13.9443" stroke="#8D879F" stroke-linecap="round" stroke-linejoin="round"/>
<path d="M20.9766 1.94434C21.836 2.16464 22.5978 2.66504 23.1417 3.36665C23.6857 4.06826 23.981 4.93117 23.981 5.81934C23.981 6.70751 23.6857 7.57042 23.1417 8.27203C22.5978 8.97363 21.836 9.47403 20.9766 9.69434" stroke="#8D879F" stroke-linecap="round" stroke-linejoin="round"/>
<path d="M7.99023 1.94434C7.1308 2.16464 6.36904 2.66504 5.82506 3.36665C5.28107 4.06826 4.98581 4.93117 4.98581 5.81934C4.98581 6.70751 5.28107 7.57042 5.82506 8.27203C6.36904 8.97363 7.1308 9.47403 7.99023 9.69434" stroke="#8D879F" stroke-linecap="round" stroke-linejoin="round"/>
</g>
<defs>
<clipPath id="clip0_1072_33340">
<rect width="28.9671" height="21" fill="white"/>
</clipPath>
</defs>
</svg>
