<svg width="376" height="30" viewBox="0 0 376 30" fill="none" xmlns="http://www.w3.org/2000/svg">
<path d="M244.014 27.8641C244.014 27.8641 252.444 23.6491 252.444 17.3266V9.95031L244.014 6.78906L235.584 9.95031V17.3266C235.584 23.6491 244.014 27.8641 244.014 27.8641Z" stroke="#016DEA" stroke-width="1.405" stroke-linecap="round" stroke-linejoin="round"/>
<g clip-path="url(#clip0_2243_63250)">
<path d="M244.014 11.4414V21.1008" stroke="#016DEA" stroke-width="1.405" stroke-linecap="round" stroke-linejoin="round"/>
<path d="M246.209 13.1992H242.916C242.508 13.1992 242.117 13.3611 241.829 13.6493C241.541 13.9375 241.379 14.3284 241.379 14.7359C241.379 15.1435 241.541 15.5344 241.829 15.8226C242.117 16.1108 242.508 16.2727 242.916 16.2727H245.111C245.519 16.2727 245.909 16.4346 246.198 16.7228C246.486 17.0109 246.648 17.4018 246.648 17.8094C246.648 18.2169 246.486 18.6078 246.198 18.896C245.909 19.1842 245.519 19.3461 245.111 19.3461H241.379" stroke="#016DEA" stroke-width="1.405" stroke-linecap="round" stroke-linejoin="round"/>
</g>
<circle cx="256.659" cy="4.68333" r="4.68333" fill="#0ACD5E"/>
<path d="M258.494 3.52344L255.918 6.09927L254.747 4.92844" stroke="white" stroke-width="0.936667" stroke-linecap="round" stroke-linejoin="round"/>
<path d="M4.57332 8.89844H21.4333C22.5924 8.89844 23.5408 9.84681 23.5408 11.0059V23.6509C23.5408 24.8101 22.5924 25.7584 21.4333 25.7584H4.57332C3.4142 25.7584 2.46582 24.8101 2.46582 23.6509V11.0059C2.46582 9.84681 3.4142 8.89844 4.57332 8.89844Z" stroke="#016DEA" stroke-width="1.405" stroke-linecap="round" stroke-linejoin="round"/>
<path d="M23.5408 11.0039L13.0033 18.3802L2.46582 11.0039" stroke="#016DEA" stroke-width="1.405" stroke-linecap="round" stroke-linejoin="round"/>
<circle cx="27.5222" cy="4.68333" r="4.68333" fill="#FA0101"/>
<path d="M28.9272 3.28125L26.1172 6.09125" stroke="white" stroke-width="0.936667" stroke-linecap="round" stroke-linejoin="round"/>
<path d="M26.1172 3.28125L28.9272 6.09125" stroke="white" stroke-width="0.936667" stroke-linecap="round" stroke-linejoin="round"/>
<path d="M141.388 22.5111V25.6724C141.389 25.9658 141.329 26.2563 141.211 26.5252C141.094 26.7941 140.921 27.0355 140.705 27.2339C140.489 27.4323 140.233 27.5833 139.955 27.6773C139.677 27.7714 139.383 27.8063 139.091 27.7799C135.848 27.4275 132.733 26.3195 129.997 24.5449C127.451 22.927 125.292 20.7684 123.674 18.2224C121.893 15.4733 120.785 12.3435 120.439 9.08634C120.413 8.79494 120.448 8.50126 120.541 8.22398C120.634 7.9467 120.784 7.6919 120.982 7.47581C121.179 7.25972 121.419 7.08707 121.687 6.96885C121.954 6.85063 122.244 6.78944 122.536 6.78916H125.697C126.209 6.78413 126.705 6.96522 127.092 7.29869C127.48 7.63215 127.733 8.09523 127.805 8.60161C127.938 9.61328 128.186 10.6066 128.543 11.5627C128.684 11.9398 128.715 12.3497 128.631 12.7438C128.547 13.1378 128.352 13.4996 128.068 13.7861L126.73 15.1243C128.23 17.7624 130.414 19.9468 133.053 21.4468L134.391 20.1086C134.677 19.8253 135.039 19.63 135.433 19.546C135.827 19.4619 136.237 19.4926 136.614 19.6344C137.57 19.9911 138.564 20.2386 139.575 20.372C140.087 20.4442 140.555 20.702 140.889 21.0965C141.223 21.4909 141.401 21.9943 141.388 22.5111Z" stroke="#016DEA" stroke-width="1.405" stroke-linecap="round" stroke-linejoin="round"/>
<circle cx="140.685" cy="4.68333" r="4.68333" fill="#0ACD5E"/>
<path d="M142.52 3.52344L139.944 6.09927L138.773 4.92844" stroke="white" stroke-width="0.936667" stroke-linecap="round" stroke-linejoin="round"/>
<g clip-path="url(#clip1_2243_63250)">
<path d="M359.987 19.201C360.575 19.201 361.149 19.0267 361.638 18.7002C362.127 18.3736 362.508 17.9095 362.733 17.3666C362.957 16.8236 363.016 16.2261 362.902 15.6497C362.787 15.0732 362.504 14.5438 362.088 14.1282C361.673 13.7126 361.143 13.4296 360.567 13.3149C359.99 13.2003 359.393 13.2591 358.85 13.484C358.307 13.7089 357.843 14.0898 357.516 14.5785C357.19 15.0671 357.016 15.6417 357.016 16.2294C357.016 17.0175 357.329 17.7733 357.886 18.3306C358.443 18.8879 359.199 19.201 359.987 19.201ZM359.987 14.3818C360.353 14.3818 360.71 14.4902 361.014 14.6932C361.317 14.8962 361.554 15.1848 361.694 15.5224C361.834 15.86 361.871 16.2314 361.799 16.5898C361.728 16.9482 361.552 17.2774 361.294 17.5358C361.035 17.7942 360.706 17.9702 360.348 18.0415C359.989 18.1128 359.618 18.0762 359.28 17.9363C358.943 17.7965 358.654 17.5597 358.451 17.2558C358.248 16.952 358.14 16.5948 358.14 16.2294C358.14 15.7394 358.334 15.2694 358.681 14.923C359.027 14.5765 359.497 14.3818 359.987 14.3818Z" fill="#016DEA"/>
<path d="M362.797 6.55734C362.797 6.18471 362.649 5.82735 362.385 5.56386C362.122 5.30037 361.764 5.15234 361.392 5.15234H358.582C358.209 5.15234 357.852 5.30037 357.588 5.56386C357.325 5.82735 357.177 6.18471 357.177 6.55734V11.4748H362.797V6.55734ZM361.392 10.0698H358.582V6.55734H361.392V10.0698Z" fill="#016DEA"/>
<path d="M365.607 24.8205V23.2048C365.609 23.0175 365.545 22.8357 365.425 22.6919C364.743 21.9324 363.902 21.3323 362.963 20.9341C362.023 20.5358 361.007 20.3493 359.987 20.3877C358.966 20.352 357.949 20.5418 357.009 20.9437C356.069 21.3456 355.23 21.9497 354.55 22.713C354.43 22.8571 354.366 23.0387 354.367 23.2258V24.8205H355.491V23.3242C356.068 22.7184 356.767 22.2432 357.543 21.9305C358.318 21.6179 359.152 21.4751 359.987 21.5117C360.823 21.476 361.657 21.6199 362.433 21.9337C363.208 22.2476 363.907 22.7242 364.483 23.3312V24.8205H365.607Z" fill="#016DEA"/>
<path d="M367.012 7.96094H364.202V9.36594H367.012V26.2259H352.962V9.36594H355.772V7.96094H352.962C352.589 7.96094 352.232 8.10896 351.968 8.37245C351.705 8.63594 351.557 8.99331 351.557 9.36594V26.2259C351.557 26.5986 351.705 26.9559 351.968 27.2194C352.232 27.4829 352.589 27.6309 352.962 27.6309H367.012C367.384 27.6309 367.742 27.4829 368.005 27.2194C368.269 26.9559 368.417 26.5986 368.417 26.2259V9.36594C368.417 8.99331 368.269 8.63594 368.005 8.37245C367.742 8.10896 367.384 7.96094 367.012 7.96094Z" fill="#016DEA"/>
</g>
<circle cx="370.759" cy="4.68333" r="4.68333" fill="#0ACD5E"/>
<g clip-path="url(#clip2_2243_63250)">
<path d="M372.593 3.52344L370.018 6.09927L368.847 4.92844" stroke="white" stroke-width="0.936667" stroke-linecap="round" stroke-linejoin="round"/>
</g>
<defs>
<clipPath id="clip0_2243_63250">
<rect width="10.5375" height="10.5375" fill="white" transform="translate(238.745 11.0039)"/>
</clipPath>
<clipPath id="clip1_2243_63250">
<rect width="25.29" height="25.29" fill="white" transform="translate(347.342 3.74609)"/>
</clipPath>
<clipPath id="clip2_2243_63250">
<rect width="5.62" height="5.62" fill="white" transform="translate(367.91 2.11719)"/>
</clipPath>
</defs>
</svg>
