<svg width="24" height="24" viewBox="0 0 24 24" fill="none" xmlns="http://www.w3.org/2000/svg">
<path d="M8.66667 5H6.16667C5.72464 5 5.30072 5.17559 4.98816 5.48816C4.67559 5.80072 4.5 6.22464 4.5 6.66667V9.16667M19.5 9.16667V6.66667C19.5 6.22464 19.3244 5.80072 19.0118 5.48816C18.6993 5.17559 18.2754 5 17.8333 5H15.3333M15.3333 20H17.8333C18.2754 20 18.6993 19.8244 19.0118 19.5118C19.3244 19.1993 19.5 18.7754 19.5 18.3333V15.8333M4.5 15.8333V18.3333C4.5 18.7754 4.67559 19.1993 4.98816 19.5118C5.30072 19.8244 5.72464 20 6.16667 20H8.66667" stroke="white" stroke-width="2" stroke-linecap="round" stroke-linejoin="round"/>
</svg>
