<svg width="16" height="16" viewBox="0 0 16 16" fill="none" xmlns="http://www.w3.org/2000/svg">
<path fill-rule="evenodd" clip-rule="evenodd" d="M13.333 2.66797H2.66634C1.93301 2.66797 1.33301 3.26797 1.33301 4.0013V12.0013C1.33301 12.7346 1.93301 13.3346 2.66634 13.3346H13.333C14.0663 13.3346 14.6663 12.7346 14.6663 12.0013V4.0013C14.6663 3.26797 14.0663 2.66797 13.333 2.66797ZM5.99967 5.33464C6.73634 5.33464 7.33301 5.93197 7.33301 6.66797C7.33301 7.40397 6.73634 8.0013 5.99967 8.0013C5.26301 8.0013 4.66634 7.40397 4.66634 6.66797C4.66634 5.93197 5.26434 5.33464 5.99967 5.33464ZM3.99967 10.668C3.99967 9.4413 4.77301 8.66797 5.99967 8.66797C7.22634 8.66797 7.99967 9.4413 7.99967 10.668H3.99967ZM11.9997 10.668H9.33301V9.33464H11.9997V10.668ZM11.9997 8.66797H9.33301V7.33464H11.9997V8.66797Z" fill="#8D879F"/>
</svg>
