<svg width="15" height="14" viewBox="0 0 15 14" fill="none" xmlns="http://www.w3.org/2000/svg">
<path d="M7.234 0.570136C7.24452 0.53775 7.25859 0.524821 7.26898 0.517737C7.28256 0.508479 7.30351 0.500892 7.3293 0.500892C7.3551 0.500892 7.37604 0.508479 7.38963 0.517736C7.40002 0.52482 7.41409 0.537749 7.42461 0.570135L8.74265 4.62665C8.89022 5.08083 9.31346 5.38833 9.79101 5.38833H14.0563C14.0903 5.38833 14.107 5.39771 14.1169 5.4054C14.1299 5.41546 14.1436 5.43304 14.1516 5.45757C14.1596 5.4821 14.1588 5.50437 14.1542 5.52014C14.1507 5.53222 14.1427 5.54959 14.1152 5.56961L10.6645 8.07667C10.2782 8.35737 10.1165 8.85491 10.2641 9.30909L11.5821 13.3656C11.5926 13.398 11.5889 13.4167 11.5846 13.4286C11.5791 13.444 11.5666 13.4625 11.5457 13.4776C11.5248 13.4928 11.5034 13.499 11.487 13.4995C11.4744 13.4998 11.4555 13.4977 11.4279 13.4776L7.97722 10.9706C7.59088 10.6899 7.06773 10.6899 6.68138 10.9706L3.23071 13.4776C3.20316 13.4977 3.18418 13.4998 3.1716 13.4995C3.15517 13.499 3.13377 13.4928 3.1129 13.4776C3.09203 13.4625 3.07955 13.444 3.074 13.4286C3.06975 13.4167 3.06597 13.398 3.0765 13.3656L4.39454 9.30909C4.54211 8.85491 4.38045 8.35737 3.9941 8.07667L0.543426 5.56961C0.515877 5.54959 0.507927 5.53222 0.504401 5.52015C0.499794 5.50437 0.499052 5.4821 0.507022 5.45757C0.514993 5.43304 0.528681 5.41546 0.541683 5.4054C0.551632 5.39771 0.568275 5.38833 0.602327 5.38833H4.8676C5.34515 5.38833 5.76838 5.08083 5.91596 4.62665L7.234 0.570136Z" fill="#016DEA" stroke="#016DEA"/>
</svg>
