<svg width="24" height="24" viewBox="0 0 24 24" fill="none" xmlns="http://www.w3.org/2000/svg">
<path d="M6.99237 22H3.99578C3.46595 22 2.95782 21.7893 2.58317 21.4142C2.20852 21.0391 1.99805 20.5304 1.99805 20V13C1.99805 12.4696 2.20852 11.9609 2.58317 11.5858C2.95782 11.2107 3.46595 11 3.99578 11H6.99237M13.9844 9V5C13.9844 4.20435 13.6687 3.44129 13.1067 2.87868C12.5448 2.31607 11.7826 2 10.9878 2L6.99237 11V22H18.2596C18.7413 22.0055 19.2089 21.8364 19.576 21.524C19.9431 21.2116 20.1851 20.7769 20.2573 20.3L21.6357 11.3C21.6792 11.0134 21.6599 10.7207 21.5791 10.4423C21.4984 10.1638 21.3581 9.90629 21.1681 9.68751C20.9781 9.46873 20.7428 9.29393 20.4786 9.17522C20.2144 9.0565 19.9276 8.99672 19.638 9H13.9844Z" stroke="#8D879F" stroke-linecap="round" stroke-linejoin="round"/>
</svg>
