<svg width="16" height="16" viewBox="0 0 16 16" fill="none" xmlns="http://www.w3.org/2000/svg">
<g clip-path="url(#clip0_0_689)">
<path d="M15.439 15.6192C15.7488 15.6192 16 15.3681 16 15.0581V5.57019C16 5.26032 15.7488 5.00912 15.439 5.00912H8.98888V0.941937C8.98888 0.631957 8.73783 0.380859 8.42801 0.380859H0.56097C0.251205 0.380859 0 0.632011 0 0.941937V15.0581C0 15.3681 0.251205 15.6192 0.56097 15.6192H15.439V15.6192ZM9.84512 6.13116H11.3146V8.57313H9.84512V6.13116ZM3.75984 1.50285H5.22925V3.15786H3.75984V1.50285ZM1.12194 1.50285H2.63785V3.71888C2.63785 4.0287 2.88905 4.27985 3.19892 4.27985H5.79022C6.09993 4.27985 6.35108 4.0287 6.35108 3.71888V1.50285H7.8671V5.00912H5.72083C5.41107 5.00912 5.15986 5.26032 5.15986 5.57019V14.4972H1.12194V1.50285ZM6.2817 14.4972V6.13116H8.72312V9.13394C8.72312 9.44381 8.97438 9.69491 9.28409 9.69491H11.8756C12.1854 9.69491 12.4366 9.44381 12.4366 9.13394V6.13116H14.878V14.4972H6.2817V14.4972Z" fill="#016DEA"/>
</g>
<defs>
<clipPath id="clip0_0_689">
<rect width="16" height="16" fill="white"/>
</clipPath>
</defs>
</svg>
