<svg width="174" height="30" viewBox="0 0 174 30" fill="none" xmlns="http://www.w3.org/2000/svg">
<path d="M109.219 27.8905C109.219 27.8905 117.657 23.6717 117.657 17.3436V9.96069L109.219 6.79661L100.782 9.96069V17.3436C100.782 23.6717 109.219 27.8905 109.219 27.8905Z" stroke="#016DEA" stroke-width="1.405" stroke-linecap="round" stroke-linejoin="round"/>
<g clip-path="url(#clip0_1987_63406)">
<path d="M109.219 11.4546V21.1226" stroke="#016DEA" stroke-width="1.405" stroke-linecap="round" stroke-linejoin="round"/>
<path d="M111.416 13.2125H108.12C107.712 13.2125 107.321 13.3746 107.032 13.663C106.744 13.9515 106.582 14.3427 106.582 14.7506C106.582 15.1585 106.744 15.5498 107.032 15.8382C107.321 16.1267 107.712 16.2887 108.12 16.2887H110.317C110.725 16.2887 111.116 16.4508 111.405 16.7392C111.693 17.0277 111.855 17.4189 111.855 17.8268C111.855 18.2347 111.693 18.6259 111.405 18.9144C111.116 19.2028 110.725 19.3649 110.317 19.3649H106.582" stroke="#016DEA" stroke-width="1.405" stroke-linecap="round" stroke-linejoin="round"/>
</g>
<circle cx="121.876" cy="4.68753" r="4.68753" fill="#0ACD5E"/>
<g clip-path="url(#clip1_1987_63406)">
<path d="M123.713 3.52415L121.135 6.10229L119.963 4.93041" stroke="white" stroke-width="0.936667" stroke-linecap="round" stroke-linejoin="round"/>
</g>
<path d="M4.2187 8.90592H21.0938C22.254 8.90592 23.2032 9.85515 23.2032 11.0153V23.6716C23.2032 24.8318 22.254 25.781 21.0938 25.781H4.2187C3.05853 25.781 2.10931 24.8318 2.10931 23.6716V11.0153C2.10931 9.85515 3.05853 8.90592 4.2187 8.90592Z" stroke="#016DEA" stroke-width="1.405" stroke-linecap="round" stroke-linejoin="round"/>
<path d="M23.2032 11.0152L12.6563 18.3981L2.10931 11.0152" stroke="#016DEA" stroke-width="1.405" stroke-linecap="round" stroke-linejoin="round"/>
<circle cx="27.1881" cy="4.68753" r="4.68753" fill="#FA0101"/>
<g clip-path="url(#clip2_1987_63406)">
<path d="M28.5934 3.28175L25.7809 6.09426" stroke="white" stroke-width="0.936667" stroke-linecap="round" stroke-linejoin="round"/>
<path d="M25.7809 3.28175L28.5934 6.09426" stroke="white" stroke-width="0.936667" stroke-linecap="round" stroke-linejoin="round"/>
</g>
<path d="M73.8259 22.5328V25.6968C73.8271 25.9906 73.767 26.2813 73.6493 26.5504C73.5316 26.8196 73.359 27.0612 73.1426 27.2597C72.9261 27.4583 72.6706 27.6095 72.3923 27.7036C72.1141 27.7977 71.8192 27.8327 71.5267 27.8062C68.2812 27.4536 65.1637 26.3446 62.4247 24.5683C59.8764 22.949 57.7158 20.7885 56.0965 18.2401C54.3141 15.4887 53.2048 12.356 52.8586 9.09595C52.8322 8.80429 52.8669 8.51034 52.9604 8.23281C53.0539 7.95528 53.2041 7.70026 53.4015 7.48397C53.599 7.26769 53.8393 7.09489 54.1071 6.97656C54.375 6.85824 54.6646 6.79699 54.9574 6.79671H58.1215C58.6334 6.79168 59.1296 6.97293 59.5177 7.30669C59.9058 7.64046 60.1593 8.10395 60.2309 8.61079C60.3645 9.62336 60.6121 10.6176 60.9692 11.5745C61.1111 11.952 61.1418 12.3622 61.0577 12.7567C60.9736 13.1511 60.7782 13.5131 60.4946 13.7999L59.1551 15.1393C60.6565 17.7798 62.8428 19.9661 65.4833 21.4675L66.8228 20.128C67.1095 19.8445 67.4716 19.6491 67.866 19.5649C68.2604 19.4808 68.6707 19.5115 69.0482 19.6534C70.0051 20.0105 70.9993 20.2582 72.0119 20.3917C72.5242 20.464 72.9921 20.7221 73.3266 21.1168C73.661 21.5116 73.8388 22.0155 73.8259 22.5328Z" stroke="#016DEA" stroke-width="1.405" stroke-linecap="round" stroke-linejoin="round"/>
<circle cx="73.1238" cy="4.68753" r="4.68753" fill="#0ACD5E"/>
<g clip-path="url(#clip3_1987_63406)">
<path d="M74.9603 3.52415L72.3821 6.10229L71.2102 4.93041" stroke="white" stroke-width="0.936667" stroke-linecap="round" stroke-linejoin="round"/>
</g>
<g clip-path="url(#clip4_1987_63406)">
<path d="M157.97 19.2187C158.559 19.2187 159.134 19.0442 159.623 18.7174C160.112 18.3906 160.493 17.9261 160.718 17.3826C160.943 16.8391 161.002 16.2411 160.887 15.6642C160.773 15.0872 160.489 14.5573 160.074 14.1413C159.658 13.7254 159.128 13.4421 158.551 13.3273C157.974 13.2126 157.376 13.2715 156.832 13.4966C156.289 13.7217 155.824 14.1029 155.497 14.592C155.171 15.0811 154.996 15.6562 154.996 16.2444C154.996 17.0332 155.31 17.7897 155.867 18.3475C156.425 18.9053 157.182 19.2187 157.97 19.2187ZM157.97 14.3952C158.336 14.3952 158.694 14.5036 158.998 14.7068C159.302 14.91 159.539 15.1988 159.679 15.5367C159.819 15.8747 159.855 16.2465 159.784 16.6052C159.713 16.9639 159.537 17.2934 159.278 17.552C159.019 17.8106 158.69 17.9868 158.331 18.0581C157.972 18.1295 157.601 18.0928 157.263 17.9529C156.925 17.8129 156.636 17.5759 156.433 17.2718C156.23 16.9677 156.121 16.6102 156.121 16.2444C156.121 15.754 156.316 15.2836 156.663 14.9368C157.01 14.59 157.48 14.3952 157.97 14.3952Z" fill="#016DEA"/>
<path d="M160.783 6.56322C160.783 6.19026 160.635 5.83257 160.372 5.56884C160.108 5.30512 159.75 5.15696 159.377 5.15696H156.565C156.192 5.15696 155.834 5.30512 155.57 5.56884C155.307 5.83257 155.158 6.19026 155.158 6.56322V11.4851H160.783V6.56322ZM159.377 10.0789H156.565V6.56322H159.377V10.0789Z" fill="#016DEA"/>
<path d="M163.595 24.8437V23.2265C163.598 23.0391 163.533 22.8571 163.413 22.7132C162.73 21.9531 161.889 21.3524 160.948 20.9538C160.008 20.5552 158.991 20.3685 157.97 20.407C156.948 20.3712 155.93 20.5611 154.99 20.9634C154.049 21.3657 153.209 21.9703 152.528 22.7343C152.409 22.8785 152.344 23.0603 152.345 23.2476V24.8437H153.47V23.3461C154.047 22.7397 154.747 22.2641 155.524 21.9511C156.3 21.6382 157.134 21.4953 157.97 21.532C158.807 21.4962 159.642 21.6402 160.418 21.9544C161.194 22.2685 161.894 22.7455 162.47 23.3531V24.8437H163.595Z" fill="#016DEA"/>
<path d="M165.001 7.96905H162.189V9.37531H165.001V26.2504H150.939V9.37531H153.751V7.96905H150.939C150.566 7.96905 150.208 8.11721 149.944 8.38093C149.68 8.64466 149.532 9.00234 149.532 9.37531V26.2504C149.532 26.6234 149.68 26.9811 149.944 27.2448C150.208 27.5085 150.566 27.6567 150.939 27.6567H165.001C165.374 27.6567 165.732 27.5085 165.996 27.2448C166.259 26.9811 166.407 26.6234 166.407 26.2504V9.37531C166.407 9.00234 166.259 8.64466 165.996 8.38093C165.732 8.11721 165.374 7.96905 165.001 7.96905Z" fill="#016DEA"/>
</g>
<circle cx="168.75" cy="4.68753" r="4.68753" fill="#0ACD5E"/>
<path d="M170.589 3.52415L168.011 6.10229L166.839 4.93041" stroke="white" stroke-width="0.936667" stroke-linecap="round" stroke-linejoin="round"/>
<defs>
<clipPath id="clip0_1987_63406">
<rect width="10.5375" height="10.5375" fill="white" transform="translate(103.947 11.0152) scale(1.0009)"/>
</clipPath>
<clipPath id="clip1_1987_63406">
<rect width="5.62" height="5.62" fill="white" transform="translate(119.025 2.1186) scale(1.0009)"/>
</clipPath>
<clipPath id="clip2_1987_63406">
<rect width="5.62" height="5.62" fill="white" transform="translate(24.3753 1.87521) scale(1.0009)"/>
</clipPath>
<clipPath id="clip3_1987_63406">
<rect width="5.62" height="5.62" fill="white" transform="translate(70.2719 2.1186) scale(1.0009)"/>
</clipPath>
<clipPath id="clip4_1987_63406">
<rect width="25.29" height="25.29" fill="white" transform="translate(145.314 3.74994) scale(1.0009)"/>
</clipPath>
</defs>
</svg>
