<svg width="20" height="20" viewBox="0 0 20 20" fill="none" xmlns="http://www.w3.org/2000/svg">
<g clip-path="url(#clip0_1987_61515)">
<path d="M4.16009 0.429687C3.20697 0.636718 2.41009 1.06641 1.73822 1.73828C1.039 2.4375 0.593685 3.28906 0.410092 4.27734C0.308529 4.80469 0.343685 5.78516 0.480404 6.29297C0.933529 8.01562 2.19915 9.28516 3.93353 9.75391C4.289 9.85156 4.37103 9.85938 5.11712 9.85938C5.86322 9.85938 5.94525 9.85156 6.30072 9.75391C8.03509 9.28516 9.28509 8.03125 9.75775 6.29297C9.8515 5.94531 9.85931 5.85937 9.85931 5.11719C9.85931 4.375 9.8515 4.28906 9.75775 3.94141C9.28509 2.20312 8.02337 0.937499 6.30072 0.480468C5.97259 0.39453 5.82025 0.378905 5.21478 0.367187C4.62884 0.355468 4.45306 0.367187 4.16009 0.429687ZM5.89447 0.999999C7.55072 1.29687 8.9179 2.66016 9.23431 4.33594C9.31244 4.74609 9.31244 5.48828 9.23431 5.89844C8.9179 7.57422 7.57415 8.91406 5.89447 9.23828C5.47259 9.31641 4.76165 9.31641 4.33978 9.23828C2.66009 8.91406 1.31634 7.57422 0.999936 5.89844C0.921811 5.48437 0.921811 4.74609 0.999936 4.33594C1.34369 2.51172 2.914 1.08984 4.74603 0.945312C5.17572 0.910155 5.46869 0.92578 5.89447 0.999999Z" fill="white"/>
<path d="M4.43231 1.49982C2.88934 1.8006 1.70574 3.03107 1.47918 4.57014C1.41668 4.99592 1.45574 5.6717 1.56121 6.07014C1.89715 7.33185 2.90106 8.33576 4.16277 8.6717C4.55731 8.77717 5.23699 8.81623 5.65496 8.75373C7.09246 8.54279 8.29559 7.47248 8.6784 6.05451C8.80731 5.57795 8.80731 4.65998 8.6784 4.18732C8.32684 2.89826 7.34246 1.90607 6.06902 1.56232C5.67449 1.45295 4.83074 1.4217 4.43231 1.49982ZM5.73309 2.09357C7.15887 2.38654 8.20184 3.66389 8.20184 5.11701C8.20184 6.80451 6.8034 8.20295 5.1159 8.20295C3.66277 8.20295 2.38543 7.15998 2.09246 5.7342C1.70184 3.84357 3.15496 2.0506 5.08856 2.03498C5.27606 2.03107 5.56512 2.05842 5.73309 2.09357Z" fill="white"/>
<path d="M4.97734 2.75015C4.84843 2.80484 4.80546 2.89859 4.80546 3.11734C4.80546 3.2189 4.78593 3.25015 4.7 3.2814C4.10625 3.49234 3.79765 4.05484 3.96171 4.61734C4.09062 5.05875 4.48906 5.35562 5.04765 5.42594C5.40312 5.4689 5.59062 5.56656 5.68437 5.76578C5.75859 5.92594 5.73906 6.07828 5.61796 6.23062C5.50078 6.37906 5.34453 6.44547 5.10625 6.44547C4.91484 6.44547 4.86796 6.42594 4.68437 6.28922C4.53984 6.17984 4.43437 6.13297 4.34843 6.13297C4.18437 6.13297 4.06328 6.25015 4.06328 6.41422C4.06328 6.57437 4.33281 6.83609 4.63359 6.95719C4.84062 7.04312 4.84453 7.04703 4.84453 7.20719C4.84453 7.44547 5.0125 7.57047 5.22734 7.49625C5.35625 7.45328 5.43046 7.32047 5.43046 7.13297C5.43046 7.01969 5.44609 7.00015 5.53984 6.98062C5.73125 6.94156 6.02812 6.70719 6.16093 6.48844C6.32109 6.2189 6.36015 5.94547 6.27421 5.64469C6.14921 5.22672 5.64531 4.8439 5.2039 4.8439C4.96953 4.8439 4.78984 4.77359 4.65703 4.63687C4.40312 4.37515 4.48125 4.06265 4.84453 3.87515C5.11015 3.73844 5.3914 3.80484 5.69609 4.06656C5.84843 4.19937 5.96953 4.21109 6.11015 4.09781C6.24687 3.98844 6.24687 3.80094 6.11015 3.63687C6.02421 3.53531 5.68046 3.33609 5.46171 3.26578C5.40703 3.25015 5.3914 3.19937 5.3914 3.05484C5.3914 2.77359 5.21562 2.64859 4.97734 2.75015Z" fill="white"/>
<path d="M16.375 5.14453C16.2344 5.26562 15.5469 6.50781 15.5469 6.63672C15.5469 6.80078 15.668 6.91406 15.8359 6.91406C16.0039 6.91406 16.0391 6.87109 16.4961 6.07031C16.8594 5.44141 16.8984 5.29688 16.7578 5.15625C16.6602 5.05859 16.4805 5.05469 16.375 5.14453Z" fill="white"/>
<path d="M11.9648 5.30468C11.5312 5.46093 11.2617 5.73046 11.1484 6.1289C11.0664 6.40234 11.0898 6.79687 11.2031 7.01562L11.2852 7.17577L11.1445 7.42187C10.5312 8.53124 9.30859 9.89452 7.98047 10.9492C7.625 11.2344 7.56641 11.2656 7.41406 11.2695C7.26953 11.2695 7.11328 11.3476 6.32812 11.7969C5.5625 12.2383 5.36719 12.3672 5.13672 12.5976C4.66797 13.0586 4.45312 13.5859 4.45312 14.2656C4.45312 14.9648 4.64844 15.4336 5.13281 15.918C5.62109 16.4023 6.10938 16.6016 6.79688 16.6016C7.20312 16.6016 7.53125 16.5312 7.84766 16.3672L8.06641 16.2578L9.27734 17.8867C10.6055 19.668 10.5898 19.6484 10.9883 19.6484C11.2344 19.6484 11.3633 19.5742 11.7383 19.2266C12.0664 18.918 12.1484 18.7773 12.1484 18.5117C12.1484 18.2617 12.1289 18.2266 11.5312 17.4258L11.1406 16.9023L11.332 16.75C11.5664 16.5664 11.6406 16.4531 11.668 16.2578C11.7031 16.0078 11.6172 15.832 11.1875 15.2578C10.9648 14.957 10.793 14.6992 10.8086 14.6836C10.8594 14.6367 11.6953 14.3828 12.207 14.2578C13.1406 14.0312 14.0469 13.9062 14.7852 13.9062C15.1523 13.9062 15.1914 13.9141 15.2148 13.9805C15.2539 14.1133 15.6484 14.4414 15.8438 14.5078C16.1055 14.5976 16.5117 14.5898 16.7773 14.4883C17.0352 14.3945 17.2969 14.1445 17.4219 13.8789C17.5352 13.6406 17.5664 13.2148 17.4883 12.9687C17.4609 12.8711 17.1406 12.2851 16.7852 11.6641C16.4258 11.0469 16.1328 10.5351 16.1328 10.5273C16.1328 10.5195 16.2188 10.4297 16.3281 10.3281C16.4336 10.2305 16.5703 10.0469 16.6289 9.92577C16.7266 9.73046 16.7383 9.66405 16.7383 9.3164C16.7383 8.96874 16.7266 8.90234 16.6289 8.70312C16.4883 8.41405 16.1641 8.11718 15.8672 8.0078C15.5938 7.90234 15.1406 7.89062 14.8867 7.98437C14.793 8.01952 14.7109 8.04687 14.707 8.04687C14.6992 8.04687 14.4102 7.55077 14.0586 6.9414C13.7109 6.33593 13.3672 5.76562 13.293 5.67577C13.0117 5.32421 12.3945 5.15234 11.9648 5.30468ZM12.6016 5.89452C12.6914 5.93359 12.8086 6.02734 12.8594 6.09765C12.9141 6.17187 13.8516 7.77734 14.9414 9.66796C17.1133 13.4297 17.0469 13.293 16.8789 13.6211C16.6797 14.0156 16.1914 14.1172 15.8672 13.8359C15.793 13.7695 14.9766 12.3906 13.7773 10.3125C12.6953 8.43359 11.7773 6.83984 11.7422 6.76952C11.5781 6.4453 11.7305 6.05859 12.0898 5.89452C12.2891 5.80468 12.3984 5.80468 12.6016 5.89452ZM13.2578 10.5976C14.1094 12.0742 14.8047 13.2891 14.8047 13.3008C14.8047 13.3125 14.7109 13.3203 14.6016 13.3203C13.4023 13.3203 11.5352 13.7383 9.98438 14.3516L9.46094 14.5586L8.6875 13.2109C8.25781 12.4726 7.91016 11.8437 7.91016 11.8203C7.91016 11.793 8.12891 11.5937 8.39844 11.3789C9.60938 10.4062 10.6719 9.26952 11.3594 8.21484C11.5586 7.90234 11.6289 7.82421 11.6641 7.86327C11.6875 7.88671 12.4062 9.11718 13.2578 10.5976ZM15.7734 8.62109C15.8633 8.67187 15.9883 8.78905 16.0469 8.87499C16.1367 9.01562 16.1523 9.07812 16.1523 9.3203C16.1523 9.57421 16.1406 9.61718 16.0312 9.77343C15.9609 9.86327 15.8828 9.9453 15.8516 9.95312C15.8203 9.95702 15.6484 9.69921 15.3984 9.26952L15 8.57421L15.1445 8.52734C15.3359 8.46484 15.5664 8.49999 15.7734 8.62109ZM8.18359 13.5273C8.64844 14.3398 9.02734 15.0078 9.01953 15.0156C9.01172 15.0234 8.66016 15.2266 8.24219 15.4648C7.34766 15.9766 7.19922 16.0312 6.69922 16.0078C6.375 15.9961 6.30469 15.9766 6.03906 15.8476C5.35156 15.5078 5.01172 14.9297 5.04688 14.1601C5.05859 13.8398 5.07812 13.7656 5.20312 13.5117C5.41797 13.0781 5.64062 12.8867 6.50391 12.3867C7.06641 12.0625 7.25781 11.9687 7.28906 12.0039C7.3125 12.0312 7.71484 12.7148 8.18359 13.5273ZM10.6562 15.543C10.8945 15.8711 11.0938 16.1523 11.0938 16.1719C11.0938 16.2031 10.7812 16.4219 10.7656 16.3984C10.6641 16.2773 9.83203 15.1328 9.82031 15.1016C9.80469 15.0547 10.1016 14.918 10.1758 14.9375C10.1992 14.9414 10.4141 15.2148 10.6562 15.543ZM10.4844 17.0195C11.0781 17.8203 11.5625 18.4961 11.5625 18.5273C11.5625 18.5976 11.043 19.0625 10.9648 19.0625C10.9023 19.0625 8.57422 15.9844 8.60938 15.9492C8.67969 15.875 9.35938 15.5156 9.37891 15.5391C9.39453 15.5547 9.89062 16.2187 10.4844 17.0195Z" fill="white"/>
<path d="M18.6512 7.07422C18.2254 7.30078 17.4754 7.75 17.4325 7.80469C17.3426 7.91406 17.37 8.10938 17.4833 8.19922C17.5419 8.24609 17.6239 8.28125 17.6669 8.28125C17.7528 8.28125 18.9598 7.60156 19.0692 7.48828C19.1786 7.38281 19.159 7.17188 19.0379 7.07422C18.909 6.97266 18.8465 6.97266 18.6512 7.07422Z" fill="white"/>
<path d="M17.7148 10.0586C17.6602 10.1094 17.6172 10.1992 17.6172 10.2539C17.6172 10.3086 17.6602 10.3984 17.7148 10.4492C17.8086 10.5469 17.8086 10.5469 18.6523 10.5469C19.4414 10.5469 19.4961 10.543 19.5703 10.4688C19.6211 10.418 19.6484 10.3398 19.6484 10.2383C19.6484 9.97266 19.6016 9.96094 18.6406 9.96094C17.8086 9.96094 17.8086 9.96094 17.7148 10.0586Z" fill="white"/>
</g>
<defs>
<clipPath id="clip0_1987_61515">
<rect width="20" height="20" fill="white"/>
</clipPath>
</defs>
</svg>
