<svg width="20" height="20" viewBox="0 0 20 20" fill="none" xmlns="http://www.w3.org/2000/svg">
<g clip-path="url(#clip0_2187_61913)">
<path d="M3.90657 0.0740337C3.3597 0.249815 2.87141 0.648252 2.62923 1.1131C2.3636 1.617 2.38313 0.972471 2.38313 9.99982C2.38313 19.0272 2.3636 18.3826 2.62923 18.8865C2.79329 19.1951 3.19954 19.6053 3.49641 19.7576C4.01595 20.0154 3.5511 19.9998 10.0003 19.9998C16.4495 19.9998 15.9847 20.0154 16.5042 19.7576C16.8011 19.6053 17.2074 19.1951 17.3714 18.8865C17.6331 18.3865 17.6175 18.8592 17.6175 11.5975V5.01935L15.1058 2.50763L12.598 -0.000185013L8.3597 0.00372124C4.40657 0.00372124 4.10579 0.00762749 3.90657 0.0740337ZM5.51595 1.85528C5.52766 2.37091 5.53157 2.38263 5.63704 2.4881L5.74251 2.59747L6.4261 2.60919L7.1097 2.62481V3.28497V3.94513H6.4886C5.82845 3.94513 5.6761 3.97247 5.58626 4.1131C5.51204 4.22638 5.4847 4.88653 5.54329 5.10528C5.6136 5.3631 5.69563 5.39044 6.46516 5.39044H7.1097V6.07403V6.75763H6.43001C5.76595 6.75763 5.74251 6.76153 5.63704 6.85138L5.52766 6.94513V7.46075V7.97638L5.63704 8.07013C5.74251 8.15997 5.76595 8.16388 6.4261 8.16388H7.10579L7.11751 8.77325L7.12923 9.38263L7.2386 9.47638L7.34798 9.57013H8.3636C9.39485 9.57013 9.4886 9.55841 9.59798 9.41779C9.62923 9.37482 9.64485 9.18732 9.64876 8.85919C9.64876 8.39044 9.64485 8.35919 9.55501 8.25372L9.46126 8.14435L8.77376 8.13263L8.08626 8.117V7.46075V6.8045L8.77376 6.78888L9.46126 6.77716L9.55501 6.66778C9.64485 6.56232 9.64876 6.53107 9.64876 6.06232C9.64485 5.35138 9.64876 5.35138 8.7347 5.35138H8.08626V4.66778V3.98419H8.76985C9.44563 3.98419 9.45735 3.98419 9.5511 3.88653C9.64485 3.79669 9.64876 3.77325 9.64876 3.28106C9.64876 2.78888 9.64485 2.76544 9.5511 2.6756C9.45735 2.57794 9.44563 2.57794 8.76985 2.57794H8.08626V1.95294V1.32794H10.0589H12.0316V2.68341C12.0316 3.43341 12.0472 4.15216 12.0667 4.28497C12.1605 4.92169 12.6136 5.40997 13.2347 5.54278C13.3675 5.57013 13.9534 5.58575 14.8402 5.58575H16.2386L16.2699 11.7537C16.3011 18.6053 16.3167 18.1639 16.0433 18.4295C15.7738 18.6873 16.2074 18.6717 9.99251 18.6717C4.59016 18.6717 4.34798 18.6678 4.19954 18.5975C4.1136 18.5584 3.99641 18.4764 3.93782 18.4139C3.69563 18.1561 3.71126 18.7225 3.71126 10.0076C3.71126 4.16388 3.72298 2.01935 3.75423 1.90997C3.81673 1.70685 4.00423 1.4881 4.19563 1.40216C4.32845 1.34356 4.45735 1.32794 4.93001 1.32794H5.50032L5.51595 1.85528Z" fill="#AAA9AD"/>
<path d="M6.89462 10.5656L6.79696 10.6594V11.5539V12.4484L6.50008 13.3234C6.20712 14.1906 6.20321 14.2023 6.21883 14.5305C6.24618 15.1008 6.49227 15.4875 6.97665 15.7258C7.27743 15.8742 7.74618 15.9055 8.04696 15.7961C8.45321 15.6515 8.81258 15.2844 8.92196 14.9055C9.04305 14.4875 9.01571 14.2844 8.69149 13.343L8.39852 12.4875V11.5812V10.675L8.29696 10.5695C8.19149 10.468 8.18758 10.468 7.58993 10.468C7.00399 10.468 6.98446 10.4719 6.89462 10.5656ZM8.18758 14.0812C8.30868 14.4758 8.30087 14.6633 8.14462 14.8625C7.89852 15.1906 7.46102 15.2375 7.14462 14.9719C6.85555 14.7258 6.84383 14.4719 7.08993 13.7961C7.10165 13.7609 7.23837 13.7492 7.59383 13.7492H8.08212L8.18758 14.0812Z" fill="#AAA9AD"/>
</g>
<defs>
<clipPath id="clip0_2187_61913">
<rect width="20" height="20" fill="white"/>
</clipPath>
</defs>
</svg>
