<svg width="96" height="96" viewBox="0 0 96 96" fill="none" xmlns="http://www.w3.org/2000/svg">
<path d="M66.1137 91.9689C90.3971 81.965 101.973 54.1697 91.9689 29.8863C81.965 5.6029 54.1697 -5.97289 29.8863 4.03104C5.60289 14.035 -5.97286 41.8303 4.03106 66.1137C14.035 90.3971 41.8303 101.973 66.1137 91.9689Z" stroke="#F24E3D" stroke-width="0.861577" stroke-miterlimit="10"/>
<path d="M47.9932 89.4724C39.7958 89.4724 31.7824 87.0415 24.9666 82.4872C18.1507 77.9328 12.8385 71.4596 9.70164 63.8861C6.56481 56.3126 5.74432 47.9789 7.34387 39.9391C8.94343 31.8992 12.8912 24.5142 18.688 18.7181C24.4847 12.9219 31.8701 8.9749 39.9101 7.37619C47.9502 5.77747 56.2837 6.59886 63.8569 9.73648C71.4301 12.8741 77.9028 18.187 82.4564 25.0034C87.0101 31.8197 89.4401 39.8333 89.4392 48.0307C89.4255 59.0183 85.0543 69.5518 77.2845 77.3207C69.5147 85.0897 58.9807 89.4598 47.9932 89.4724V89.4724Z" stroke="#F24E3D" stroke-width="0.861577" stroke-miterlimit="10"/>
<path d="M47.9932 83.3691C67.5099 83.3691 83.3313 67.5476 83.3313 48.0309C83.3313 28.5142 67.5099 12.6928 47.9932 12.6928C28.4765 12.6928 12.6551 28.5142 12.6551 48.0309C12.6551 67.5476 28.4765 83.3691 47.9932 83.3691Z" stroke="#F24E3D" stroke-width="0.861577" stroke-miterlimit="10"/>
<path d="M47.9931 76.8146C63.8899 76.8146 76.7769 63.9277 76.7769 48.0308C76.7769 32.134 63.8899 19.247 47.9931 19.247C32.0963 19.247 19.2093 32.134 19.2093 48.0308C19.2093 63.9277 32.0963 76.8146 47.9931 76.8146Z" stroke="#F24E3D" stroke-width="0.861577" stroke-miterlimit="10"/>
<path d="M47.9932 70.8107C60.5742 70.8107 70.7732 60.6118 70.7732 48.0308C70.7732 35.4498 60.5742 25.2509 47.9932 25.2509C35.4122 25.2509 25.2133 35.4498 25.2133 48.0308C25.2133 60.6118 35.4122 70.8107 47.9932 70.8107Z" stroke="#F24E3D" stroke-width="0.861577" stroke-miterlimit="10"/>
</svg>
