<svg width="20" height="20" viewBox="0 0 20 20" fill="none" xmlns="http://www.w3.org/2000/svg">
<path d="M9.20268 1.6875C8.26518 1.76953 7.22612 2.0625 6.3394 2.49609C4.62456 3.33984 3.3394 4.625 2.49565 6.33984C0.487841 10.4336 2.17143 15.4141 6.24956 17.4609C7.05815 17.8672 7.87065 18.125 8.78862 18.2656C9.4019 18.3594 10.5894 18.3594 11.2105 18.2656C13.9839 17.8398 16.273 16.1602 17.5035 13.6602C18.9371 10.7344 18.523 7.22266 16.441 4.67969C14.7066 2.5625 11.9957 1.44141 9.20268 1.6875ZM10.6636 2.55859C10.8238 2.57031 11.1089 2.60547 11.3003 2.64062L11.6402 2.70312V4.41797C11.6402 5.35938 11.6363 6.13281 11.6285 6.13281C11.6207 6.13281 11.4839 6.08984 11.3238 6.03516C10.4957 5.75 9.50347 5.75 8.66753 6.03516C8.50737 6.08984 8.37456 6.13281 8.37065 6.13281C8.36284 6.13281 8.35893 5.35938 8.35893 4.41797V2.70312L8.72222 2.63672C8.91753 2.60156 9.2769 2.55859 9.51128 2.54297C9.93315 2.51562 10.0738 2.51562 10.6636 2.55859ZM13.3785 3.32812C14.1675 3.72266 14.7457 4.16016 15.4136 4.85547C16.0699 5.53906 16.5074 6.19531 16.8746 7.05078L17.0621 7.48047L15.2339 7.49219L13.4058 7.5L12.9527 7.04688L12.4996 6.59766V4.76562V2.93359L12.7457 3.03516C12.8785 3.08984 13.1636 3.21875 13.3785 3.32812ZM7.49956 4.8125V6.66016L7.25347 6.86328C7.11675 6.97266 6.92925 7.16016 6.83159 7.28125L6.65972 7.49609L4.81597 7.5C3.55425 7.5 2.96831 7.48828 2.96831 7.46094C2.96831 7.4375 3.05425 7.22656 3.15581 6.99609C3.85112 5.4375 5.07768 4.12891 6.54253 3.38672C6.88628 3.21484 7.42534 2.97266 7.47222 2.96875C7.48784 2.96875 7.49956 3.80078 7.49956 4.8125ZM10.8746 6.81641C12.0425 7.15625 12.8863 8.01562 13.2066 9.19922C13.3355 9.67578 13.3277 10.4062 13.1871 10.8711C12.8316 12.0547 11.98 12.8867 10.8003 13.207C10.3238 13.3359 9.59331 13.3281 9.12847 13.1875C7.9644 12.8398 7.15972 12.0352 6.81206 10.8711C6.67143 10.4062 6.66362 9.67578 6.79253 9.19922C7.148 7.88281 8.20268 6.92969 9.54253 6.71484C9.89018 6.66016 10.4957 6.70703 10.8746 6.81641ZM6.13237 8.36719C6.13237 8.375 6.0894 8.50781 6.03472 8.66797C5.74956 9.50391 5.74956 10.4961 6.03472 11.3242C6.0894 11.4844 6.13237 11.6211 6.13237 11.6289C6.13237 11.6367 5.36284 11.6406 4.41753 11.6406H2.70268L2.65972 11.3945C2.55815 10.8203 2.53862 10.6094 2.53862 10C2.53862 9.39062 2.55815 9.17969 2.65972 8.60156L2.70268 8.35938H4.41753C5.36284 8.35938 6.13237 8.36328 6.13237 8.36719ZM17.3394 8.60156C17.4332 9.125 17.4605 9.41797 17.4605 10C17.4605 10.582 17.4332 10.875 17.3394 11.3945L17.2964 11.6406H15.5816C14.6363 11.6406 13.8667 11.6367 13.8667 11.6289C13.8667 11.6211 13.9097 11.4844 13.9644 11.3242C14.0191 11.1641 14.0894 10.8867 14.1207 10.707C14.2339 10.0586 14.1753 9.29297 13.9644 8.67578C13.9097 8.51562 13.8667 8.37891 13.8667 8.37109C13.8667 8.36328 14.6363 8.35938 15.5816 8.35938H17.2964L17.3394 8.60156ZM6.86284 12.7461C6.97222 12.8828 7.15972 13.0703 7.28081 13.168L7.49565 13.3398L7.49956 15.2031V17.0664L7.25737 16.9648C6.06597 16.4805 4.95269 15.6562 4.16753 14.668C3.86675 14.2891 3.50737 13.7109 3.26518 13.1953C3.12847 12.9102 3.00347 12.6367 2.98784 12.5859L2.9644 12.5H4.81206H6.65972L6.86284 12.7461ZM16.9644 12.7422C16.5464 13.7812 15.98 14.6133 15.1441 15.4141C14.4566 16.0742 13.8121 16.5 12.8902 16.8984L12.5191 17.0586L12.5074 15.2344L12.4996 13.4062L12.9371 12.957L13.3785 12.5078L15.2222 12.5039L17.066 12.5L16.9644 12.7422ZM8.67534 13.9648C8.8355 14.0195 9.11284 14.0898 9.29253 14.1211C9.94097 14.2344 10.7066 14.1758 11.3238 13.9648C11.4839 13.9102 11.6207 13.8672 11.6285 13.8672C11.6363 13.8672 11.6402 14.6406 11.6402 15.582V17.2969L11.2847 17.3633C10.5191 17.5039 9.48003 17.5039 8.7144 17.3633L8.35893 17.2969V15.582C8.35893 14.6406 8.36284 13.8672 8.37065 13.8672C8.37847 13.8672 8.51518 13.9102 8.67534 13.9648Z" fill="black"/>
</svg>
