<svg width="174" height="30" viewBox="0 0 174 30" fill="none" xmlns="http://www.w3.org/2000/svg">
<path d="M109.219 27.8905C109.219 27.8905 117.657 23.6717 117.657 17.3436V9.96069L109.219 6.79661L100.782 9.96069V17.3436C100.782 23.6717 109.219 27.8905 109.219 27.8905Z" stroke="#016DEA" stroke-width="1.405" stroke-linecap="round" stroke-linejoin="round"/>
<g clip-path="url(#clip0_1987_54390)">
<path d="M109.219 11.4546V21.1226" stroke="#016DEA" stroke-width="1.405" stroke-linecap="round" stroke-linejoin="round"/>
<path d="M111.417 13.2125H108.121C107.713 13.2125 107.322 13.3746 107.033 13.663C106.745 13.9515 106.583 14.3427 106.583 14.7506C106.583 15.1585 106.745 15.5498 107.033 15.8382C107.322 16.1267 107.713 16.2887 108.121 16.2887H110.318C110.726 16.2887 111.117 16.4508 111.406 16.7392C111.694 17.0277 111.856 17.4189 111.856 17.8268C111.856 18.2347 111.694 18.6259 111.406 18.9144C111.117 19.2028 110.726 19.3649 110.318 19.3649H106.583" stroke="#016DEA" stroke-width="1.405" stroke-linecap="round" stroke-linejoin="round"/>
</g>
<circle cx="121.875" cy="4.68753" r="4.68753" fill="#0ACD5E"/>
<g clip-path="url(#clip1_1987_54390)">
<path d="M123.712 3.52317L121.134 6.10131L119.962 4.92943" stroke="white" stroke-width="0.936667" stroke-linecap="round" stroke-linejoin="round"/>
</g>
<path d="M4.2187 8.90592H21.0938C22.254 8.90592 23.2032 9.85515 23.2032 11.0153V23.6716C23.2032 24.8318 22.254 25.781 21.0938 25.781H4.2187C3.05853 25.781 2.10931 24.8318 2.10931 23.6716V11.0153C2.10931 9.85515 3.05853 8.90592 4.2187 8.90592Z" stroke="#016DEA" stroke-width="1.405" stroke-linecap="round" stroke-linejoin="round"/>
<path d="M23.2032 11.0152L12.6563 18.3981L2.10931 11.0152" stroke="#016DEA" stroke-width="1.405" stroke-linecap="round" stroke-linejoin="round"/>
<circle cx="27.1881" cy="4.68753" r="4.68753" fill="#FA0101"/>
<g clip-path="url(#clip2_1987_54390)">
<path d="M28.5944 3.28175L25.7819 6.09426" stroke="white" stroke-width="0.936667" stroke-linecap="round" stroke-linejoin="round"/>
<path d="M25.7819 3.28175L28.5944 6.09426" stroke="white" stroke-width="0.936667" stroke-linecap="round" stroke-linejoin="round"/>
</g>
<path d="M73.8269 22.5328V25.6968C73.8281 25.9906 73.7679 26.2813 73.6503 26.5504C73.5326 26.8196 73.36 27.0612 73.1435 27.2597C72.9271 27.4583 72.6716 27.6095 72.3933 27.7036C72.1151 27.7977 71.8202 27.8327 71.5277 27.8062C68.2822 27.4536 65.1647 26.3446 62.4257 24.5683C59.8773 22.949 57.7168 20.7885 56.0975 18.2401C54.315 15.4887 53.2058 12.356 52.8596 9.09595C52.8332 8.80429 52.8679 8.51034 52.9614 8.23281C53.0548 7.95528 53.2051 7.70026 53.4025 7.48397C53.5999 7.26769 53.8402 7.09489 54.1081 6.97656C54.376 6.85824 54.6656 6.79699 54.9584 6.79671H58.1225C58.6344 6.79168 59.1306 6.97293 59.5187 7.30669C59.9068 7.64046 60.1603 8.10395 60.2319 8.61079C60.3654 9.62336 60.6131 10.6176 60.9702 11.5745C61.1121 11.952 61.1428 12.3622 61.0587 12.7567C60.9746 13.1511 60.7791 13.5131 60.4956 13.7999L59.1561 15.1393C60.6575 17.7798 62.8438 19.9661 65.4843 21.4675L66.8237 20.128C67.1105 19.8445 67.4725 19.6491 67.867 19.5649C68.2614 19.4808 68.6716 19.5115 69.0491 19.6534C70.006 20.0105 71.0003 20.2582 72.0128 20.3917C72.5252 20.464 72.9931 20.7221 73.3275 21.1168C73.662 21.5116 73.8397 22.0155 73.8269 22.5328Z" stroke="#016DEA" stroke-width="1.405" stroke-linecap="round" stroke-linejoin="round"/>
<circle cx="73.1238" cy="4.68753" r="4.68753" fill="#0ACD5E"/>
<g clip-path="url(#clip3_1987_54390)">
<path d="M74.9603 3.52317L72.3821 6.10131L71.2102 4.92943" stroke="white" stroke-width="0.936667" stroke-linecap="round" stroke-linejoin="round"/>
</g>
<g clip-path="url(#clip4_1987_54390)">
<path d="M157.969 19.2187C158.558 19.2187 159.133 19.0442 159.622 18.7174C160.111 18.3906 160.492 17.9261 160.717 17.3826C160.942 16.8391 161.001 16.2411 160.887 15.6642C160.772 15.0872 160.488 14.5573 160.073 14.1413C159.657 13.7254 159.127 13.4421 158.55 13.3273C157.973 13.2126 157.375 13.2715 156.831 13.4966C156.288 13.7217 155.823 14.1029 155.496 14.592C155.17 15.0811 154.995 15.6562 154.995 16.2444C154.995 17.0332 155.309 17.7897 155.866 18.3475C156.424 18.9053 157.181 19.2187 157.969 19.2187ZM157.969 14.3952C158.335 14.3952 158.693 14.5036 158.997 14.7068C159.301 14.91 159.538 15.1988 159.678 15.5367C159.818 15.8747 159.854 16.2465 159.783 16.6052C159.712 16.9639 159.536 17.2934 159.277 17.552C159.018 17.8106 158.689 17.9868 158.33 18.0581C157.971 18.1295 157.6 18.0928 157.262 17.9529C156.924 17.8129 156.635 17.5759 156.432 17.2718C156.229 16.9677 156.12 16.6102 156.12 16.2444C156.12 15.754 156.315 15.2836 156.662 14.9368C157.009 14.59 157.479 14.3952 157.969 14.3952Z" fill="#016DEA"/>
<path d="M160.782 6.56224C160.782 6.18928 160.634 5.83159 160.371 5.56787C160.107 5.30414 159.749 5.15598 159.376 5.15598H156.564C156.191 5.15598 155.833 5.30414 155.569 5.56787C155.306 5.83159 155.157 6.18928 155.157 6.56224V11.4841H160.782V6.56224ZM159.376 10.0779H156.564V6.56224H159.376V10.0779Z" fill="#016DEA"/>
<path d="M163.595 24.8437V23.2265C163.598 23.0391 163.533 22.8571 163.413 22.7132C162.73 21.9531 161.889 21.3524 160.948 20.9538C160.008 20.5552 158.991 20.3685 157.97 20.407C156.948 20.3712 155.93 20.5611 154.99 20.9634C154.049 21.3657 153.209 21.9703 152.528 22.7343C152.409 22.8785 152.344 23.0603 152.345 23.2476V24.8437H153.47V23.3461C154.047 22.7397 154.747 22.2641 155.524 21.9511C156.3 21.6382 157.134 21.4953 157.97 21.532C158.807 21.4962 159.642 21.6402 160.418 21.9544C161.194 22.2685 161.894 22.7455 162.47 23.3531V24.8437H163.595Z" fill="#016DEA"/>
<path d="M165.001 7.96807H162.189V9.37433H165.001V26.2494H150.939V9.37433H153.751V7.96807H150.939C150.566 7.96807 150.208 8.11623 149.944 8.37995C149.68 8.64368 149.532 9.00137 149.532 9.37433V26.2494C149.532 26.6224 149.68 26.9801 149.944 27.2438C150.208 27.5075 150.566 27.6557 150.939 27.6557H165.001C165.374 27.6557 165.732 27.5075 165.996 27.2438C166.259 26.9801 166.407 26.6224 166.407 26.2494V9.37433C166.407 9.00137 166.259 8.64368 165.996 8.37995C165.732 8.11623 165.374 7.96807 165.001 7.96807Z" fill="#016DEA"/>
</g>
<circle cx="168.751" cy="4.68753" r="4.68753" fill="#0ACD5E"/>
<path d="M170.588 3.52317L168.01 6.10131L166.838 4.92943" stroke="white" stroke-width="0.936667" stroke-linecap="round" stroke-linejoin="round"/>
<defs>
<clipPath id="clip0_1987_54390">
<rect width="10.5375" height="10.5375" fill="white" transform="translate(103.946 11.0152) scale(1.0009)"/>
</clipPath>
<clipPath id="clip1_1987_54390">
<rect width="5.62" height="5.62" fill="white" transform="translate(119.025 2.11762) scale(1.0009)"/>
</clipPath>
<clipPath id="clip2_1987_54390">
<rect width="5.62" height="5.62" fill="white" transform="translate(24.3753 1.87521) scale(1.0009)"/>
</clipPath>
<clipPath id="clip3_1987_54390">
<rect width="5.62" height="5.62" fill="white" transform="translate(70.2729 2.11762) scale(1.0009)"/>
</clipPath>
<clipPath id="clip4_1987_54390">
<rect width="25.29" height="25.29" fill="white" transform="translate(145.314 3.74994) scale(1.0009)"/>
</clipPath>
</defs>
</svg>
