<svg width="20" height="20" viewBox="0 0 20 20" fill="none" xmlns="http://www.w3.org/2000/svg">
<g clip-path="url(#clip0_2180_59631)">
<path d="M7.50034 13.0093C7.49811 13.8647 7.69798 14.7086 8.08368 15.4722C8.54099 16.3872 9.24402 17.1569 10.114 17.6949C10.984 18.2329 11.9867 18.5181 13.0096 18.5185C13.8651 18.5207 14.709 18.3209 15.4726 17.9352L19.167 19.1667L17.9355 15.4722C18.3212 14.7086 18.5211 13.8647 18.5188 13.0093C18.5184 11.9863 18.2333 10.9837 17.6952 10.1137C17.1572 9.2437 16.3876 8.54066 15.4726 8.08335C14.709 7.69766 13.8651 7.49779 13.0096 7.50002H12.6855C11.3346 7.57455 10.0586 8.14477 9.10182 9.1015C8.1451 10.0582 7.57488 11.3342 7.50034 12.6852V13.0093Z" stroke="#EF555A" stroke-linecap="round" stroke-linejoin="round"/>
<path d="M12.4997 6.34325C12.5019 7.19872 12.302 8.04262 11.9163 8.80621C11.459 9.72123 10.756 10.4909 9.88597 11.0289C9.01596 11.5669 8.01334 11.8521 6.99041 11.8525C6.13494 11.8547 5.29104 11.6549 4.52745 11.2692L0.833008 12.5007L2.06449 8.80621C1.6788 8.04262 1.47892 7.19872 1.48115 6.34325C1.48155 5.32032 1.76674 4.3177 2.30477 3.44769C2.8428 2.57768 3.61243 1.87465 4.52745 1.41734C5.29104 1.03164 6.13494 0.831772 6.99041 0.834003H7.31448C8.66544 0.908534 9.94145 1.47875 10.8982 2.43548C11.8549 3.39221 12.4251 4.66822 12.4997 6.01918V6.34325Z" stroke="#EF555A" stroke-linecap="round" stroke-linejoin="round"/>
<path d="M7.28183 2.67188L3.57812 6.67187H6.91146L6.54109 9.33854L10.2448 5.33854H6.91146L7.28183 2.67188Z" stroke="#EF555A" stroke-linecap="round" stroke-linejoin="round"/>
<path d="M13.9488 10.1719L10.2451 14.1719H13.5785L13.2081 16.8385L16.9118 12.8385H13.5785L13.9488 10.1719Z" stroke="#EF555A" stroke-linecap="round" stroke-linejoin="round"/>
</g>
<defs>
<clipPath id="clip0_2180_59631">
<rect width="20" height="20" fill="white"/>
</clipPath>
</defs>
</svg>
