<svg width="24" height="24" viewBox="0 0 24 24" fill="none" xmlns="http://www.w3.org/2000/svg">
<path d="M8.22641 17.9978C8.22359 17.4364 8.09476 16.8828 7.84942 16.3779C7.60408 15.8729 7.2485 15.4295 6.80891 15.0803L10.2364 9.59782C10.8813 9.79763 11.5715 9.79763 12.2164 9.59782L15.6439 15.0803C14.9549 15.6368 14.485 16.4192 14.3176 17.2889C14.1502 18.1586 14.296 19.0595 14.7292 19.832C15.1624 20.6045 15.855 21.1987 16.6844 21.5094C17.5138 21.8201 18.4264 21.8272 19.2605 21.5295C20.0947 21.2318 20.7965 20.6485 21.2417 19.8828C21.687 19.1172 21.8468 18.2187 21.693 17.3465C21.5392 16.4743 21.0816 15.6846 20.4014 15.1175C19.7211 14.5503 18.8621 14.2422 17.9764 14.2478C17.641 14.2514 17.3078 14.3018 16.9864 14.3978L13.5589 8.91532C14.1682 8.4313 14.6119 7.76972 14.8284 7.02228C15.0449 6.27484 15.0235 5.47857 14.7671 4.74383C14.5108 4.00909 14.0323 3.37229 13.3979 2.92168C12.7635 2.47108 12.0046 2.229 11.2264 2.229C10.4482 2.229 9.68936 2.47108 9.05494 2.92168C8.42051 3.37229 7.94198 4.00909 7.68567 4.74383C7.42936 5.47857 7.40797 6.27484 7.62446 7.02228C7.84095 7.76972 8.2846 8.4313 8.89391 8.91532L5.46641 14.3978C5.14503 14.3018 4.81179 14.2514 4.47641 14.2478C3.73473 14.2478 3.0097 14.4678 2.39302 14.8798C1.77634 15.2919 1.29569 15.8775 1.01186 16.5628C0.728033 17.248 0.65377 18.002 0.798464 18.7294C0.943159 19.4568 1.30031 20.125 1.82476 20.6495C2.34921 21.1739 3.01739 21.5311 3.74482 21.6758C4.47225 21.8205 5.22625 21.7462 5.91147 21.4624C6.5967 21.1785 7.18237 20.6979 7.59442 20.0812C8.00648 19.4645 8.22641 18.7395 8.22641 17.9978ZM20.2264 17.9978C20.2264 18.4428 20.0944 18.8778 19.8472 19.2478C19.6 19.6179 19.2486 19.9062 18.8374 20.0765C18.4263 20.2468 17.9739 20.2914 17.5375 20.2046C17.101 20.1178 16.7001 19.9035 16.3854 19.5888C16.0708 19.2741 15.8565 18.8732 15.7696 18.4368C15.6828 18.0003 15.7274 17.5479 15.8977 17.1368C16.068 16.7256 16.3564 16.3742 16.7264 16.127C17.0964 15.8798 17.5314 15.7478 17.9764 15.7478C18.5731 15.7478 19.1454 15.9849 19.5674 16.4068C19.9894 16.8288 20.2264 17.4011 20.2264 17.9978ZM8.97641 5.99782C8.97641 5.55281 9.10837 5.1178 9.3556 4.74779C9.60284 4.37777 9.95424 4.08939 10.3654 3.91909C10.7765 3.74879 11.2289 3.70423 11.6654 3.79105C12.1018 3.87787 12.5027 4.09216 12.8174 4.40683C13.1321 4.7215 13.3464 5.12241 13.4332 5.55887C13.52 5.99532 13.4754 6.44772 13.3051 6.85886C13.1348 7.26999 12.8465 7.62139 12.4764 7.86862C12.1064 8.11586 11.6714 8.24782 11.2264 8.24782C10.6297 8.24782 10.0574 8.01077 9.63542 7.58881C9.21346 7.16685 8.97641 6.59456 8.97641 5.99782ZM2.22641 17.9978C2.22641 17.5528 2.35837 17.1178 2.6056 16.7478C2.85283 16.3778 3.20424 16.0894 3.61537 15.9191C4.0265 15.7488 4.47891 15.7042 4.91536 15.791C5.35182 15.8779 5.75273 16.0922 6.0674 16.4068C6.38207 16.7215 6.59636 17.1224 6.68318 17.5589C6.76999 17.9953 6.72544 18.4477 6.55514 18.8589C6.38484 19.27 6.09645 19.6214 5.72644 19.8686C5.35643 20.1159 4.92142 20.2478 4.47641 20.2478C3.87967 20.2478 3.30737 20.0108 2.88542 19.5888C2.46346 19.1669 2.22641 18.5946 2.22641 17.9978Z" fill="#8D879F"/>
</svg>
