<svg width="9" height="14" viewBox="0 0 9 14" fill="none" xmlns="http://www.w3.org/2000/svg">
<path d="M4.07422 0C4.53906 0 4.94922 0.410156 4.94922 0.875V1.85938C4.97656 1.85938 5.03125 1.88672 5.05859 1.88672C5.35938 1.91406 6.20703 2.07812 6.5625 2.16016C7.02734 2.26953 7.32812 2.76172 7.21875 3.22656C7.08203 3.69141 6.61719 3.96484 6.15234 3.85547C5.87891 3.77344 5.11328 3.66406 4.8125 3.60938C3.9375 3.47266 3.17188 3.55469 2.65234 3.74609C2.16016 3.9375 1.94141 4.21094 1.88672 4.51172C1.83203 4.8125 1.88672 4.97656 1.94141 5.08594C1.99609 5.19531 2.07812 5.30469 2.29688 5.44141C2.73438 5.74219 3.41797 5.93359 4.29297 6.17969H4.375C5.14062 6.39844 6.09766 6.67188 6.80859 7.13672C7.19141 7.38281 7.54688 7.73828 7.76562 8.20312C8.01172 8.69531 8.03906 9.24219 7.95703 9.81641C7.76562 10.8555 7.02734 11.5664 6.15234 11.9219C5.76953 12.0859 5.35938 12.168 4.94922 12.2227V13.125C4.94922 13.6172 4.53906 14 4.07422 14C3.58203 14 3.19922 13.6172 3.19922 13.125V12.1953C3.17188 12.1953 3.17188 12.168 3.14453 12.168C2.48828 12.0859 1.39453 11.7852 0.65625 11.457C0.191406 11.2656 0 10.7461 0.191406 10.3086C0.382812 9.87109 0.902344 9.65234 1.33984 9.87109C1.91406 10.1172 2.87109 10.3633 3.41797 10.4453C4.29297 10.582 5.00391 10.5 5.49609 10.3086C5.96094 10.1172 6.15234 9.84375 6.23438 9.51562C6.28906 9.21484 6.23438 9.05078 6.17969 8.94141C6.125 8.83203 6.04297 8.72266 5.82422 8.58594C5.38672 8.28516 4.70312 8.09375 3.82812 7.84766H3.74609C2.98047 7.62891 2.02344 7.35547 1.3125 6.89062C0.929688 6.64453 0.574219 6.28906 0.355469 5.82422C0.109375 5.33203 0.0820312 4.78516 0.164062 4.18359C0.382812 3.14453 1.14844 2.46094 2.02344 2.10547C2.37891 1.96875 2.78906 1.88672 3.19922 1.83203V0.875C3.19922 0.410156 3.58203 0 4.07422 0Z" fill="#AAA9AD"/>
</svg>
