<svg width="20" height="20" viewBox="0 0 20 20" fill="none" xmlns="http://www.w3.org/2000/svg">
<path d="M14.3751 12.5001C13.9072 12.5025 13.4459 12.6098 13.0251 12.8143C12.6043 13.0187 12.2348 13.3151 11.9438 13.6814L7.37505 10.8251C7.54156 10.2877 7.54156 9.71253 7.37505 9.17513L11.9438 6.31888C12.4075 6.89308 13.0595 7.28461 13.7843 7.42413C14.509 7.56365 15.2598 7.44215 15.9035 7.08114C16.5473 6.72014 17.0425 6.14294 17.3014 5.45178C17.5603 4.76063 17.5662 4.00014 17.3181 3.30502C17.0701 2.60991 16.5839 2.02504 15.9459 1.65402C15.3079 1.283 14.5591 1.14978 13.8323 1.27796C13.1054 1.40614 12.4474 1.78744 11.9748 2.35433C11.5021 2.92121 11.2454 3.63708 11.2501 4.37513C11.253 4.65461 11.2951 4.93231 11.3751 5.20013L6.8063 8.05638C6.40296 7.54862 5.85164 7.17891 5.22877 6.9985C4.60591 6.81809 3.94234 6.83592 3.33006 7.04951C2.71778 7.2631 2.18711 7.66188 1.81161 8.19057C1.43611 8.71925 1.23438 9.35166 1.23438 10.0001C1.23437 10.6486 1.43611 11.281 1.81161 11.8097C2.18711 12.3384 2.71778 12.7372 3.33006 12.9507C3.94234 13.1643 4.60591 13.1822 5.22877 13.0018C5.85164 12.8213 6.40296 12.4516 6.8063 11.9439L11.3751 14.8001C11.2951 15.0679 11.253 15.3456 11.2501 15.6251C11.2501 16.2432 11.4333 16.8474 11.7767 17.3613C12.1201 17.8752 12.6081 18.2757 13.1792 18.5123C13.7502 18.7488 14.3785 18.8107 14.9847 18.6901C15.5909 18.5695 16.1477 18.2719 16.5848 17.8348C17.0218 17.3978 17.3194 16.841 17.44 16.2348C17.5606 15.6286 17.4987 15.0003 17.2622 14.4292C17.0257 13.8582 16.6251 13.3702 16.1112 13.0268C15.5973 12.6834 14.9931 12.5001 14.3751 12.5001ZM14.3751 2.50013C14.7459 2.50013 15.1084 2.61009 15.4167 2.81612C15.7251 3.02215 15.9654 3.31498 16.1073 3.6576C16.2492 4.00021 16.2864 4.37721 16.214 4.74092C16.1417 5.10464 15.9631 5.43873 15.7009 5.70095C15.4387 5.96318 15.1046 6.14175 14.7408 6.2141C14.3771 6.28645 14.0001 6.24932 13.6575 6.1074C13.3149 5.96549 13.0221 5.72516 12.816 5.41682C12.61 5.10848 12.5001 4.74597 12.5001 4.37513C12.5001 3.87785 12.6976 3.40093 13.0492 3.0493C13.4009 2.69767 13.8778 2.50013 14.3751 2.50013ZM4.37505 11.8751C4.00421 11.8751 3.6417 11.7652 3.33336 11.5591C3.02502 11.3531 2.78469 11.0603 2.64278 10.7177C2.50087 10.375 2.46373 9.99805 2.53608 9.63433C2.60843 9.27062 2.78701 8.93653 3.04923 8.6743C3.31145 8.41208 3.64555 8.2335 4.00926 8.16116C4.37297 8.08881 4.74997 8.12594 5.09259 8.26785C5.4352 8.40977 5.72803 8.65009 5.93406 8.95843C6.14009 9.26678 6.25005 9.62929 6.25005 10.0001C6.25005 10.4974 6.05251 10.9743 5.70088 11.326C5.34925 11.6776 4.87233 11.8751 4.37505 11.8751ZM14.3751 17.5001C14.0042 17.5001 13.6417 17.3902 13.3334 17.1841C13.025 16.9781 12.7847 16.6853 12.6428 16.3427C12.5009 16 12.4637 15.623 12.5361 15.2593C12.6084 14.8956 12.787 14.5615 13.0492 14.2993C13.3115 14.0371 13.6455 13.8585 14.0093 13.7862C14.373 13.7138 14.75 13.7509 15.0926 13.8929C15.4352 14.0348 15.728 14.2751 15.9341 14.5834C16.1401 14.8918 16.2501 15.2543 16.2501 15.6251C16.2501 16.1224 16.0525 16.5993 15.7009 16.951C15.3492 17.3026 14.8723 17.5001 14.3751 17.5001Z" fill="#016DEA"/>
</svg>
