<svg width="16" height="16" viewBox="0 0 16 16" fill="none" xmlns="http://www.w3.org/2000/svg">
<g clip-path="url(#clip0_0_352)">
<path d="M15.9278 9.87522C15.7983 9.68523 15.5392 9.63621 15.3493 9.76575L10.8133 12.8584L9.80591 11.5101C9.70025 11.3692 9.51227 11.304 9.33592 11.3627C9.1154 11.4361 8.9961 11.6744 9.0695 11.8949L9.89398 14.3726C9.92514 14.4647 9.97596 14.5557 10.0449 14.6327C10.3177 14.9374 10.7859 14.9634 11.0907 14.6906L11.1445 14.6425L15.8616 10.42C16.015 10.2828 16.0469 10.0498 15.9278 9.87522Z" fill="#016DEA"/>
<path d="M8.32317 13.2024H0.830856V1.95195H11.8002V10.5944C11.8002 10.8238 11.9863 11.0099 12.2157 11.0099C12.445 11.0099 12.6311 10.8238 12.6311 10.5944V1.53652C12.6311 1.30714 12.445 1.12109 12.2157 1.12109H0.415428C0.186042 1.12109 0 1.30714 0 1.53652V13.6179C0 13.8472 0.186042 14.0333 0.415428 14.0333H8.32317C8.55255 14.0333 8.7386 13.8472 8.7386 13.6179C8.7386 13.3884 8.55255 13.2024 8.32317 13.2024Z" fill="#016DEA"/>
<path d="M9.67213 3.72949H2.95888C2.7295 3.72949 2.54346 3.91553 2.54346 4.14492C2.54346 4.37431 2.7295 4.56035 2.95888 4.56035H9.67213C9.90152 4.56035 10.0876 4.37431 10.0876 4.14492C10.0876 3.91553 9.90159 3.72949 9.67213 3.72949Z" fill="#016DEA"/>
<path d="M9.67213 5.52539H2.95888C2.7295 5.52539 2.54346 5.71143 2.54346 5.94082C2.54346 6.1702 2.7295 6.35625 2.95888 6.35625H9.67213C9.90152 6.35625 10.0876 6.1702 10.0876 5.94082C10.0876 5.71143 9.90159 5.52539 9.67213 5.52539Z" fill="#016DEA"/>
<path d="M9.67213 7.32031H2.95888C2.7295 7.32031 2.54346 7.50635 2.54346 7.73574C2.54346 7.96513 2.7295 8.15117 2.95888 8.15117H9.67213C9.90152 8.15117 10.0876 7.96513 10.0876 7.73574C10.0876 7.50635 9.90159 7.32031 9.67213 7.32031Z" fill="#016DEA"/>
<path d="M10.0876 9.53164C10.0876 9.30225 9.90152 9.11621 9.67213 9.11621H2.95888C2.7295 9.11621 2.54346 9.30225 2.54346 9.53164C2.54346 9.76102 2.7295 9.94707 2.95888 9.94707H9.67213C9.90159 9.94707 10.0876 9.76109 10.0876 9.53164Z" fill="#016DEA"/>
<path d="M2.95888 10.8242C2.7295 10.8242 2.54346 11.0103 2.54346 11.2396C2.54346 11.469 2.7295 11.6551 2.95888 11.6551H6.31547C6.54486 11.6551 6.7309 11.469 6.7309 11.2396C6.7309 11.0103 6.54486 10.8242 6.31547 10.8242H2.95888Z" fill="#016DEA"/>
</g>
<defs>
<clipPath id="clip0_0_352">
<rect width="16" height="16" fill="white"/>
</clipPath>
</defs>
</svg>
