<svg width="24" height="24" viewBox="0 0 24 24" fill="none" xmlns="http://www.w3.org/2000/svg">
<path d="M12.25 15.2188C13.0977 15.2188 13.7812 15.9297 13.7812 16.75C13.7812 17.5977 13.0977 18.2812 12.25 18.2812C11.4297 18.2812 10.7188 17.5977 10.7188 16.75C10.7188 15.9297 11.4297 15.2188 12.25 15.2188ZM12.25 10.8438C13.0977 10.8438 13.7812 11.5547 13.7812 12.375C13.7812 13.2227 13.0977 13.9062 12.25 13.9062C11.4297 13.9062 10.7188 13.2227 10.7188 12.375C10.7188 11.5547 11.4297 10.8438 12.25 10.8438ZM12.25 9.53125C11.4297 9.53125 10.7188 8.84766 10.7188 8C10.7188 7.17969 11.4297 6.46875 12.25 6.46875C13.0977 6.46875 13.7812 7.17969 13.7812 8C13.7812 8.84766 13.0977 9.53125 12.25 9.53125Z" fill="#8D879F"/>
</svg>
