<svg width="200" height="24" viewBox="0 0 200 24" fill="none" xmlns="http://www.w3.org/2000/svg">
<path d="M7 22H4C3.46957 22 2.96086 21.7893 2.58579 21.4142C2.21071 21.0391 2 20.5304 2 20V13C2 12.4696 2.21071 11.9609 2.58579 11.5858C2.96086 11.2107 3.46957 11 4 11H7M14 9V5C14 4.20435 13.6839 3.44129 13.1213 2.87868C12.5587 2.31607 11.7956 2 11 2L7 11V22H18.28C18.7623 22.0055 19.2304 21.8364 19.5979 21.524C19.9654 21.2116 20.2077 20.7769 20.28 20.3L21.66 11.3C21.7035 11.0134 21.6842 10.7207 21.6033 10.4423C21.5225 10.1638 21.3821 9.90629 21.1919 9.68751C21.0016 9.46873 20.7661 9.29393 20.5016 9.17522C20.2371 9.0565 19.9499 8.99672 19.66 9H14Z" stroke="#016DEA" stroke-width="1.5" stroke-linecap="round" stroke-linejoin="round"/>
<path d="M61 21V19C61 17.9391 60.5786 16.9217 59.8284 16.1716C59.0783 15.4214 58.0609 15 57 15H49C47.9391 15 46.9217 15.4214 46.1716 16.1716C45.4214 16.9217 45 17.9391 45 19V21" stroke="#016DEA" stroke-width="1.5" stroke-linecap="round" stroke-linejoin="round"/>
<path d="M53 11C55.2091 11 57 9.20914 57 7C57 4.79086 55.2091 3 53 3C50.7909 3 49 4.79086 49 7C49 9.20914 50.7909 11 53 11Z" stroke="#016DEA" stroke-width="1.5" stroke-linecap="round" stroke-linejoin="round"/>
<path d="M67 20.9999V18.9999C66.9993 18.1136 66.7044 17.2527 66.1614 16.5522C65.6184 15.8517 64.8581 15.3515 64 15.1299" stroke="#016DEA" stroke-width="1.5" stroke-linecap="round" stroke-linejoin="round"/>
<path d="M60 3.12988C60.8604 3.35018 61.623 3.85058 62.1676 4.55219C62.7122 5.2538 63.0078 6.11671 63.0078 7.00488C63.0078 7.89305 62.7122 8.75596 62.1676 9.45757C61.623 10.1592 60.8604 10.6596 60 10.8799" stroke="#016DEA" stroke-width="1.5" stroke-linecap="round" stroke-linejoin="round"/>
<path d="M105.25 15.0002C104.688 15.003 104.135 15.1318 103.63 15.3771C103.125 15.6225 102.681 15.9781 102.332 16.4177L96.8498 12.9902C97.0496 12.3453 97.0496 11.655 96.8498 11.0102L102.332 7.58265C102.889 8.27169 103.671 8.74154 104.541 8.90896C105.411 9.07638 106.311 8.93058 107.084 8.49737C107.856 8.06417 108.451 7.37152 108.761 6.54214C109.072 5.71276 109.079 4.80017 108.781 3.96603C108.484 3.13189 107.9 2.43005 107.135 1.98483C106.369 1.5396 105.471 1.37974 104.598 1.53356C103.726 1.68737 102.937 2.14493 102.369 2.82519C101.802 3.50545 101.494 4.3645 101.5 5.25015C101.503 5.58554 101.554 5.91877 101.65 6.24015L96.1673 9.66765C95.6833 9.05834 95.0217 8.61469 94.2742 8.3982C93.5268 8.18171 92.7305 8.2031 91.9958 8.45941C91.261 8.71572 90.6242 9.19426 90.1736 9.82868C89.723 10.4631 89.481 11.222 89.481 12.0002C89.481 12.7783 89.723 13.5372 90.1736 14.1716C90.6242 14.8061 91.261 15.2846 91.9958 15.5409C92.7305 15.7972 93.5268 15.8186 94.2742 15.6021C95.0217 15.3856 95.6833 14.942 96.1673 14.3327L101.65 17.7602C101.554 18.0815 101.503 18.4148 101.5 18.7502C101.5 19.4918 101.72 20.2169 102.132 20.8335C102.544 21.4502 103.129 21.9309 103.815 22.2147C104.5 22.4985 105.254 22.5728 105.981 22.4281C106.709 22.2834 107.377 21.9263 107.901 21.4018C108.426 20.8774 108.783 20.2092 108.928 19.4817C109.072 18.7543 108.998 18.0003 108.714 17.3151C108.43 16.6299 107.95 16.0442 107.333 15.6321C106.716 15.2201 105.991 15.0002 105.25 15.0002ZM105.25 3.00015C105.695 3.00015 106.13 3.13211 106.5 3.37935C106.87 3.62658 107.158 3.97798 107.328 4.38912C107.499 4.80025 107.543 5.25265 107.457 5.68911C107.37 6.12556 107.155 6.52648 106.841 6.84114C106.526 7.15581 106.125 7.3701 105.689 7.45692C105.252 7.54374 104.8 7.49918 104.389 7.32888C103.978 7.15859 103.626 6.8702 103.379 6.50019C103.132 6.13018 103 5.69516 103 5.25015C103 4.65342 103.237 4.08112 103.659 3.65916C104.081 3.23721 104.653 3.00015 105.25 3.00015ZM93.2498 14.2502C92.8048 14.2502 92.3697 14.1182 91.9997 13.871C91.6297 13.6237 91.3413 13.2723 91.171 12.8612C91.0007 12.4501 90.9562 11.9977 91.043 11.5612C91.1298 11.1247 91.3441 10.7238 91.6588 10.4092C91.9734 10.0945 92.3744 9.8802 92.8108 9.79339C93.2473 9.70657 93.6997 9.75113 94.1108 9.92142C94.5219 10.0917 94.8733 10.3801 95.1206 10.7501C95.3678 11.1201 95.4998 11.5551 95.4998 12.0002C95.4998 12.5969 95.2627 13.1692 94.8408 13.5911C94.4188 14.0131 93.8465 14.2502 93.2498 14.2502ZM105.25 21.0002C104.805 21.0002 104.37 20.8682 104 20.621C103.63 20.3737 103.341 20.0223 103.171 19.6112C103.001 19.2001 102.956 18.7477 103.043 18.3112C103.13 17.8747 103.344 17.4738 103.659 17.1592C103.973 16.8445 104.374 16.6302 104.811 16.5434C105.247 16.4566 105.7 16.5011 106.111 16.6714C106.522 16.8417 106.873 17.1301 107.121 17.5001C107.368 17.8701 107.5 18.3051 107.5 18.7502C107.5 19.3469 107.263 19.9192 106.841 20.3411C106.419 20.7631 105.847 21.0002 105.25 21.0002Z" fill="#016DEA"/>
<path d="M136 15C136 15 137 14 140 14C143 14 145 16 148 16C151 16 152 15 152 15V3C152 3 151 4 148 4C145 4 143 2 140 2C137 2 136 3 136 3V15Z" stroke="#016DEA" stroke-width="2" stroke-linecap="round" stroke-linejoin="round"/>
<path d="M136 22V15" stroke="#016DEA" stroke-width="2" stroke-linecap="round" stroke-linejoin="round"/>
<path d="M188 22C193.523 22 198 17.5228 198 12C198 6.47715 193.523 2 188 2C182.477 2 178 6.47715 178 12C178 17.5228 182.477 22 188 22Z" stroke="#016DEA" stroke-width="2" stroke-linecap="round" stroke-linejoin="round"/>
<path d="M180.93 4.93018L195.07 19.0702" stroke="#016DEA" stroke-width="2" stroke-linecap="round" stroke-linejoin="round"/>
</svg>
