<svg width="13" height="15" viewBox="0 0 13 15" fill="none" xmlns="http://www.w3.org/2000/svg">
<path d="M10.5801 2.41991C9.87662 1.74459 8.77922 1.74459 8.07576 2.41991L2.89827 7.5974C1.71645 8.77922 1.71645 10.7208 2.89827 11.9026C4.08009 13.0844 6.02165 13.0844 7.20346 11.9026L11.4805 7.62554C11.79 7.31602 12.2684 7.31602 12.5779 7.62554C12.8874 7.93506 12.8874 8.41342 12.5779 8.72294L8.30087 13C6.5 14.8009 3.60173 14.8009 1.80087 13C0 11.1991 0 8.30087 1.80087 6.5L6.97835 1.32251C8.27273 0 10.3831 0 11.6775 1.32251C13 2.61688 13 4.72727 11.6775 6.02165L6.72511 10.974C5.93723 11.79 4.61472 11.79 3.82684 10.974C3.01082 10.1861 3.01082 8.86364 3.82684 8.07576L7.87879 4.02381C8.18831 3.71429 8.66667 3.71429 8.97619 4.02381C9.28571 4.33333 9.28571 4.81169 8.97619 5.12121L4.92424 9.17316C4.75541 9.37013 4.75541 9.67965 4.92424 9.87662C5.12121 10.0455 5.43074 10.0455 5.62771 9.87662L10.5801 4.92424C11.2554 4.22078 11.2554 3.12338 10.5801 2.41991Z" fill="#8D879F"/>
</svg>
