<svg width="24" height="24" viewBox="0 0 24 24" fill="none" xmlns="http://www.w3.org/2000/svg">
<path d="M4.99382 5.875H4.86882V6V8V8.125H4.99382H6.99155H7.11655V8V6V5.875H6.99155H4.99382ZM4.99382 15.875H4.86882V16V18V18.125H4.99382H6.99155H7.11655V18V16V15.875H6.99155H4.99382ZM11.112 4.125H20.8507V5.875H11.112V4.125ZM11.112 8.125H16.8552V9.875H11.112V8.125ZM11.112 14.125H20.8507V15.875H11.112V14.125ZM11.112 18.125H16.8552V19.875H11.112V18.125ZM3.12109 4.125H8.86428V9.875H3.12109V4.125ZM3.12109 14.125H8.86428V19.875H3.12109V14.125Z" fill="#016DEA" stroke="white" stroke-width="0.25"/>
</svg>
