<svg width="25" height="25" viewBox="0 0 25 25" fill="none" xmlns="http://www.w3.org/2000/svg">
<path d="M9.76096 4.06007C7.58596 4.80507 5.73096 6.43507 4.70096 8.49007C4.34096 9.20007 4.08096 9.95507 3.92596 10.7351C3.53096 12.6751 3.80596 14.7401 4.70096 16.5101C5.28096 17.6651 6.11596 18.6901 7.12596 19.4901C8.08096 20.2501 9.19096 20.8101 10.371 21.1251C11.856 21.5251 13.441 21.5151 14.941 21.1751C16.296 20.8651 17.576 20.2151 18.596 19.2751C19.676 18.2801 20.446 16.9751 20.856 15.5701C21.301 14.0351 21.361 12.4001 21.081 10.8301C18.281 10.8301 15.481 10.8301 12.676 10.8301C12.676 11.9901 12.676 13.1551 12.676 14.3151C14.296 14.3151 15.921 14.3151 17.541 14.3151C17.351 15.4301 16.691 16.4451 15.751 17.0751C15.161 17.4701 14.486 17.7301 13.786 17.8501C13.081 17.9701 12.356 17.9851 11.656 17.8451C10.941 17.7051 10.261 17.4051 9.66596 16.9851C8.71596 16.3201 7.99096 15.3401 7.62096 14.2451C7.24096 13.1301 7.23596 11.8851 7.62096 10.7701C7.88596 9.98507 8.33096 9.25507 8.91596 8.66507C9.63596 7.92507 10.571 7.40007 11.581 7.18507C12.446 7.00007 13.356 7.03507 14.201 7.29007C14.921 7.51007 15.581 7.90007 16.126 8.42007C16.676 7.87507 17.221 7.32507 17.771 6.78007C18.056 6.48507 18.361 6.20507 18.641 5.90007C17.811 5.13007 16.831 4.51007 15.766 4.12007C13.856 3.40507 11.691 3.39007 9.76096 4.06007Z" fill="white"/>
<path d="M9.76203 4.05967C11.692 3.38967 13.857 3.40467 15.777 4.11467C16.842 4.50467 17.817 5.12467 18.652 5.89467C18.372 6.19467 18.072 6.47967 17.782 6.77467C17.232 7.31967 16.687 7.86967 16.137 8.41467C15.592 7.89467 14.932 7.49967 14.212 7.28467C13.367 7.02967 12.457 6.99467 11.592 7.17967C10.582 7.39467 9.64703 7.92467 8.92703 8.65967C8.34203 9.24967 7.89703 9.97967 7.63203 10.7647C6.65703 10.0097 5.68203 9.24967 4.70703 8.49467C5.73203 6.43467 7.58703 4.80467 9.76203 4.05967Z" fill="#E94435"/>
<path d="M3.92596 10.7343C4.08096 9.95426 4.34596 9.19926 4.70096 8.48926C5.67596 9.24426 6.65096 10.0043 7.62596 10.7593C7.24096 11.8743 7.24596 13.1193 7.62596 14.2343C6.65096 14.9893 5.67596 15.7493 4.70096 16.5043C3.80596 14.7443 3.53096 12.6743 3.92596 10.7343Z" fill="#F8BB15"/>
<path d="M12.6805 10.8242C15.4805 10.8242 18.2805 10.8242 21.0855 10.8242C21.3655 12.3942 21.3055 14.0292 20.8605 15.5642C20.4505 16.9692 19.6805 18.2792 18.6005 19.2692C17.6555 18.5342 16.7055 17.7992 15.7655 17.0642C16.7055 16.4392 17.3655 15.4192 17.5555 14.3042C15.9355 14.3042 14.3105 14.3042 12.6905 14.3042C12.6755 13.1492 12.6805 11.9892 12.6805 10.8242Z" fill="#547DBE"/>
<path d="M4.69922 16.5093C5.67422 15.7543 6.64922 14.9943 7.62422 14.2393C7.99422 15.3393 8.71922 16.3143 9.66922 16.9793C10.2642 17.3993 10.9442 17.6943 11.6592 17.8393C12.3592 17.9793 13.0892 17.9643 13.7892 17.8443C14.4892 17.7243 15.1642 17.4643 15.7542 17.0693C16.6992 17.8043 17.6492 18.5393 18.5892 19.2743C17.5692 20.2193 16.2892 20.8643 14.9342 21.1743C13.4392 21.5143 11.8542 21.5243 10.3642 21.1243C9.18422 20.8093 8.07422 20.2493 7.11922 19.4893C6.11422 18.6843 5.27922 17.6593 4.69922 16.5093Z" fill="#34A751"/>
</svg>
