<svg width="24" height="24" viewBox="0 0 24 24" fill="none" xmlns="http://www.w3.org/2000/svg">
<g clip-path="url(#clip0_804_12010)">
<path d="M19.125 3.04666C16.7391 3.7076 13.0641 4.63103 11.2407 5.03885C8.80315 5.57791 6.71253 5.80291 2.62503 5.95291C1.88909 5.98104 1.20472 6.02791 1.10159 6.05135C0.825029 6.12635 0.492216 6.35604 0.309404 6.59978C-0.00934607 7.03572 2.89352e-05 6.94666 2.89352e-05 10.2185C2.89352e-05 13.4904 -0.00934607 13.4013 0.309404 13.8373C0.492216 14.081 0.825029 14.3154 1.10159 14.381C1.20472 14.4092 1.59378 14.442 1.96878 14.4607L2.64847 14.4935L4.02659 17.1185C4.78597 18.5623 5.4844 19.8607 5.57815 20.0107C6.44065 21.3467 8.46097 21.5342 9.6094 20.3904C10.1203 19.8795 10.4016 19.2045 10.4063 18.4873C10.4063 17.9435 10.2703 17.5732 9.56253 16.2326C9.20159 15.5482 8.91096 14.9763 8.92034 14.9717C8.95315 14.9388 10.3219 15.1967 11.461 15.4498C12.8485 15.7592 15.7969 16.4951 18.1875 17.1326C19.7625 17.5545 19.9219 17.5873 20.2313 17.5685C20.7797 17.531 21.2157 17.2263 21.4782 16.692C21.5813 16.4857 21.586 16.4107 21.6 15.2529L21.6141 14.0248L21.9235 13.8467C22.6453 13.4201 23.2078 12.8201 23.5782 12.0701C23.8922 11.4326 24 10.9638 24 10.2185C24 9.47322 23.8922 8.99979 23.5782 8.36697C23.2078 7.61228 22.6782 7.0451 21.9422 6.60916L21.6141 6.41228L21.6 5.18885C21.586 4.02635 21.5813 3.95135 21.4782 3.7451C21.3235 3.43103 21.0891 3.17791 20.8078 3.02322C20.6016 2.91072 20.4891 2.88729 20.1797 2.87322C19.861 2.86385 19.7016 2.88729 19.125 3.04666ZM20.4141 3.84353C20.7328 4.04041 20.7094 3.62322 20.7282 10.1951C20.7422 15.9185 20.7375 16.1529 20.6532 16.3217C20.55 16.5326 20.3203 16.6873 20.1141 16.6873C20.0297 16.6873 19.7813 16.6357 19.5563 16.5748C17.6344 16.0357 13.3172 14.9435 11.7657 14.6013C11.3391 14.5076 10.9547 14.4232 10.9125 14.4092C10.8328 14.3857 10.8282 14.1467 10.8282 10.2185C10.8282 6.29041 10.8328 6.05135 10.9125 6.02791C10.9547 6.01385 11.3391 5.92947 11.7657 5.83572C13.336 5.48885 18.2063 4.25603 19.5938 3.84822C20.0016 3.73104 20.2266 3.72635 20.4141 3.84353ZM9.93753 10.2185C9.93753 12.7826 9.92346 14.2029 9.89065 14.2029C9.86721 14.2029 9.58597 14.1607 9.2719 14.1092C8.06721 13.917 5.80315 13.7248 3.63284 13.6404C1.48597 13.5513 1.2844 13.5326 1.14378 13.4013C0.862529 13.1388 0.871904 13.2607 0.871904 10.2185C0.867216 7.16228 0.853154 7.30291 1.14378 7.03572C1.2844 6.90447 1.48128 6.88572 3.65628 6.79666C5.81722 6.7076 8.11878 6.51541 9.21097 6.3326C9.4969 6.28572 9.77346 6.24354 9.8344 6.23885L9.93753 6.23416V10.2185ZM21.9985 7.7576C22.6875 8.32479 23.1094 9.2576 23.1094 10.2185C23.1094 11.3295 22.6688 12.1685 21.6938 12.9326C21.6141 12.9935 21.6094 12.8576 21.6094 10.2185C21.6094 7.57947 21.6141 7.44353 21.6938 7.50447C21.736 7.54197 21.8766 7.65447 21.9985 7.7576ZM5.13284 14.6013C6.15003 14.667 7.79534 14.8029 7.8094 14.8263C7.8094 14.831 8.16096 15.506 8.59222 16.3217C9.01878 17.142 9.40784 17.9295 9.45003 18.0795C9.67034 18.8342 9.24378 19.7248 8.48909 20.0998C8.25471 20.2123 8.17503 20.2263 7.75784 20.2263C7.33597 20.2263 7.26097 20.2123 7.01722 20.0951C6.48284 19.8279 6.42659 19.7435 5.01565 17.0623C4.30784 15.717 3.7219 14.592 3.71253 14.5732C3.68909 14.517 3.82503 14.5217 5.13284 14.6013Z" fill="#8D879F"/>
</g>
<defs>
<clipPath id="clip0_804_12010">
<rect width="24" height="24" fill="white"/>
</clipPath>
</defs>
</svg>
