<svg width="16" height="16" viewBox="0 0 16 16" fill="none" xmlns="http://www.w3.org/2000/svg">
<path d="M12.6667 2.00006H3.33333C2.59695 2.00006 2 2.59701 2 3.33339V12.6667C2 13.4031 2.59695 14.0001 3.33333 14.0001H12.6667C13.403 14.0001 14 13.4031 14 12.6667V3.33339C14 2.59701 13.403 2.00006 12.6667 2.00006Z" stroke="#8C8C8C" stroke-width="1.33333" stroke-linecap="round" stroke-linejoin="round"/>
<path d="M5.66699 6.66675C6.21928 6.66675 6.66699 6.21903 6.66699 5.66675C6.66699 5.11446 6.21928 4.66675 5.66699 4.66675C5.11471 4.66675 4.66699 5.11446 4.66699 5.66675C4.66699 6.21903 5.11471 6.66675 5.66699 6.66675Z" stroke="#8C8C8C" stroke-width="1.33333" stroke-linecap="round" stroke-linejoin="round"/>
<path d="M13.9997 10L10.6663 6.66669L3.33301 14" stroke="#8C8C8C" stroke-width="1.33333" stroke-linecap="round" stroke-linejoin="round"/>
</svg>
