<svg width="16" height="16" viewBox="0 0 16 16" fill="none" xmlns="http://www.w3.org/2000/svg">
<path d="M14.6283 9.6L13.1426 6.97143V6.05714C13.2568 2.74286 10.514 0 7.19969 0C3.88541 0 1.25684 2.74286 1.25684 6.05714C1.25684 7.65714 1.82826 9.02857 2.85684 10.0571V15.2C2.85684 15.6571 3.19969 16 3.65684 16H9.71398C10.1711 16 10.514 15.6571 10.514 15.2V14.0571H12.4568C12.914 14.0571 13.2568 13.7143 13.2568 13.2571V10.2857H14.2854C14.7426 10.2857 14.8568 9.94286 14.6283 9.6ZM9.94255 6.05714V6.51429L10.7425 6.97143C10.514 7.54286 10.2854 8 9.82827 8.45714L9.02826 8C8.79969 8.22857 8.45684 8.34286 8.11398 8.45714V9.37143C7.88541 9.48571 7.54255 9.48571 7.19969 9.48571C6.85684 9.48571 6.62826 9.48571 6.28541 9.37143V8.45714C6.05684 8.34286 5.71398 8.22857 5.48541 8L4.68541 8.45714C4.22826 8 3.88541 7.54286 3.77112 6.97143L4.57112 6.51429V5.48571L3.77112 5.02857C3.88541 4.45714 4.22826 3.88571 4.68541 3.54286L5.48541 4C5.71398 3.77143 6.05684 3.65714 6.28541 3.54286V2.62857C6.62826 2.51429 6.85684 2.51429 7.19969 2.51429C7.54255 2.51429 7.77112 2.51429 8.11398 2.62857V3.54286C8.45684 3.65714 8.68541 3.77143 9.02826 4L9.82827 3.54286C10.2854 4 10.514 4.45714 10.7425 5.02857L9.94255 5.48571V6.05714Z" fill="#016DEA"/>
<path d="M7.20045 7.08644C7.76851 7.08644 8.22902 6.62593 8.22902 6.05787C8.22902 5.4898 7.76851 5.0293 7.20045 5.0293C6.63238 5.0293 6.17188 5.4898 6.17188 6.05787C6.17188 6.62593 6.63238 7.08644 7.20045 7.08644Z" fill="#016DEA"/>
</svg>
