<svg width="146" height="146" viewBox="0 0 146 146" fill="none" xmlns="http://www.w3.org/2000/svg">
<path d="M71.0438 0.192652C72.3353 -0.0642329 73.6647 -0.0642326 74.9562 0.192653L99.0549 4.98619C100.346 5.24307 101.575 5.75181 102.669 6.48336L123.099 20.1342C124.194 20.8657 125.134 21.8058 125.866 22.9006L139.517 43.3305C140.248 44.4254 140.757 45.6536 141.014 46.945L145.807 71.0437C146.064 72.3352 146.064 73.6646 145.807 74.956L141.014 99.0547C140.757 100.346 140.248 101.574 139.517 102.669L125.866 123.099C125.134 124.194 124.194 125.134 123.099 125.866L102.669 139.516C101.575 140.248 100.346 140.757 99.0549 141.014L74.9562 145.807C73.6647 146.064 72.3353 146.064 71.0438 145.807L46.9451 141.014C45.6537 140.757 44.4255 140.248 43.3306 139.516L22.9007 125.866C21.8059 125.134 20.8659 124.194 20.1343 123.099L6.48348 102.669C5.75193 101.574 5.24319 100.346 4.98631 99.0547L0.192775 74.956C-0.0641105 73.6646 -0.0641102 72.3352 0.192775 71.0437L4.98631 46.945C5.24319 45.6536 5.75193 44.4253 6.48348 43.3305L20.1343 22.9006C20.8659 21.8058 21.8059 20.8657 22.9007 20.1342L43.3306 6.48336C44.4255 5.75181 45.6537 5.24307 46.9451 4.98619L71.0438 0.192652Z" fill="#6800BC"/>
</svg>
