<svg width="16" height="16" viewBox="0 0 16 16" fill="none" xmlns="http://www.w3.org/2000/svg">
<g clip-path="url(#clip0_0_1137)">
<path d="M12.5939 0.5V1L13.1282 1.00625L13.6626 1.01562L12.6189 2.00313L11.5782 2.99062L11.3439 2.7875C10.8595 2.375 10.3314 2.0875 9.7345 1.9125C9.27199 1.77812 8.922 1.7375 8.38137 1.75937C7.53762 1.79375 6.80325 2.04375 6.12824 2.525C5.68762 2.84062 5.19699 3.36562 4.96887 3.76875L4.89387 3.89687L4.53449 3.91875C3.87199 3.95625 3.26887 4.11875 2.75324 4.39062C0.715745 5.47812 -0.0842552 7.95312 0.94387 10.0156C1.54699 11.225 2.70012 12.0687 4.07199 12.2969L4.18762 12.3156V12.9531V13.5938H3.46887H2.75012V14.0938V14.5938H3.46887H4.18762V15.2969V16H4.70324H5.21887V15.2969V14.5938H5.98449H6.75012V14.0938V13.5938H5.98449H5.21887V12.9531C5.21887 12.6 5.22199 12.3125 5.22824 12.3125C5.29387 12.3125 5.66887 12.2281 5.89074 12.1656C6.85637 11.8875 7.69699 11.2562 8.25637 10.3937L8.397 10.1781L8.70637 10.1656C9.58762 10.1312 10.397 9.84687 11.0939 9.325C12.2126 8.4875 12.8251 7.2 12.7689 5.79688C12.7439 5.14375 12.6189 4.64375 12.3407 4.08125C12.2751 3.94687 12.2189 3.825 12.2189 3.8125C12.2189 3.8 12.7314 3.3 13.3595 2.70625L14.5001 1.62187V2.21562V2.8125H15.0001H15.5001V1.40625V0H14.047H12.5939V0.5ZM9.05949 2.79688C9.57512 2.88125 9.98137 3.04688 10.4064 3.34688C11.0407 3.79375 11.472 4.43125 11.6782 5.21562C11.7782 5.59375 11.7907 6.21875 11.7064 6.60312C11.4251 7.89687 10.4001 8.88125 9.097 9.10938C8.95325 9.13438 8.82825 9.15 8.81887 9.14375C8.81262 9.13438 8.82825 9 8.85637 8.84687C8.92512 8.475 8.92512 7.81563 8.8595 7.41562C8.63449 6.1 7.79699 4.96562 6.60012 4.3625C6.47512 4.3 6.29387 4.21875 6.19387 4.18437C6.09699 4.14687 6.00637 4.10938 5.99387 4.09688C5.97824 4.08437 6.06262 3.97188 6.18137 3.84375C6.94387 3.00937 7.99699 2.625 9.05949 2.79688ZM4.45949 5.00625C4.35324 5.43437 4.33449 6.20937 4.41887 6.6875C4.65637 8.02187 5.51574 9.15937 6.73762 9.75312C6.87512 9.81875 7.06262 9.9 7.15324 9.93125L7.31574 9.98438L7.14387 10.1937C6.50012 10.975 5.42825 11.4094 4.39387 11.3063C3.16262 11.1875 2.07199 10.325 1.67512 9.15312C1.05949 7.33437 2.20012 5.3625 4.09387 4.98438C4.20637 4.9625 4.33762 4.94063 4.38762 4.94063C4.46262 4.9375 4.47199 4.94687 4.45949 5.00625ZM5.81887 5.12813C7.12824 5.6375 7.95637 6.88125 7.897 8.25C7.88449 8.55625 7.80325 9.0625 7.76574 9.0625C7.72824 9.0625 7.272 8.88438 7.14074 8.82188C6.35012 8.42812 5.72199 7.6625 5.48137 6.79688C5.34699 6.31875 5.34387 5.6375 5.47199 5.14687C5.50637 5.01562 5.52512 5.01562 5.81887 5.12813Z" fill="#016DEA"/>
</g>
<defs>
<clipPath id="clip0_0_1137">
<rect width="16" height="16" fill="white"/>
</clipPath>
</defs>
</svg>
