<svg width="101" height="111" viewBox="0 0 101 111" fill="none" xmlns="http://www.w3.org/2000/svg">
<path d="M23.7685 70.4462C25.7483 68.0868 29.5397 68.7553 30.593 71.6495L42.74 105.023C43.7933 107.917 41.3187 110.866 38.2856 110.331L3.30994 104.164C0.276818 103.629 -1.03993 100.012 0.939801 97.6524L23.7685 70.4462Z" fill="#FFC700"/>
<path d="M24.7688 12.4329C26.7485 10.0735 30.5399 10.742 31.5933 13.6362L43.7402 47.0096C44.7936 49.9037 42.3189 52.8529 39.2858 52.3181L4.31017 46.1509C1.27705 45.6161 -0.0396971 41.9984 1.94003 39.6391L24.7688 12.4329Z" fill="#FFC700"/>
<path d="M81.7818 1.43032C83.7616 -0.929023 87.553 -0.260502 88.6064 2.63367L100.753 36.007C101.807 38.9012 99.332 41.8504 96.2989 41.3156L61.3233 35.1484C58.2901 34.6136 56.9734 30.9959 58.9531 28.6365L81.7818 1.43032Z" fill="#FFC700"/>
</svg>
