<svg width="20" height="20" viewBox="0 0 20 20" fill="none" xmlns="http://www.w3.org/2000/svg">
<g clip-path="url(#clip0_0_9)">
<path d="M9.7168 0.253906C9.55273 0.417969 9.55273 0.675781 9.7168 0.835938C9.79492 0.917969 9.85742 0.9375 10.002 0.9375C10.2832 0.9375 10.4551 0.730469 10.4004 0.449219C10.3926 0.398438 10.3379 0.308594 10.2871 0.253906C10.1465 0.113281 9.85742 0.113281 9.7168 0.253906Z" fill="white"/>
<path d="M4.91797 1.36328C4.82422 1.45703 4.80469 1.51172 4.80469 1.66797V1.85547L6.24219 3.28906L7.67578 4.72656H7.87891C8.05469 4.72656 8.08984 4.71094 8.17969 4.60547C8.25391 4.51953 8.28125 4.44141 8.28125 4.32422C8.28125 4.16406 8.27344 4.15234 6.82422 2.70703L5.37109 1.25H5.20312C5.06641 1.25 5.00781 1.27344 4.91797 1.36328Z" fill="white"/>
<path d="M13.1758 2.70703C11.7266 4.15234 11.7188 4.16406 11.7188 4.32422C11.7188 4.44141 11.7461 4.51953 11.8203 4.60547C11.9102 4.71094 11.9453 4.72656 12.1211 4.72656H12.3242L13.7578 3.28906L15.1953 1.85547V1.66797C15.1953 1.51172 15.1758 1.45703 15.082 1.36328C14.9922 1.27344 14.9336 1.25 14.7969 1.25H14.6289L13.1758 2.70703Z" fill="white"/>
<path d="M9.71875 1.83203L9.58984 1.94531L9.57812 3.07422C9.57031 3.69141 9.57422 4.27344 9.58984 4.36328C9.625 4.60156 9.76562 4.72656 10 4.72656C10.2344 4.72656 10.375 4.60156 10.4102 4.36328C10.4258 4.27344 10.4297 3.69141 10.4219 3.07422L10.4102 1.94531L10.2812 1.83203C10.1875 1.74609 10.1172 1.71875 10 1.71875C9.88281 1.71875 9.8125 1.74609 9.71875 1.83203Z" fill="white"/>
<path d="M3.84375 4.09371C3.80078 4.12887 3.10547 4.97652 2.29688 5.97652C1.49219 6.97652 0.648439 8.0273 0.41797 8.30855C0.0273452 8.79683 1.41709e-06 8.8398 1.41709e-06 9.00387C1.41709e-06 9.22652 -0.00781107 9.21871 1.13672 10.2031L2.0625 10.9961L2.92188 12.1523L3.78125 13.3086L3.66797 13.4726C3.48828 13.7421 3.42578 13.9882 3.44531 14.3515C3.46485 14.7382 3.5586 14.9648 3.8125 15.2343C3.99219 15.4257 4.27735 15.5898 4.51563 15.6406C4.63672 15.6679 4.63672 15.6718 4.66016 15.9414C4.71485 16.6093 5.22656 17.164 5.86328 17.25L6.04688 17.2734L6.07031 17.4765C6.15235 18.1211 6.69531 18.6211 7.36719 18.664L7.64844 18.6836L7.69531 18.8632C7.79297 19.2539 8.07813 19.5898 8.47656 19.7773C8.69531 19.8828 8.76953 19.8984 9.04297 19.8945C9.46094 19.8945 9.73438 19.7851 10.0313 19.5117L10.2539 19.3046L10.4063 19.4375C10.6367 19.6367 10.9375 19.7382 11.3086 19.7382C11.582 19.7421 11.6563 19.7265 11.875 19.6211C12.3164 19.414 12.6289 19.0039 12.6836 18.5664L12.707 18.3671L12.9414 18.3203C13.5586 18.1992 14.0195 17.7304 14.0898 17.1601L14.1133 16.9609L14.3359 16.9218C14.9414 16.8125 15.4258 16.3242 15.4961 15.75C15.5078 15.6367 15.5234 15.5468 15.5273 15.5468C15.5313 15.5468 15.6367 15.5273 15.7617 15.5039C16.2188 15.4179 16.582 15.1445 16.7852 14.7343C16.8828 14.5351 16.8945 14.4687 16.8945 14.1211C16.8945 13.7929 16.8789 13.7031 16.8047 13.5468L16.7148 13.3671L17.3438 12.0429L17.9727 10.7226L18.9336 9.9023C19.457 9.44918 19.9141 9.04683 19.9453 9.00387C19.9766 8.9609 20 8.85543 20 8.76168C20 8.62496 19.9688 8.55465 19.7969 8.33199C18.375 6.46871 16.5742 4.14449 16.5078 4.09371C16.4609 4.05465 16.3594 4.0234 16.2656 4.0234C16.125 4.0234 15.9766 4.10933 15.0039 4.72652L13.8984 5.42965H12.4844H11.0742L9.92188 5.75777L8.77344 6.0898L7.64453 5.7773L6.51953 5.46871L5.38281 4.74605C4.37891 4.10543 4.22656 4.0234 4.08594 4.0234C3.99219 4.0234 3.89063 4.05465 3.84375 4.09371ZM4.91797 5.43746C5.29688 5.67574 5.62891 5.89449 5.66016 5.92183C5.70313 5.9609 5.42188 6.32418 4.02735 8.0234C3.09766 9.1523 2.32422 10.0781 2.3086 10.0781C2.26953 10.0781 0.996095 8.98433 0.996095 8.94918C0.996095 8.90621 4.16016 4.99996 4.19531 4.99996C4.21485 4.99996 4.53906 5.19527 4.91797 5.43746ZM17.5977 6.8359C18.3711 7.84371 19.0039 8.68746 19.0039 8.70308C19.0039 8.74996 17.7227 9.84762 17.6875 9.83199C17.6719 9.82808 16.9766 8.95308 16.1406 7.89058L14.6172 5.95699L14.8789 5.79293C15.0195 5.70308 15.3555 5.48824 15.625 5.31637C15.8945 5.14449 16.1328 5.00387 16.1523 5.00387C16.1758 5.00387 16.8242 5.82808 17.5977 6.8359ZM15.4336 8.34762C16.3398 9.50387 17.0977 10.4687 17.1133 10.4882C17.1289 10.5117 16.9141 11.0039 16.6367 11.582C16.3633 12.164 16.1289 12.6523 16.1172 12.6757C16.1094 12.6953 15.1016 11.7187 13.8828 10.5C12.1602 8.78121 11.6328 8.2773 11.543 8.26168C11.4805 8.24996 10.9375 8.20699 10.3398 8.16402C9.35547 8.09371 9.23828 8.0898 9.125 8.14449C9.01953 8.19527 8.90625 8.37105 8.42188 9.23043C8.10156 9.79293 7.79688 10.3007 7.74219 10.3593C7.53516 10.582 7.21094 10.5937 6.97266 10.3867C6.82031 10.25 6.73828 10.0468 6.77344 9.87105C6.78906 9.80074 7.13672 9.1484 7.55469 8.41793L8.30859 7.0898L9.73047 6.67183L11.1523 6.25777L12.4688 6.25387L13.7852 6.24996L15.4336 8.34762ZM7.10156 6.48433C7.36328 6.55465 7.57813 6.62887 7.57813 6.6484C7.57813 6.67183 7.23828 7.28512 6.82422 8.01949C6.40625 8.75387 6.04297 9.41793 6.01172 9.49215C5.98047 9.57418 5.95703 9.76558 5.95703 9.98043C5.95703 10.2851 5.97266 10.3593 6.06641 10.5546C6.45703 11.3476 7.42188 11.6054 8.14844 11.1093C8.40234 10.9375 8.47656 10.8281 9.05859 9.79293C9.49609 9.0234 9.54688 8.94527 9.64453 8.94527C9.69922 8.94527 10.0898 8.97262 10.5078 9.00387L11.2695 9.06246L13.625 11.414C14.9766 12.7656 16.0078 13.8242 16.0391 13.8945C16.1523 14.1562 16.0703 14.4336 15.8164 14.6171C15.6797 14.7226 15.3906 14.7187 15.2227 14.6132C15.1523 14.5703 14.5234 13.9531 13.832 13.2421C13.1367 12.5312 12.5195 11.9218 12.457 11.8945C12.1406 11.7265 11.8125 11.9843 11.8672 12.3515C11.8789 12.4375 12.2148 12.8007 13.2461 13.8437C13.9961 14.6015 14.625 15.2695 14.6484 15.3281C14.7422 15.582 14.6641 15.8203 14.4297 16C14.2539 16.1367 14.0156 16.1445 13.8164 16.0195C13.7383 15.9726 13.3008 15.5468 12.8438 15.0703C12.3867 14.5976 11.9648 14.1875 11.9063 14.1562C11.7227 14.0625 11.5703 14.0859 11.4219 14.2343C11.2695 14.3867 11.2461 14.5664 11.3516 14.7265C11.3867 14.7812 11.8164 15.2265 12.3086 15.7226C12.7969 16.2148 13.2188 16.6718 13.2422 16.7304C13.4063 17.1757 13.0039 17.6171 12.5469 17.4921C12.4375 17.4609 12.2539 17.3086 11.8125 16.8711C11.3008 16.3671 11.207 16.289 11.0977 16.289C10.8125 16.289 10.6328 16.5039 10.6758 16.7851C10.6953 16.9023 10.7969 17.0234 11.2656 17.4961C11.7344 17.9726 11.8359 18.0976 11.8555 18.2187C11.9609 18.7734 11.3359 19.1328 10.9023 18.7656C10.7852 18.6679 10.7852 18.6679 10.8438 18.5078C11.1133 17.7343 10.7031 16.9023 9.9375 16.6796L9.77344 16.6328L9.75781 16.2734C9.74609 15.9609 9.72656 15.8867 9.60938 15.6718C9.39844 15.2773 9.01953 15.0078 8.625 14.9687C8.42578 14.9492 8.35938 14.8789 8.35938 14.6875C8.35938 14.5273 8.19141 14.1757 8.02734 13.9961C7.73828 13.6718 7.24219 13.4765 6.85156 13.5312C6.69141 13.5507 6.6836 13.5507 6.65625 13.4257C6.61328 13.2148 6.46094 12.957 6.28125 12.789C6.0586 12.5781 5.95313 12.5195 5.67969 12.4375C5.29688 12.3281 4.85547 12.4023 4.48438 12.6445C4.37891 12.7109 4.375 12.7109 4.32031 12.6367C4.28906 12.5937 3.95703 12.1445 3.58203 11.6406L2.89844 10.7226L3.04297 10.5468C3.1211 10.4453 3.92969 9.45699 4.84375 8.34371C5.96485 6.98043 6.52344 6.32808 6.5625 6.3398C6.59375 6.34762 6.83594 6.41402 7.10156 6.48433ZM5.51953 13.2578C5.78906 13.3711 5.92969 13.6562 5.85156 13.9375C5.79688 14.1367 5.19531 14.75 4.9961 14.8086C4.58594 14.9336 4.21875 14.6211 4.26953 14.1953C4.28516 14.0312 4.32031 13.9804 4.63281 13.664C5.08203 13.207 5.23828 13.1367 5.51953 13.2578ZM7.21485 14.4101C7.47266 14.5312 7.60547 14.8007 7.53125 15.0664C7.47656 15.2773 6.41406 16.3515 6.20313 16.414C5.79297 16.5351 5.3711 16.1015 5.50391 15.6953C5.5586 15.5312 6.64844 14.4414 6.81641 14.3828C6.98438 14.3242 7.03125 14.3281 7.21485 14.4101ZM8.69141 15.8593C8.91797 16 9.01563 16.3554 8.89063 16.5937C8.80469 16.7539 7.76953 17.7617 7.64453 17.8125C7.37891 17.9101 7.08203 17.7851 6.95313 17.5195C6.86328 17.3359 6.85547 17.2421 6.91406 17.082C6.96094 16.9609 7.91797 15.9726 8.10547 15.8554C8.26172 15.7578 8.52734 15.7578 8.69141 15.8593ZM9.84766 17.5507C9.92969 17.6054 10.0078 17.7109 10.0547 17.8203C10.1719 18.1093 10.1094 18.2617 9.69531 18.6796C9.32422 19.0468 9.17969 19.1211 8.92188 19.0625C8.63672 18.9961 8.4375 18.6796 8.49219 18.3789C8.51172 18.2734 8.59766 18.1562 8.82031 17.9218C8.98438 17.7461 9.17578 17.5742 9.23828 17.5351C9.40625 17.4296 9.67969 17.4375 9.84766 17.5507Z" fill="white"/>
</g>
<defs>
<clipPath id="clip0_0_9">
<rect width="20" height="20" fill="white"/>
</clipPath>
</defs>
</svg>
