<svg width="16" height="14" viewBox="0 0 16 14" fill="none" xmlns="http://www.w3.org/2000/svg">
<path opacity="0.7" d="M0 4.8125V4.65625C0 2.46875 1.5625 0.59375 3.71875 0.25C5.125 0 6.59375 0.46875 7.625 1.5L8 1.84375L8.34375 1.5C9.375 0.46875 10.8438 0 12.25 0.25C14.4062 0.59375 16 2.46875 16 4.65625V4.8125C16 6.125 15.4375 7.375 14.5 8.25L8.84375 13.5312C8.625 13.75 8.3125 13.8438 8 13.8438C7.65625 13.8438 7.34375 13.75 7.125 13.5312L1.46875 8.25C0.53125 7.375 0 6.125 0 4.8125Z" fill="#FA0101"/>
</svg>
