<svg width="24" height="24" viewBox="0 0 24 24" fill="none" xmlns="http://www.w3.org/2000/svg">
<path d="M10.2078 4.08099C11.3178 3.4437 12.6826 3.44371 13.7926 4.08099L22.499 9.07948C22.6852 9.18647 22.8002 9.38494 22.8002 9.59982C22.8002 9.81471 22.6852 10.0132 22.4989 10.1202L19.2002 12.0139V17.3998C19.2002 17.5589 19.137 17.7115 19.0245 17.8241L19.0226 17.8259L19.0197 17.8287L19.0116 17.8368L18.9843 17.8629C18.9614 17.8845 18.9291 17.9143 18.8875 17.9513C18.8043 18.0253 18.6837 18.1278 18.5269 18.2493C18.2134 18.4918 17.754 18.8111 17.1576 19.1292C15.9642 19.7657 14.2177 20.3998 12.0002 20.3998C9.78273 20.3998 8.03629 19.7657 6.84285 19.1292C6.24641 18.8111 5.78691 18.4918 5.47352 18.2493C5.31671 18.1278 5.19612 18.0253 5.1129 17.9513C5.07129 17.9143 5.03897 17.8845 5.0161 17.8629C4.88691 17.7382 4.8002 17.5843 4.8002 17.3998V12.0139L2.4002 10.6361V16.1998C2.4002 16.5311 2.13156 16.7998 1.8002 16.7998C1.46883 16.7998 1.2002 16.5311 1.2002 16.1998V9.59982C1.2002 9.37257 1.32654 9.17478 1.51282 9.07296L10.2078 4.08099ZM13.7926 15.1186C12.6826 15.7558 11.3178 15.7558 10.2078 15.1186L6.0002 12.703V17.1324C6.05643 17.1799 6.12582 17.2366 6.20812 17.3003C6.47598 17.5078 6.87898 17.7885 7.40754 18.0703C8.4641 18.6339 10.0177 19.1998 12.0002 19.1998C13.9827 19.1998 15.5362 18.6339 16.5928 18.0703C17.1214 17.7885 17.5244 17.5078 17.7922 17.3003C17.8746 17.2366 17.9439 17.1799 18.0002 17.1324V12.703L13.7926 15.1186ZM13.1952 5.12166C12.4551 4.69681 11.5452 4.69681 10.8052 5.12166L3.00527 9.59981L10.8052 14.0778C11.5452 14.5027 12.4551 14.5027 13.1952 14.0778L20.9952 9.59981L13.1952 5.12166Z" fill="#016DEA"/>
</svg>
