<svg width="16" height="16" viewBox="0 0 16 16" fill="none" xmlns="http://www.w3.org/2000/svg">
<path d="M15.6434 0.355429L9.904 0L0 9.90286L6.096 16L16 6.09371L15.6434 0.355429ZM12.9531 2.10171C13.2038 2.10202 13.4441 2.20189 13.6211 2.37935C13.7982 2.55681 13.8974 2.79733 13.8971 3.048C13.8968 3.29867 13.797 3.53895 13.6195 3.71598C13.442 3.89302 13.2015 3.9923 12.9509 3.992C12.8267 3.99185 12.7039 3.96725 12.5893 3.91962C12.4746 3.87198 12.3705 3.80224 12.2829 3.71437C12.1058 3.5369 12.0066 3.29638 12.0069 3.04571C12.0072 2.79505 12.107 2.55477 12.2845 2.37773C12.462 2.2007 12.7025 2.10141 12.9531 2.10171ZM7.36114 11.3051C6.92229 11.2869 6.49143 11.1131 6.072 10.7851L5.23771 11.6183L4.576 10.9577L5.41029 10.1246C5.1751 9.8205 4.98353 9.48507 4.84114 9.128C4.70275 8.78711 4.61682 8.42721 4.58629 8.06057L5.68914 7.68229C5.70971 8.06971 5.79657 8.45029 5.95086 8.82743C6.10286 9.19886 6.29029 9.49714 6.50857 9.71543C6.696 9.90286 6.87429 10.0171 7.04914 10.0526C7.224 10.088 7.37714 10.0423 7.50629 9.912C7.55492 9.86572 7.59336 9.8098 7.61914 9.7478C7.64492 9.68581 7.65748 9.61912 7.656 9.552C7.65143 9.41143 7.616 9.26743 7.54857 9.11657C7.48114 8.96572 7.38171 8.76457 7.24 8.52229C7.07219 8.23004 6.92332 7.92732 6.79429 7.616C6.69845 7.36092 6.66476 7.08669 6.696 6.816C6.728 6.53257 6.87543 6.26057 7.13371 6C7.448 5.688 7.81486 5.53371 8.24343 5.54057C8.66514 5.54971 9.08914 5.71086 9.51086 6.024L10.2903 5.24457L10.9509 5.904L10.1783 6.67771C10.3794 6.93371 10.5509 7.20457 10.688 7.48571C10.8263 7.77143 10.9223 8.05143 10.976 8.32457L9.87314 8.72914C9.79357 8.39557 9.67304 8.07312 9.51429 7.76914C9.3928 7.51069 9.23118 7.27309 9.03543 7.06514C8.91172 6.92733 8.75171 6.82712 8.57371 6.776C8.50434 6.75755 8.43124 6.75845 8.36234 6.77859C8.29343 6.79874 8.23136 6.83737 8.18286 6.89029C8.11442 6.95662 8.06633 7.04112 8.04427 7.13384C8.0222 7.22656 8.02706 7.32366 8.05829 7.41371C8.11429 7.61943 8.24343 7.90171 8.43771 8.25829C8.63429 8.61257 8.77943 8.92343 8.87543 9.18057C8.97371 9.43886 9.00457 9.712 8.97143 9.99657C8.93714 10.2846 8.78743 10.56 8.52229 10.8229C8.18514 11.1623 7.79657 11.3211 7.36114 11.3051Z" fill="#016DEA"/>
</svg>
