<svg width="212" height="16" viewBox="0 0 212 16" fill="none" xmlns="http://www.w3.org/2000/svg">
<path d="M11.7231 9L12.1675 6.10437H9.38908V4.22531C9.38908 3.43313 9.77721 2.66094 11.0216 2.66094H12.2847V0.195625C12.2847 0.195625 11.1385 0 10.0425 0C7.75439 0 6.25877 1.38688 6.25877 3.8975V6.10437H3.71533V9H6.25877V16H9.38908V9H11.7231Z" fill="black"/>
<path d="M41.003 4.40586C39.0155 4.40586 37.4124 6.00898 37.4124 7.99648C37.4124 9.98398 39.0155 11.5871 41.003 11.5871C42.9905 11.5871 44.5937 9.98398 44.5937 7.99648C44.5937 6.00898 42.9905 4.40586 41.003 4.40586ZM41.003 10.3309C39.7187 10.3309 38.6687 9.28398 38.6687 7.99648C38.6687 6.70898 39.7155 5.66211 41.003 5.66211C42.2905 5.66211 43.3374 6.70898 43.3374 7.99648C43.3374 9.28398 42.2874 10.3309 41.003 10.3309ZM45.578 4.25898C45.578 4.72461 45.203 5.09648 44.7405 5.09648C44.2749 5.09648 43.903 4.72148 43.903 4.25898C43.903 3.79648 44.278 3.42148 44.7405 3.42148C45.203 3.42148 45.578 3.79648 45.578 4.25898ZM47.9562 5.10898C47.903 3.98711 47.6468 2.99336 46.8249 2.17461C46.0062 1.35586 45.0124 1.09961 43.8905 1.04336C42.7343 0.977734 39.2687 0.977734 38.1124 1.04336C36.9937 1.09648 35.9999 1.35273 35.178 2.17148C34.3562 2.99023 34.103 3.98398 34.0468 5.10586C33.9812 6.26211 33.9812 9.72773 34.0468 10.884C34.0999 12.0059 34.3562 12.9996 35.178 13.8184C35.9999 14.6371 36.9905 14.8934 38.1124 14.9496C39.2687 15.0152 42.7343 15.0152 43.8905 14.9496C45.0124 14.8965 46.0062 14.6402 46.8249 13.8184C47.6437 12.9996 47.8999 12.0059 47.9562 10.884C48.0218 9.72773 48.0218 6.26523 47.9562 5.10898ZM46.4624 12.1246C46.2187 12.7371 45.7468 13.209 45.1312 13.4559C44.2093 13.8215 42.0218 13.7371 41.003 13.7371C39.9843 13.7371 37.7937 13.8184 36.8749 13.4559C36.2624 13.2121 35.7905 12.7402 35.5437 12.1246C35.178 11.2027 35.2624 9.01523 35.2624 7.99648C35.2624 6.97773 35.1812 4.78711 35.5437 3.86836C35.7874 3.25586 36.2593 2.78398 36.8749 2.53711C37.7968 2.17148 39.9843 2.25586 41.003 2.25586C42.0218 2.25586 44.2124 2.17461 45.1312 2.53711C45.7437 2.78086 46.2155 3.25273 46.4624 3.86836C46.828 4.79023 46.7437 6.97773 46.7437 7.99648C46.7437 9.01523 46.828 11.2059 46.4624 12.1246Z" fill="black"/>
<path d="M80.3553 4.74149C80.3655 4.88362 80.3655 5.02577 80.3655 5.1679C80.3655 9.5029 77.066 14.4978 71.0355 14.4978C69.1777 14.4978 67.4518 13.9597 66 13.0258C66.264 13.0562 66.5177 13.0664 66.7919 13.0664C68.3248 13.0664 69.736 12.5486 70.8629 11.6654C69.4213 11.6349 68.2132 10.6907 67.7969 9.39124C68 9.42168 68.203 9.44199 68.4162 9.44199C68.7107 9.44199 69.0051 9.40137 69.2792 9.33034C67.7767 9.02574 66.6497 7.70596 66.6497 6.11205V6.07146C67.0862 6.31512 67.5939 6.4674 68.1319 6.48768C67.2487 5.89884 66.67 4.89377 66.67 3.75671C66.67 3.14759 66.8324 2.58921 67.1167 2.1019C68.7309 4.09174 71.1573 5.39121 73.8781 5.53337C73.8274 5.28971 73.7969 5.03593 73.7969 4.78212C73.7969 2.97499 75.2588 1.50293 77.0761 1.50293C78.0202 1.50293 78.873 1.89887 79.472 2.53846C80.2131 2.39634 80.9238 2.12221 81.5532 1.74659C81.3096 2.50802 80.7918 3.14762 80.1116 3.55368C80.7715 3.48265 81.4111 3.29987 81.9999 3.04609C81.5533 3.6958 80.9949 4.27446 80.3553 4.74149Z" fill="black"/>
<path d="M103.134 13.9997H100.231V4.65281H103.134V13.9997ZM101.681 3.37781C100.753 3.37781 100 2.60906 100 1.68094C100 1.23513 100.177 0.807572 100.492 0.492335C100.808 0.177098 101.235 0 101.681 0C102.127 0 102.554 0.177098 102.87 0.492335C103.185 0.807572 103.362 1.23513 103.362 1.68094C103.362 2.60906 102.609 3.37781 101.681 3.37781ZM113.997 13.9997H111.101V9.44969C111.101 8.36531 111.079 6.97469 109.592 6.97469C108.082 6.97469 107.851 8.15281 107.851 9.37156V13.9997H104.952V4.65281H107.736V5.92781H107.776C108.164 5.19344 109.11 4.41844 110.523 4.41844C113.46 4.41844 114 6.35281 114 8.86531V13.9997H113.997Z" fill="black"/>
<path d="M147.268 4.33596C147.094 3.67902 146.58 3.16163 145.927 2.98605C144.744 2.66699 140 2.66699 140 2.66699C140 2.66699 135.256 2.66699 134.073 2.98605C133.421 3.16166 132.907 3.67902 132.732 4.33596C132.415 5.52671 132.415 8.0111 132.415 8.0111C132.415 8.0111 132.415 10.4955 132.732 11.6862C132.907 12.3432 133.421 12.839 134.073 13.0146C135.256 13.3337 140 13.3337 140 13.3337C140 13.3337 144.744 13.3337 145.927 13.0146C146.58 12.839 147.094 12.3432 147.268 11.6862C147.585 10.4955 147.585 8.0111 147.585 8.0111C147.585 8.0111 147.585 5.52671 147.268 4.33596ZM138.449 10.2667V5.75546L142.414 8.01116L138.449 10.2667Z" fill="black"/>
<g clip-path="url(#clip0_1403_25827)">
<path d="M211.964 12.2714C211.801 12.6513 211.113 12.9305 209.859 13.1251C209.795 13.2122 209.741 13.5841 209.656 13.8737C209.605 14.0477 209.48 14.1509 209.277 14.1509L209.267 14.1507C208.974 14.1507 208.667 14.0156 208.053 14.0156C207.224 14.0156 206.939 14.2045 206.295 14.659C205.613 15.1415 204.959 15.5579 203.982 15.5152C202.993 15.5882 202.169 14.9869 201.705 14.6589C201.057 14.2013 200.773 14.0157 199.947 14.0157C199.358 14.0157 198.987 14.1632 198.733 14.1632C198.481 14.1632 198.383 14.0094 198.345 13.8807C198.26 13.5935 198.207 13.2162 198.141 13.1266C197.495 13.0263 196.038 12.7721 196.001 12.1219C195.996 12.0402 196.022 11.9597 196.073 11.8959C196.124 11.8321 196.197 11.7894 196.278 11.776C198.452 11.4181 199.432 9.18537 199.473 9.09059C199.475 9.08509 199.477 9.07984 199.48 9.07449C199.596 8.83896 199.622 8.64171 199.557 8.48846C199.399 8.11671 198.717 7.98334 198.43 7.86984C197.689 7.57715 197.586 7.24084 197.63 7.01034C197.706 6.60921 198.309 6.36237 198.661 6.52743C198.94 6.65809 199.188 6.72421 199.397 6.72421C199.554 6.72421 199.654 6.68659 199.708 6.65637C199.644 5.53337 199.486 3.92855 199.886 3.03234C200.941 0.666148 203.178 0.482273 203.838 0.482273C203.868 0.482273 204.124 0.479492 204.154 0.479492C205.784 0.479492 207.35 1.31637 208.114 3.03084C208.514 3.92615 208.357 5.52434 208.292 6.65612C208.342 6.68337 208.429 6.7168 208.561 6.72296C208.761 6.71402 208.993 6.6483 209.251 6.52743C209.441 6.43849 209.701 6.45052 209.891 6.52924L209.892 6.52955C210.188 6.63534 210.374 6.84877 210.379 7.08799C210.385 7.39259 210.113 7.65565 209.57 7.8698C209.504 7.8959 209.423 7.92152 209.338 7.94871C209.032 8.04577 208.569 8.19262 208.444 8.48843C208.379 8.64168 208.404 8.83877 208.52 9.0743C208.523 9.07955 208.526 9.08499 208.528 9.0904C208.569 9.18509 209.547 11.4173 211.723 11.7758C211.923 11.8089 212.071 12.022 211.964 12.2714Z" fill="black"/>
</g>
<g clip-path="url(#clip1_1403_25827)">
<path d="M179 6.55969C177.624 6.56298 176.282 6.13392 175.163 5.33313V10.9181C175.163 11.9525 174.847 12.9622 174.257 13.812C173.667 14.6619 172.832 15.3115 171.863 15.6739C170.895 16.0364 169.838 16.0944 168.836 15.8402C167.833 15.5861 166.932 15.0319 166.252 14.2517C165.573 13.4716 165.148 12.5026 165.035 11.4745C164.921 10.4464 165.124 9.40803 165.616 8.49833C166.109 7.58863 166.867 6.85093 167.79 6.38387C168.713 5.91681 169.756 5.74265 170.781 5.88469V8.69375C170.312 8.54627 169.809 8.55071 169.343 8.70644C168.876 8.86217 168.471 9.16123 168.185 9.56089C167.899 9.96056 167.747 10.4404 167.75 10.9319C167.752 11.4234 167.911 11.9014 168.201 12.2977C168.492 12.694 168.901 12.9882 169.369 13.1385C169.837 13.2887 170.34 13.2872 170.807 13.1342C171.274 12.9812 171.681 12.6845 171.97 12.2866C172.258 11.8886 172.413 11.4096 172.413 10.9181V0H175.163C175.161 0.232231 175.181 0.464146 175.221 0.692813C175.317 1.20328 175.516 1.68888 175.805 2.11992C176.095 2.55096 176.47 2.91837 176.906 3.19969C177.527 3.61034 178.255 3.82922 179 3.82906V6.55969Z" fill="black"/>
</g>
<defs>
<clipPath id="clip0_1403_25827">
<rect width="16" height="16" fill="white" transform="translate(196)"/>
</clipPath>
<clipPath id="clip1_1403_25827">
<rect width="14" height="16" fill="white" transform="translate(165)"/>
</clipPath>
</defs>
</svg>
