<svg width="1175" height="234" viewBox="0 0 1175 234" fill="none" xmlns="http://www.w3.org/2000/svg">
<rect y="157" width="50" height="77" fill="#016DEA"/>
<rect x="75" y="122" width="50" height="112" fill="#016DEA"/>
<rect x="150" y="197" width="50" height="37" fill="#016DEA"/>
<rect x="225" y="132" width="50" height="102" fill="#016DEA"/>
<rect x="300" y="105" width="50" height="129" fill="#016DEA"/>
<rect x="375" y="41" width="50" height="193" fill="#016DEA"/>
<rect x="450" y="127" width="50" height="107" fill="#016DEA"/>
<rect x="525" y="189" width="50" height="45" fill="#016DEA"/>
<rect x="600" width="50" height="234" fill="#016DEA"/>
<rect x="675" y="24" width="50" height="210" fill="#016DEA"/>
<rect x="750" y="68" width="50" height="166" fill="#016DEA"/>
<rect x="825" y="24" width="50" height="210" fill="#016DEA"/>
<rect x="900" y="177" width="50" height="57" fill="#016DEA"/>
<rect x="975" y="78" width="50" height="156" fill="#016DEA"/>
<rect x="1050" y="68" width="50" height="166" fill="#016DEA"/>
<rect x="1125" y="122" width="50" height="112" fill="#016DEA"/>
</svg>
