<svg width="13" height="13" viewBox="0 0 13 13" fill="none" xmlns="http://www.w3.org/2000/svg">
<g clip-path="url(#clip0_1072_24600)">
<path d="M11.2879 2.49698C11.0113 2.22021 10.6828 2.00066 10.3213 1.85086C9.95981 1.70107 9.57233 1.62397 9.18101 1.62397C8.78969 1.62397 8.4022 1.70107 8.04069 1.85086C7.67917 2.00066 7.35071 2.22021 7.07408 2.49698L6.49995 3.07111L5.92582 2.49698C5.36703 1.93819 4.60915 1.62426 3.81889 1.62426C3.02864 1.62426 2.27075 1.93819 1.71196 2.49698C1.15317 3.05577 0.839241 3.81366 0.839241 4.60391C0.839241 5.39417 1.15317 6.15205 1.71196 6.71085L2.28609 7.28497L6.49995 11.4988L10.7138 7.28497L11.2879 6.71085C11.5647 6.43421 11.7843 6.10575 11.9341 5.74423C12.0838 5.38272 12.1609 4.99523 12.1609 4.60391C12.1609 4.21259 12.0838 3.82511 11.9341 3.46359C11.7843 3.10208 11.5647 2.77362 11.2879 2.49698Z" fill="white"/>
</g>
<defs>
<clipPath id="clip0_1072_24600">
<rect width="12.3429" height="12.3429" fill="white" transform="scale(1.05316)"/>
</clipPath>
</defs>
</svg>
