<svg width="890" height="74" viewBox="0 0 890 74" fill="none" xmlns="http://www.w3.org/2000/svg">
<g filter="url(#filter0_d_1015_38106)">
<rect x="5" y="5" width="880" height="64" rx="15" fill="white"/>
<rect x="5.5" y="5.5" width="879" height="63" rx="14.5" stroke="black" stroke-opacity="0.05"/>
</g>
<circle cx="64" cy="37" r="19" fill="#016DEA"/>
<path d="M72 28H56C54.89 28 54 28.89 54 30V44C54 45.11 54.89 46 56 46H72C73.11 46 74 45.11 74 44V30C74 28.89 73.11 28 72 28ZM57 32H62V38H57V32ZM71 42H57V40H71V42ZM71 38H64V36H71V38ZM71 34H64V32H71V34Z" fill="white"/>
<circle cx="191" cy="37" r="19" fill="#F4F4F4"/>
<path d="M199 45H183C182.47 45 181.961 44.7893 181.586 44.4142C181.211 44.0391 181 43.5304 181 43V31C181 30.4696 181.211 29.9609 181.586 29.5858C181.961 29.2107 182.47 29 183 29H199C199.53 29 200.039 29.2107 200.414 29.5858C200.789 29.9609 201 30.4696 201 31V43C201 43.5304 200.789 44.0391 200.414 44.4142C200.039 44.7893 199.53 45 199 45ZM184 38V40H195V38H184ZM184 34V36H198V34H184Z" fill="black" fill-opacity="0.5"/>
<circle cx="318" cy="37" r="19" fill="#F4F4F4"/>
<g clip-path="url(#clip0_1015_38106)">
<path d="M314.5 38.5L317 41.5L320.5 37L325 43H311M327 44V30C327 28.89 326.1 28 325 28H311C310.47 28 309.961 28.2107 309.586 28.5858C309.211 28.9609 309 29.4696 309 30V44C309 44.5304 309.211 45.0391 309.586 45.4142C309.961 45.7893 310.47 46 311 46H325C325.53 46 326.039 45.7893 326.414 45.4142C326.789 45.0391 327 44.5304 327 44Z" fill="black" fill-opacity="0.5"/>
</g>
<circle cx="445" cy="37" r="19" fill="#F4F4F4"/>
<path d="M451 32C451 30.897 450.103 30 449 30H437C435.897 30 435 30.897 435 32V42C435 43.103 435.897 44 437 44H449C450.103 44 451 43.103 451 42V38.667L455 42V32L451 35.333V32Z" fill="black" fill-opacity="0.5"/>
<circle cx="572" cy="37" r="19" fill="#F4F4F4"/>
<path d="M566 43.5727C568.206 43.5727 570 41.7787 570 39.5727V29.4277L579 32.6997V40.1297C578.395 39.7692 577.704 39.5769 577 39.5727C574.794 39.5727 573 41.3667 573 43.5727C573 45.7787 574.794 47.5727 577 47.5727C579.206 47.5727 581 45.7787 581 43.5727V31.9997C581 31.7946 580.937 31.5943 580.819 31.4263C580.702 31.2583 580.535 31.1306 580.342 31.0607L569.342 27.0607C569.191 27.0055 569.029 26.9876 568.869 27.0084C568.71 27.0293 568.558 27.0883 568.426 27.1805C568.295 27.2726 568.187 27.3953 568.113 27.5379C568.039 27.6805 568 27.8389 568 27.9997V36.1297C567.395 35.7692 566.704 35.5769 566 35.5727C563.794 35.5727 562 37.3667 562 39.5727C562 41.7787 563.794 43.5727 566 43.5727Z" fill="black" fill-opacity="0.5"/>
<circle cx="699" cy="37" r="19" fill="#F4F4F4"/>
<path d="M693 27C692.47 27 691.961 27.2107 691.586 27.5858C691.211 27.9609 691 28.4696 691 29V45C691 45.5304 691.211 46.0391 691.586 46.4142C691.961 46.7893 692.47 47 693 47H705C705.53 47 706.039 46.7893 706.414 46.4142C706.789 46.0391 707 45.5304 707 45V33L701 27H693ZM701 34H700V29L705 34H701Z" fill="black" fill-opacity="0.5"/>
<circle cx="826" cy="37" r="19" fill="#F4F4F4"/>
<path d="M823 31.8818L816 28.3818V41.6178L823 45.1178L829 42.1178L836 45.6178V32.3818L829 28.8818L823 31.8818ZM829 39.9998L823 42.9998V33.9998L829 30.9998V39.9998Z" fill="black" fill-opacity="0.5"/>
<defs>
<filter id="filter0_d_1015_38106" x="0" y="0" width="890" height="74" filterUnits="userSpaceOnUse" color-interpolation-filters="sRGB">
<feFlood flood-opacity="0" result="BackgroundImageFix"/>
<feColorMatrix in="SourceAlpha" type="matrix" values="0 0 0 0 0 0 0 0 0 0 0 0 0 0 0 0 0 0 127 0" result="hardAlpha"/>
<feOffset/>
<feGaussianBlur stdDeviation="2.5"/>
<feComposite in2="hardAlpha" operator="out"/>
<feColorMatrix type="matrix" values="0 0 0 0 0 0 0 0 0 0 0 0 0 0 0 0 0 0 0.1 0"/>
<feBlend mode="normal" in2="BackgroundImageFix" result="effect1_dropShadow_1015_38106"/>
<feBlend mode="normal" in="SourceGraphic" in2="effect1_dropShadow_1015_38106" result="shape"/>
</filter>
<clipPath id="clip0_1015_38106">
<rect width="24" height="24" fill="white" transform="translate(306 25)"/>
</clipPath>
</defs>
</svg>
