<svg width="43" height="15" viewBox="0 0 43 15" fill="none" xmlns="http://www.w3.org/2000/svg">
<path d="M13.9727 10.6367L13.3164 13.3984C13.2344 13.8086 12.9062 14.082 12.4961 14.082C5.60547 14.0547 0 8.44922 0 1.55859C0 1.14844 0.246094 0.820312 0.65625 0.738281L3.41797 0.0820312C3.80078 0 4.21094 0.21875 4.375 0.574219L5.66016 3.55469C5.79688 3.91016 5.71484 4.32031 5.41406 4.53906L3.9375 5.74219C4.86719 7.62891 6.39844 9.16016 8.3125 10.0898L9.51562 8.61328C9.73438 8.33984 10.1445 8.23047 10.5 8.36719L13.4805 9.65234C13.8359 9.84375 14.0547 10.2539 13.9727 10.6367Z" fill="#016DEA"/>
<path d="M36 0.0546875C32.1172 0.0546875 29 3.19922 29 7.05469C29 10.9375 32.1172 14.0547 36 14.0547C39.8555 14.0547 43 10.9375 43 7.05469C43 3.19922 39.8555 0.0546875 36 0.0546875ZM36 3.55469C36.4648 3.55469 36.875 3.96484 36.875 4.42969C36.875 4.92188 36.4648 5.30469 36 5.30469C35.5078 5.30469 35.125 4.92188 35.125 4.42969C35.125 3.96484 35.5078 3.55469 36 3.55469ZM37.0938 10.5547H34.9062C34.5234 10.5547 34.25 10.2812 34.25 9.89844C34.25 9.54297 34.5234 9.24219 34.9062 9.24219H35.3438V7.49219H35.125C34.7422 7.49219 34.4688 7.21875 34.4688 6.83594C34.4688 6.48047 34.7422 6.17969 35.125 6.17969H36C36.3555 6.17969 36.6562 6.48047 36.6562 6.83594V9.24219H37.0938C37.4492 9.24219 37.75 9.54297 37.75 9.89844C37.75 10.2812 37.4492 10.5547 37.0938 10.5547Z" fill="#016DEA"/>
</svg>
