<svg width="19" height="14" viewBox="0 0 19 14" fill="none" xmlns="http://www.w3.org/2000/svg">
<g clip-path="url(#clip0_0_615)">
<path d="M11.3332 13V11.6667C11.3332 10.9594 11.0522 10.2811 10.5521 9.78105C10.052 9.28095 9.37375 9 8.6665 9H3.33317C2.62593 9 1.94765 9.28095 1.44755 9.78105C0.947456 10.2811 0.666504 10.9594 0.666504 11.6667V13" stroke="#016DEA" stroke-linecap="round" stroke-linejoin="round"/>
<path d="M6.00016 6.33333C7.47292 6.33333 8.66683 5.13943 8.66683 3.66667C8.66683 2.19391 7.47292 1 6.00016 1C4.5274 1 3.3335 2.19391 3.3335 3.66667C3.3335 5.13943 4.5274 6.33333 6.00016 6.33333Z" stroke="#016DEA" stroke-linecap="round" stroke-linejoin="round"/>
<path d="M15.3335 12.9998V11.6664C15.3331 11.0756 15.1364 10.5016 14.7744 10.0346C14.4124 9.56766 13.9056 9.23414 13.3335 9.08643" stroke="#016DEA" stroke-linecap="round" stroke-linejoin="round"/>
<path d="M18.3335 12.9998V11.6664C18.3331 11.0756 18.1364 10.5016 17.7744 10.0346C17.4124 9.56766 16.9056 9.23414 16.3335 9.08643" stroke="#016DEA" stroke-linecap="round" stroke-linejoin="round"/>
<path d="M10.6665 1.08643C11.2401 1.23329 11.7485 1.56689 12.1116 2.03463C12.4747 2.50237 12.6717 3.07765 12.6717 3.66976C12.6717 4.26187 12.4747 4.83715 12.1116 5.30488C11.7485 5.77262 11.2401 6.10622 10.6665 6.25309" stroke="#016DEA" stroke-linecap="round" stroke-linejoin="round"/>
<path d="M13.6665 1.08643C14.2401 1.23329 14.7485 1.56689 15.1116 2.03463C15.4747 2.50237 15.6717 3.07765 15.6717 3.66976C15.6717 4.26187 15.4747 4.83715 15.1116 5.30488C14.7485 5.77262 14.2401 6.10622 13.6665 6.25309" stroke="#016DEA" stroke-linecap="round" stroke-linejoin="round"/>
</g>
<defs>
<clipPath id="clip0_0_615">
<rect width="19" height="14" fill="white"/>
</clipPath>
</defs>
</svg>
