<svg width="24" height="24" viewBox="0 0 24 24" fill="none" xmlns="http://www.w3.org/2000/svg">
<path d="M11.2265 1.87453C9.84835 2.73703 8.99054 3.49641 8.1796 4.57454C6.97492 6.17766 6.1921 8.42297 6.18742 10.2933V10.6261L6.0046 10.6823C5.50773 10.8277 4.82335 11.3105 4.48117 11.7605C4.17648 12.1589 4.00304 12.4964 3.87179 12.9558L3.74992 13.3683V16.3402C3.74992 19.8698 3.6796 19.5277 4.40148 19.4902C5.20304 19.448 5.97179 19.1011 6.55304 18.5198C6.88117 18.1917 7.01242 17.9902 7.40148 17.2073C7.58898 16.837 7.74835 16.5417 7.75773 16.5511C7.7671 16.5605 7.8796 16.837 8.01085 17.1698L8.24992 17.7652V18.5386C8.24992 19.5745 8.16085 19.4995 9.36554 19.4995H10.289L10.2937 20.048C10.2937 20.512 10.3124 20.648 10.4062 20.8823C10.6124 21.4167 10.889 21.7589 11.5452 22.2792C11.9437 22.598 12.0702 22.5886 12.5484 22.1995C12.7499 22.0355 13.0124 21.7964 13.1296 21.6698C13.5468 21.2011 13.7624 20.5495 13.7202 19.8839L13.6921 19.4995H14.6249C15.839 19.4995 15.7499 19.5745 15.7499 18.5386V17.7652L15.989 17.1698C16.1202 16.837 16.2327 16.5605 16.2421 16.5511C16.2515 16.5417 16.4109 16.837 16.5984 17.2073C16.9874 17.9902 17.1187 18.1917 17.4468 18.5198C18.028 19.1011 18.7968 19.448 19.5984 19.4902C20.3202 19.5277 20.2499 19.8698 20.2499 16.3402V13.3683L20.128 12.9558C19.9968 12.4964 19.8234 12.1589 19.5187 11.7605C19.1765 11.3152 18.4921 10.8277 18.0046 10.6823L17.8265 10.6308L17.7984 10.0355C17.6671 7.4011 16.4812 4.91672 14.5171 3.14953C13.9968 2.68547 13.5702 2.3761 12.7734 1.87453C12.3093 1.5886 12.1312 1.49953 11.9999 1.49953C11.8687 1.49953 11.6905 1.5886 11.2265 1.87453ZM12.5202 2.67141C13.2093 3.10735 13.7577 3.5386 14.2734 4.05422L14.6952 4.4761L13.3499 4.49016C12.6046 4.49485 11.3952 4.49485 10.6546 4.49016L9.3046 4.4761L9.72648 4.05422C10.2327 3.54797 10.7812 3.11203 11.4655 2.6761C11.7468 2.49797 11.9812 2.34797 11.9859 2.34797C11.9905 2.34328 12.2343 2.49328 12.5202 2.67141ZM15.5249 5.59172C16.903 7.71047 17.3577 10.3683 16.7577 12.8386C16.6265 13.3823 16.4109 13.9636 15.6374 15.8902L15.103 17.2261H11.9999H8.89679L8.17492 15.4214C7.19992 12.9698 7.04054 12.3745 6.99835 10.9448C6.97023 10.0448 7.02179 9.44016 7.19992 8.62922C7.42492 7.61672 7.89835 6.48235 8.44679 5.6386L8.69523 5.24953H11.9999H15.3046L15.5249 5.59172ZM6.25304 11.8214C6.32804 12.6558 6.57179 13.5558 7.03117 14.7136L7.3546 15.5292L6.84367 16.5417C6.28117 17.6527 6.06554 17.948 5.57804 18.2761C5.2921 18.4636 4.93585 18.6183 4.64992 18.6698L4.49523 18.7027L4.50929 16.1105C4.52804 13.8417 4.5421 13.4902 4.61242 13.2464C4.79523 12.6042 5.26398 11.9855 5.8171 11.6573C5.98117 11.5636 6.14054 11.4839 6.16867 11.4839C6.20148 11.4839 6.23429 11.6198 6.25304 11.8214ZM18.1827 11.6573C18.7359 11.9855 19.2046 12.6042 19.3874 13.2464C19.4577 13.4902 19.4718 13.8417 19.4905 16.1105L19.5046 18.7027L19.3499 18.6698C19.0734 18.6183 18.7218 18.4683 18.4359 18.2855C17.953 17.9714 17.7187 17.6573 17.1562 16.5417L16.6452 15.5292L16.9687 14.7136C17.428 13.5558 17.6718 12.6558 17.7468 11.8214C17.7655 11.6198 17.7984 11.4839 17.8312 11.4839C17.8593 11.4839 18.0187 11.5636 18.1827 11.6573ZM14.9999 18.3745V18.7495H11.9999H8.99992V18.3745V17.9995H11.9999H14.9999V18.3745ZM12.8952 19.6964C13.0405 20.2402 12.8062 20.9152 12.3234 21.337C12.1687 21.473 12.0234 21.5855 11.9999 21.5855C11.9765 21.5855 11.8312 21.473 11.6765 21.337C11.1937 20.9152 10.9593 20.2402 11.1046 19.6964L11.1609 19.4995H11.9999H12.839L12.8952 19.6964Z" fill="#AAA9AD"/>
<path d="M11.1793 7.58867C10.1293 7.89336 9.31372 8.73711 9.06997 9.75898C8.97622 10.1527 8.9809 10.9027 9.07465 11.2684C9.34184 12.2996 10.2372 13.1902 11.2543 13.4293C11.6387 13.5184 12.3606 13.5184 12.745 13.4293C13.7622 13.1902 14.6575 12.2996 14.9247 11.2684C15.0184 10.9027 15.0231 10.1527 14.9293 9.7543C14.6856 8.72773 13.7715 7.81367 12.745 7.56992C12.3325 7.47617 11.5403 7.48555 11.1793 7.58867ZM12.6512 8.38555C13.045 8.50742 13.2934 8.66211 13.5981 8.98555C14.02 9.42617 14.2028 9.88086 14.2028 10.4996C14.2028 11.1277 13.9872 11.6434 13.5372 12.0746C13.0872 12.5105 12.6184 12.7027 11.9997 12.7027C11.3856 12.7027 10.9262 12.5199 10.4903 12.1027C10.0168 11.6527 9.79653 11.1418 9.79653 10.4996C9.79653 9.72617 10.1762 9.04648 10.8325 8.61992C11.334 8.30117 12.07 8.20273 12.6512 8.38555Z" fill="#AAA9AD"/>
<path d="M11.4047 9.09828C11.1188 9.21078 10.7859 9.51546 10.6359 9.8014C10.4766 10.1108 10.4578 10.7108 10.5938 11.0764C10.9641 12.0561 12.3234 12.328 13.0781 11.578C13.6406 11.0108 13.65 10.0123 13.1063 9.44984C12.7875 9.1264 12.5672 9.03265 12.0703 9.0139C11.7281 9.00453 11.6016 9.01859 11.4047 9.09828ZM12.3656 9.89046C12.975 10.2608 12.7125 11.203 12 11.203C11.6016 11.203 11.2969 10.8983 11.2969 10.4998C11.2969 10.2467 11.4234 10.0217 11.6344 9.89046C11.7281 9.83421 11.8734 9.79671 12 9.79671C12.1266 9.79671 12.2719 9.83421 12.3656 9.89046Z" fill="#AAA9AD"/>
</svg>
