<svg width="174" height="30" viewBox="0 0 174 30" fill="none" xmlns="http://www.w3.org/2000/svg">
<path d="M109.219 27.8905C109.219 27.8905 117.657 23.6717 117.657 17.3436V9.96069L109.219 6.79661L100.782 9.96069V17.3436C100.782 23.6717 109.219 27.8905 109.219 27.8905Z" stroke="#016DEA" stroke-width="1.405" stroke-linecap="round" stroke-linejoin="round"/>
<g clip-path="url(#clip0_1987_58702)">
<path d="M109.219 11.4546V21.1226" stroke="#016DEA" stroke-width="1.405" stroke-linecap="round" stroke-linejoin="round"/>
<path d="M111.414 13.2125H108.118C107.71 13.2125 107.319 13.3746 107.03 13.663C106.742 13.9515 106.58 14.3427 106.58 14.7506C106.58 15.1585 106.742 15.5498 107.03 15.8382C107.319 16.1267 107.71 16.2887 108.118 16.2887H110.315C110.723 16.2887 111.114 16.4508 111.403 16.7392C111.691 17.0277 111.853 17.4189 111.853 17.8268C111.853 18.2347 111.691 18.6259 111.403 18.9144C111.114 19.2028 110.723 19.3649 110.315 19.3649H106.58" stroke="#016DEA" stroke-width="1.405" stroke-linecap="round" stroke-linejoin="round"/>
</g>
<circle cx="121.874" cy="4.68753" r="4.68753" fill="#0ACD5E"/>
<g clip-path="url(#clip1_1987_58702)">
<path d="M123.713 3.52317L121.135 6.10131L119.963 4.92943" stroke="white" stroke-width="0.936667" stroke-linecap="round" stroke-linejoin="round"/>
</g>
<path d="M4.22065 8.90592H21.0958C22.2559 8.90592 23.2052 9.85515 23.2052 11.0153V23.6716C23.2052 24.8318 22.2559 25.781 21.0958 25.781H4.22065C3.06049 25.781 2.11126 24.8318 2.11126 23.6716V11.0153C2.11126 9.85515 3.06049 8.90592 4.22065 8.90592Z" stroke="#016DEA" stroke-width="1.405" stroke-linecap="round" stroke-linejoin="round"/>
<path d="M23.2052 11.0152L12.6582 18.3981L2.11126 11.0152" stroke="#016DEA" stroke-width="1.405" stroke-linecap="round" stroke-linejoin="round"/>
<circle cx="27.1881" cy="4.68753" r="4.68753" fill="#FA0101"/>
<g clip-path="url(#clip2_1987_58702)">
<path d="M28.5934 3.28175L25.7809 6.09426" stroke="white" stroke-width="0.936667" stroke-linecap="round" stroke-linejoin="round"/>
<path d="M25.7809 3.28175L28.5934 6.09426" stroke="white" stroke-width="0.936667" stroke-linecap="round" stroke-linejoin="round"/>
</g>
<path d="M73.824 22.5328V25.6968C73.8252 25.9906 73.765 26.2813 73.6473 26.5504C73.5296 26.8196 73.3571 27.0612 73.1406 27.2597C72.9242 27.4583 72.6686 27.6095 72.3904 27.7036C72.1121 27.7977 71.8173 27.8327 71.5247 27.8062C68.2793 27.4536 65.1618 26.3446 62.4227 24.5683C59.8744 22.949 57.7139 20.7885 56.0946 18.2401C54.3121 15.4887 53.2028 12.356 52.8567 9.09595C52.8303 8.80429 52.865 8.51034 52.9584 8.23281C53.0519 7.95528 53.2021 7.70026 53.3996 7.48397C53.597 7.26769 53.8373 7.09489 54.1052 6.97656C54.3731 6.85824 54.6626 6.79699 54.9555 6.79671H58.1196C58.6314 6.79168 59.1276 6.97293 59.5157 7.30669C59.9038 7.64046 60.1573 8.10395 60.229 8.61079C60.3625 9.62336 60.6102 10.6176 60.9672 11.5745C61.1092 11.952 61.1399 12.3622 61.0557 12.7567C60.9716 13.1511 60.7762 13.5131 60.4926 13.7999L59.1532 15.1393C60.6546 17.7798 62.8409 19.9661 65.4813 21.4675L66.8208 20.128C67.1076 19.8445 67.4696 19.6491 67.864 19.5649C68.2584 19.4808 68.6687 19.5115 69.0462 19.6534C70.0031 20.0105 70.9973 20.2582 72.0099 20.3917C72.5222 20.464 72.9901 20.7221 73.3246 21.1168C73.6591 21.5116 73.8368 22.0155 73.824 22.5328Z" stroke="#016DEA" stroke-width="1.405" stroke-linecap="round" stroke-linejoin="round"/>
<circle cx="73.1238" cy="4.68753" r="4.68753" fill="#0ACD5E"/>
<g clip-path="url(#clip3_1987_58702)">
<path d="M74.9622 3.52317L72.3841 6.10131L71.2122 4.92943" stroke="white" stroke-width="0.936667" stroke-linecap="round" stroke-linejoin="round"/>
</g>
<g clip-path="url(#clip4_1987_58702)">
<path d="M157.972 19.2187C158.561 19.2187 159.136 19.0442 159.625 18.7174C160.114 18.3906 160.495 17.9261 160.72 17.3826C160.945 16.8391 161.004 16.2411 160.889 15.6642C160.775 15.0872 160.491 14.5573 160.075 14.1413C159.66 13.7254 159.13 13.4421 158.553 13.3273C157.976 13.2126 157.378 13.2715 156.834 13.4966C156.291 13.7217 155.826 14.1029 155.499 14.592C155.173 15.0811 154.998 15.6562 154.998 16.2444C154.998 17.0332 155.311 17.7897 155.869 18.3475C156.427 18.9053 157.184 19.2187 157.972 19.2187ZM157.972 14.3952C158.338 14.3952 158.696 14.5036 159 14.7068C159.304 14.91 159.541 15.1988 159.681 15.5367C159.821 15.8747 159.857 16.2465 159.786 16.6052C159.715 16.9639 159.539 17.2934 159.28 17.552C159.021 17.8106 158.692 17.9868 158.333 18.0581C157.974 18.1295 157.603 18.0928 157.265 17.9529C156.927 17.8129 156.638 17.5759 156.435 17.2718C156.232 16.9677 156.123 16.6102 156.123 16.2444C156.123 15.754 156.318 15.2836 156.665 14.9368C157.012 14.59 157.482 14.3952 157.972 14.3952Z" fill="#016DEA"/>
<path d="M160.783 6.56224C160.783 6.18928 160.635 5.83159 160.372 5.56787C160.108 5.30414 159.75 5.15598 159.377 5.15598H156.565C156.192 5.15598 155.834 5.30414 155.57 5.56787C155.307 5.83159 155.158 6.18928 155.158 6.56224V11.4841H160.783V6.56224ZM159.377 10.0779H156.565V6.56224H159.377V10.0779Z" fill="#016DEA"/>
<path d="M163.594 24.8437V23.2265C163.596 23.0391 163.531 22.8571 163.411 22.7132C162.728 21.9531 161.887 21.3524 160.947 20.9538C160.006 20.5552 158.989 20.3685 157.968 20.407C156.946 20.3712 155.928 20.5611 154.988 20.9634C154.047 21.3657 153.207 21.9703 152.526 22.7343C152.407 22.8785 152.342 23.0603 152.343 23.2476V24.8437H153.468V23.3461C154.045 22.7397 154.746 22.2641 155.522 21.9511C156.298 21.6382 157.132 21.4953 157.968 21.532C158.805 21.4962 159.64 21.6402 160.416 21.9544C161.192 22.2685 161.892 22.7455 162.468 23.3531V24.8437H163.594Z" fill="#016DEA"/>
<path d="M165.001 7.96807H162.189V9.37433H165.001V26.2494H150.939V9.37433H153.751V7.96807H150.939C150.566 7.96807 150.208 8.11623 149.944 8.37995C149.68 8.64368 149.532 9.00137 149.532 9.37433V26.2494C149.532 26.6224 149.68 26.9801 149.944 27.2438C150.208 27.5075 150.566 27.6557 150.939 27.6557H165.001C165.374 27.6557 165.732 27.5075 165.996 27.2438C166.259 26.9801 166.407 26.6224 166.407 26.2494V9.37433C166.407 9.00137 166.259 8.64368 165.996 8.37995C165.732 8.11623 165.374 7.96807 165.001 7.96807Z" fill="#016DEA"/>
</g>
<circle cx="168.752" cy="4.68753" r="4.68753" fill="#0ACD5E"/>
<path d="M170.591 3.52317L168.013 6.10131L166.841 4.92943" stroke="white" stroke-width="0.936667" stroke-linecap="round" stroke-linejoin="round"/>
<defs>
<clipPath id="clip0_1987_58702">
<rect width="10.5375" height="10.5375" fill="white" transform="translate(103.945 11.0152) scale(1.0009)"/>
</clipPath>
<clipPath id="clip1_1987_58702">
<rect width="5.62" height="5.62" fill="white" transform="translate(119.025 2.11762) scale(1.0009)"/>
</clipPath>
<clipPath id="clip2_1987_58702">
<rect width="5.62" height="5.62" fill="white" transform="translate(24.3734 1.87521) scale(1.0009)"/>
</clipPath>
<clipPath id="clip3_1987_58702">
<rect width="5.62" height="5.62" fill="white" transform="translate(70.2738 2.11762) scale(1.0009)"/>
</clipPath>
<clipPath id="clip4_1987_58702">
<rect width="25.29" height="25.29" fill="white" transform="translate(145.314 3.74994) scale(1.0009)"/>
</clipPath>
</defs>
</svg>
