<svg width="39" height="39" viewBox="0 0 39 39" fill="none" xmlns="http://www.w3.org/2000/svg">
<path d="M31.1229 5.84428C27.0473 5.84428 23.5319 3.45409 21.8963 0H17.103C15.4675 3.45409 11.952 5.84428 7.87643 5.84428C6.35872 5.84428 4.91857 5.51248 3.62402 4.91828V24.4677C3.62402 32.4605 19.4997 39 19.4997 39C19.4997 39 35.3753 32.4605 35.3753 24.4677V4.91839C34.0807 5.51259 32.6406 5.84428 31.1229 5.84428Z" fill="#016DEA"/>
<path d="M31.1232 5.84428C27.0476 5.84428 23.5322 3.45409 21.8967 0H19.5V39C19.5 39 35.3756 32.4605 35.3756 24.4677V4.91839C34.081 5.51259 32.641 5.84428 31.1232 5.84428Z" fill="#00499E"/>
</svg>
