<svg width="20" height="22" viewBox="0 0 20 22" fill="none" xmlns="http://www.w3.org/2000/svg">
<path fill-rule="evenodd" clip-rule="evenodd" d="M6.39057 10.1479C5.78173 10.4307 5.70222 11.4775 5.55187 12.0774L5.42043 12.5816C5.37006 12.7315 5.31348 12.8891 5.28961 13.0517C5.23521 13.4181 5.24373 14.1223 5.71137 14.1223L5.83877 14.1082C5.97486 14.0012 6.04492 13.9901 6.1139 13.8092C6.17621 13.6435 6.16815 13.44 6.18055 13.2484C6.20054 13.0891 6.22038 12.9296 6.23991 12.7701C6.28812 12.452 6.34919 12.1381 6.40623 11.8249C6.45211 11.5685 6.54418 11.3228 6.58649 11.0634C6.62896 10.8006 6.78768 10.2115 6.39057 10.1479ZM8.28652 8.73854C8.19554 8.76846 8.10703 8.77993 8.03139 8.83619C7.93064 8.91059 7.87345 9.0273 7.81114 9.12743C7.72015 9.27313 7.63134 9.41992 7.54903 9.56872C7.52331 9.61413 7.48983 9.66916 7.44472 9.70093C7.36691 9.75471 7.26864 9.77889 7.21517 9.86833C7.11659 10.0317 7.08652 10.2168 7.05025 10.4145C6.99367 10.7211 6.9419 11.033 6.91633 11.3602C6.8968 11.6023 6.87649 12.3575 6.99693 12.5202C7.05474 12.5991 7.16836 12.6144 7.26802 12.6144C7.31731 12.5946 7.40644 12.6003 7.46596 12.6003C7.5526 12.547 7.64064 12.5073 7.69675 12.4112C7.74747 12.3241 7.78582 12.2303 7.81067 12.1326C7.88848 11.8212 7.91282 11.4856 7.95575 11.1616C7.97203 11.0071 7.98846 10.8524 8.00442 10.6976C8.01636 10.6416 8.04054 10.5443 8.09773 10.5179C8.17461 10.4818 8.29706 10.5426 8.38557 10.5426C8.42215 10.5263 8.45888 10.51 8.49515 10.4931C8.55746 10.4609 8.60876 10.3981 8.64689 10.3403C8.6796 10.2628 8.71277 10.1858 8.74547 10.1083C8.88296 9.70651 8.85289 9.31405 8.61016 8.97941C8.48864 8.8117 8.53498 8.77806 8.28652 8.73854ZM6.4473 7.68145C6.3836 7.71756 6.31478 7.74794 6.27494 7.81537C6.22007 7.90651 6.19977 8.01562 6.19093 8.13187C6.1683 8.41599 6.20907 8.6908 6.49504 8.79388C6.67639 8.85897 6.82441 8.67143 6.89432 8.54588C6.90052 8.53394 6.92439 8.51286 6.90005 8.51286C6.96422 8.27277 6.91416 7.82188 6.66662 7.70857C6.60726 7.68145 6.52201 7.68145 6.4473 7.68145ZM12.503 7.27271C12.4312 7.31022 12.3616 7.3482 12.3137 7.41888C12.1756 7.62162 12.1172 7.8876 12.0527 8.12722C11.98 8.39413 11.905 8.66709 11.8456 8.93802C11.7726 9.26833 11.7194 9.59522 11.6274 9.90878C11.5613 10.1312 11.4899 10.6447 11.7966 10.7187C11.9922 10.7655 12.2134 10.6505 12.3089 10.4942C12.4376 10.2816 12.449 9.98272 12.4935 9.72604C12.5374 9.472 12.6425 9.23407 12.677 8.98127C12.7006 8.78706 12.7246 8.59331 12.7479 8.39894C12.7972 8.15807 12.9791 7.96603 12.9343 7.68269C12.895 7.43562 12.7784 7.28155 12.503 7.27271ZM15.7993 5.65189C15.684 5.70397 15.563 5.7097 15.4639 5.79728C15.2626 5.97336 15.086 6.19376 14.9245 6.40022C14.8506 6.49136 14.7768 6.58266 14.7029 6.67333C14.6654 6.70805 14.5961 6.76525 14.5403 6.76525C14.5257 6.74355 14.498 6.71286 14.498 6.68062C14.4753 6.59924 14.4789 6.51725 14.4322 6.44812C14.2814 6.22306 13.9685 6.45974 13.884 6.62885C13.8087 6.77904 13.7833 6.95202 13.7245 7.11198L13.3742 8.26192C13.3548 8.4101 13.3355 8.55797 13.3155 8.70599C13.271 8.86269 13.2104 9.00452 13.1829 9.17548C13.149 9.38287 13.0727 9.90088 13.2563 10.0432C13.3166 10.0895 13.382 10.1035 13.4652 10.1049C13.7574 10.1094 13.9042 9.87453 13.9848 9.6394C14.1776 9.0721 14.342 8.49814 14.5866 7.95812C14.6984 7.70966 14.7873 7.52955 14.9871 7.32479C15.038 7.27194 15.0955 7.20451 15.1666 7.1856C15.2895 7.15259 15.3413 7.24993 15.3398 7.35703C15.3373 7.51327 15.2925 7.67726 15.2661 7.82296C15.2292 8.03732 15.1925 8.25246 15.1553 8.46683C15.1235 8.61563 15.06 8.83495 15.0676 8.99181C15.0715 9.08388 15.1042 9.17254 15.1569 9.2381C15.2178 9.31421 15.3545 9.36629 15.3478 9.48424C15.3363 9.67799 14.6488 10.0563 14.4835 10.1183C14.1739 10.2338 13.9068 10.4562 13.6425 10.6598C13.5123 10.7518 13.3827 10.8439 13.2528 10.9355C13.0546 11.0759 12.8336 11.1988 12.6201 11.3103C12.4751 11.4045 12.3301 11.4994 12.1851 11.5935C12.0663 11.6638 11.9481 11.7344 11.8293 11.8044C11.7156 11.8829 11.6013 11.9617 11.4873 12.0402C11.3806 12.1115 11.2941 12.2203 11.1821 12.2821C11.1666 12.29 11.0598 12.3218 11.0598 12.2905H11.0455C11.0455 12.1327 11.0795 11.9848 11.0945 11.8387L11.1039 11.4025C11.1148 11.2616 11.1264 11.1212 11.1376 10.9801C11.1667 10.6449 11.252 10.3191 11.3228 10.0058C11.3834 9.73456 11.4321 9.45402 11.4941 9.18881C11.5331 9.02095 11.7126 8.31539 11.4257 8.26703C11.2422 8.23572 11.021 8.35771 10.9214 8.50046C10.753 8.7387 10.6803 9.02591 10.5869 9.30041C10.4548 9.68652 10.293 10.0976 10.1088 10.4556C10.0583 10.5533 9.81667 11.0641 9.70135 11.0641C9.6175 10.9206 9.67624 10.6644 9.71654 10.5147C9.7198 10.5012 9.73979 10.4724 9.71561 10.4724C9.77653 10.3257 9.80799 10.1208 9.86007 9.96629C9.92734 9.76495 10.0348 9.56515 10.1338 9.37869C10.1805 9.29049 10.2576 9.1713 10.332 9.10031C10.3871 9.05613 10.4426 9.01227 10.4976 8.96809C10.6265 8.85016 10.7155 8.695 10.7522 8.52418C10.8065 8.27928 10.7405 7.77367 10.4505 7.74546C10.3824 7.73864 10.3072 7.76933 10.2525 7.79181C9.88224 7.94154 9.7494 8.38917 9.59797 8.70708C9.29293 9.34629 9.03238 10.0053 8.88776 10.7278C8.81987 11.066 8.81848 11.4242 8.78608 11.7806C8.7526 12.1454 8.73974 12.5986 9.00246 12.844C9.28022 13.1035 9.80226 12.6237 9.97818 12.4128C10.0154 12.3678 10.2135 12.0648 10.2533 12.0648V12.0509H10.2673V12.0791C10.3206 12.228 10.2835 12.4415 10.2815 12.6005C10.2779 12.8203 10.2307 13.1314 10.1296 13.2969C10.0579 13.4125 9.95044 13.4789 9.85263 13.5677C9.65671 13.7444 9.4425 13.8909 9.25852 14.0747C9.09097 14.2412 8.97968 14.4482 8.79306 14.597C8.65154 14.7094 8.46957 14.7548 8.31566 14.8415C8.21879 14.8957 8.15028 14.9821 8.0658 15.0561C8.01016 15.1 7.95498 15.144 7.89918 15.1882C7.69892 15.3575 7.64327 15.6283 7.43325 15.7926L7.21563 15.944C6.92253 16.1709 6.63516 16.4096 6.34252 16.637C6.10863 16.8176 5.87737 16.9953 5.65681 17.195C5.47313 17.3511 5.29023 17.507 5.10671 17.6625C5.05463 17.7091 5.0024 17.7558 4.9497 17.802C4.81221 17.9283 4.6752 18.0548 4.53771 18.1808C4.3714 18.3457 4.21841 18.5309 4.02745 18.6726C3.88238 18.7795 3.70382 18.8766 3.59377 19.0296C3.55486 19.0833 3.511 19.141 3.48496 19.2004C3.41908 19.3498 3.34344 19.7602 3.46636 19.8963C3.76845 20.2305 4.56282 19.2638 4.78277 19.0767C5.12841 18.7812 5.42834 18.43 5.76081 18.1196C6.36765 17.5498 6.96104 16.9659 7.54051 16.3684C7.6642 16.2407 7.81858 16.1731 7.95978 16.0799C8.10641 15.9821 8.22313 15.8412 8.33674 15.7089C8.39084 15.6546 8.44462 15.6011 8.49871 15.5467C8.69262 15.3742 8.88683 15.2015 9.08089 15.0284C9.18087 14.9566 9.28813 14.9139 9.38453 14.8345C9.41724 14.7923 9.4501 14.75 9.48218 14.7079C9.56278 14.6074 9.69314 14.4673 9.80939 14.4205C9.83419 14.4104 9.88813 14.4112 9.90905 14.4258C9.94687 14.4518 9.95664 14.5002 9.96144 14.546C9.95152 14.6539 9.94176 14.762 9.93153 14.8698C9.91029 15.208 9.88921 15.5466 9.86736 15.8849C9.87588 16.2126 9.84891 16.5708 9.84411 16.8994L9.84535 17.3928C9.84054 17.6975 9.8548 18.0304 9.86922 18.3372C9.88348 18.6391 9.88348 18.9428 9.90192 19.2386C9.91494 19.4126 9.92765 19.5866 9.94036 19.7605L9.92858 20.2257C9.92858 20.5191 9.96377 21.1506 10.1629 21.3139C10.2335 21.3721 10.3119 21.3883 10.4097 21.3826C10.5033 21.3764 10.5828 21.3553 10.6546 21.3116C11.11 21.0311 10.828 20.1082 10.7927 19.6613L10.6692 18.6884L10.5684 17.5614C10.5445 17.3129 10.5442 17.0549 10.5442 16.8013C10.5442 16.1463 10.5858 15.4725 10.6834 14.8567C10.7318 14.547 10.7902 14.1629 10.9138 13.8895C11.0261 13.6384 11.2546 13.4023 11.4778 13.231C11.5785 13.1662 11.6795 13.1016 11.7805 13.0364C11.9775 12.9107 12.1689 12.7474 12.3388 12.5788C12.4451 12.4725 12.531 12.3496 12.6497 12.255C12.8063 12.1291 12.9813 12.0577 13.1471 11.9566C13.2516 11.8928 13.3348 11.781 13.4353 11.7119C13.7037 11.5256 14.0111 11.3842 14.2935 11.2247L14.6604 10.9763C15.2456 10.6233 15.843 10.2911 16.4517 9.98039C16.8592 9.77161 17.2648 9.56593 17.705 9.42023C17.8842 9.34536 18.0634 9.27034 18.2418 9.19501C18.3356 9.14789 18.441 9.0814 18.547 9.05706C18.7246 9.01568 18.9291 9.09891 19.0799 9.13673C19.1489 9.15409 19.247 9.14727 19.3235 9.14727L19.5018 9.08124C19.5838 9.04652 19.6607 8.97863 19.7191 8.90857C19.7775 8.83759 19.8181 8.74118 19.8515 8.65577C19.9753 8.33368 20.1399 7.94448 19.7809 7.67633C19.7104 7.62348 19.6202 7.57496 19.5212 7.57062C19.2321 7.55698 18.9808 7.71462 18.7531 7.82839C18.6668 7.8583 18.5813 7.88837 18.4949 7.91767C18.3811 7.96789 18.2837 8.06615 18.1713 8.12118C18.0557 8.17667 17.9276 8.20612 17.8156 8.26827C17.6764 8.33957 17.537 8.41103 17.3978 8.48186C17.214 8.57564 16.9691 8.71312 16.7476 8.72862C16.6431 8.73513 16.4788 8.68057 16.4024 8.61811C16.2598 8.5 16.1151 8.34019 16.0755 8.15915C16.0171 7.89659 16.0913 7.59062 16.1304 7.34122L16.1707 6.89235C16.1843 6.71751 16.2194 6.53259 16.2256 6.34272C16.2307 6.17315 16.2358 5.97181 16.1544 5.83541C16.0749 5.70428 15.9604 5.65669 15.7993 5.65189ZM13.4788 4.59479C13.4176 4.65152 13.348 4.68593 13.3096 4.76343C13.2612 4.85938 13.2677 4.984 13.266 5.1018C13.2635 5.16256 13.2615 5.22332 13.2587 5.28408C13.2823 5.51704 13.434 5.63251 13.6758 5.58787C13.8448 5.55625 13.8651 5.35398 13.8941 5.21588C13.9153 5.11187 13.961 4.98415 13.9379 4.86387C13.9246 4.79645 13.8871 4.72437 13.8322 4.67973C13.7374 4.60239 13.6176 4.59479 13.4788 4.59479ZM8.78159 0C8.68921 0.0379748 8.58536 0.0782745 8.51685 0.158564C8.33643 0.367813 8.22421 0.617517 8.09339 0.85451C7.8595 1.27518 7.59383 1.69306 7.41961 2.14054C7.37311 2.24408 7.32677 2.34746 7.2798 2.451L7.16355 2.7517C7.09985 2.90096 7.06807 3.06433 7.00483 3.20941C6.94299 3.34984 6.8303 3.46175 6.75993 3.59427L6.48264 4.14654C6.42948 4.26589 6.37693 4.38508 6.32392 4.50412C6.24704 4.64904 6.15637 4.78839 6.08786 4.93672C5.9513 5.23138 5.85474 5.55021 5.74438 5.8585L5.49623 6.46021L5.22172 7.11291C4.96349 7.6551 4.77331 8.23991 4.55585 8.80426L4.39573 9.24554L3.98855 10.4159C3.70335 11.2373 3.53099 12.1033 3.25587 12.9263C3.19216 13.1157 3.13171 13.3078 3.08475 13.5029C3.04368 13.6717 3.02647 13.88 2.91363 14.0111C2.89023 14.0381 2.84373 14.0635 2.81025 14.0363C2.73554 13.9749 2.71027 12.8964 2.69431 12.6986C2.63107 11.9216 2.65494 11.0807 2.6678 10.3026C2.67788 9.64854 2.66563 8.9712 2.6554 8.31539L2.6413 7.82203C2.6413 7.49436 2.65184 6.56189 2.3003 6.50376C1.92195 6.44083 1.65535 7.322 1.55754 7.56256C1.4509 7.8242 1.41959 8.12846 1.34767 8.40994C1.28784 8.64027 1.20662 8.85696 1.12091 9.07148C0.847647 9.75068 0.410395 10.347 0.154336 11.0358C0.100861 11.1793 0.0407216 11.3338 0.0149918 11.4873C-0.018953 11.6846 -0.00577814 12.1061 0.166271 12.2163C0.29368 12.2975 0.479369 12.273 0.586318 12.1743C0.686293 12.0813 0.745503 11.8221 0.811377 11.6911C0.870587 11.5668 0.929797 11.4431 0.988696 11.319C1.06558 11.1551 1.17036 11.0015 1.2446 10.8332C1.33605 10.6255 1.36798 10.3866 1.45633 10.1776C1.49446 10.1097 1.53243 10.0419 1.57041 9.97357C1.62388 9.86058 1.67736 9.74728 1.73083 9.63351C1.73889 9.61987 1.7578 9.59786 1.77811 9.59786V9.61196C1.82507 9.70574 1.83732 9.82648 1.85158 9.9356C1.87421 10.1095 1.89792 10.2843 1.90676 10.4713C1.93559 11.09 1.94799 11.7221 1.94799 12.3603C1.94799 12.9328 1.97945 13.506 2.05215 14.0507L2.14251 14.6434C2.19552 15.1205 2.19552 15.6129 2.24202 16.0951C2.27953 16.4567 2.31704 16.8188 2.35486 17.1804C2.37904 17.4002 2.35796 17.7733 2.48521 17.9269C2.57666 18.0376 2.70934 18.0261 2.85349 18.0261C2.94401 17.9632 3.00818 17.967 3.08335 17.8635C3.2165 17.6794 3.18596 17.4182 3.19387 17.1663C3.2027 16.8734 3.21061 16.5679 3.23851 16.2783C3.29012 15.7343 3.36545 15.2031 3.48 14.6863C3.52464 14.4837 3.60462 14.2926 3.65143 14.0913C3.6722 13.9698 3.69343 13.8482 3.7142 13.7266C3.71994 13.5948 3.71281 13.4535 3.73544 13.3333C3.7807 13.087 3.89292 12.8761 3.98126 12.6541C4.00963 12.5814 4.0087 12.4894 4.01877 12.4044C4.03784 12.315 4.05737 12.2262 4.07628 12.1366C4.16866 11.8071 4.26119 11.4777 4.35311 11.1477C4.35791 11.1261 4.41449 10.9786 4.39558 10.9786C4.44688 10.8715 4.46223 10.7433 4.50082 10.6289L4.75409 9.782L5.39083 7.76701C5.49615 7.46272 5.60124 7.15835 5.7061 6.85391C5.97083 6.26367 6.27649 5.67669 6.53643 5.08289C6.64648 4.83008 6.73808 4.5641 6.81945 4.29456C6.86952 4.12716 6.88223 3.97495 6.9574 3.81949C7.02715 3.67363 7.16433 3.578 7.25981 3.44687C7.40969 3.23948 7.56887 3.03984 7.68512 2.81432C7.88771 2.42016 7.99016 1.92276 8.42788 1.7053C8.47484 1.68159 8.51731 1.64315 8.5725 1.63431C8.73431 1.60688 8.79926 1.93857 8.87583 2.03467C8.90543 2.07156 8.95178 2.09807 8.99254 2.11481C9.06772 2.14565 9.15126 2.11341 9.23434 2.11341C9.31045 2.05358 9.37539 2.00863 9.41259 1.91393C9.56294 1.52798 9.41305 0.512737 9.19823 0.216379C9.09345 0.0726946 8.96743 0.0119349 8.78159 0Z" fill="white"/>
</svg>
