<svg width="24" height="24" viewBox="0 0 24 24" fill="none" xmlns="http://www.w3.org/2000/svg">
<g clip-path="url(#clip0_2419_66604)">
<path d="M10.1406 2.29688C9.96875 2.46875 9.79688 2.9375 9.73438 3.35938C9.57812 4.51562 9.51562 4.625 9 4.79688C8.5625 4.95312 8.4375 4.92188 7.71875 4.42188C6.5 3.57812 6.07812 3.65625 4.85938 4.85938C3.65625 6.07812 3.57812 6.5 4.42188 7.71875C4.92188 8.4375 4.95312 8.5625 4.79688 9C4.625 9.51562 4.51562 9.57812 3.35938 9.73438C2.15625 9.89062 2 10.1562 2 12C2 13.8438 2.15625 14.1094 3.35938 14.2656C4.51562 14.4219 4.625 14.4844 4.79688 15C4.95312 15.4375 4.92188 15.5625 4.42188 16.2812C3.57812 17.5 3.65625 17.9219 4.85938 19.1406C6.07812 20.3438 6.5 20.4219 7.71875 19.5781C8.4375 19.0781 8.5625 19.0469 9 19.2031C9.51562 19.375 9.57812 19.4844 9.73438 20.6406C9.89062 21.8438 10.1562 22 12 22C13.8438 22 14.1094 21.8438 14.2656 20.6406C14.4219 19.4844 14.4844 19.375 15 19.2031C15.4375 19.0469 15.5625 19.0781 16.2812 19.5781C17.5 20.4219 17.9219 20.3438 19.1406 19.1406C20.3438 17.9219 20.4219 17.5 19.5781 16.2812C19.0781 15.5625 19.0469 15.4375 19.2031 15C19.375 14.4844 19.4844 14.4219 20.6406 14.2656C21.8438 14.1094 22 13.8438 22 12C22 10.1562 21.8438 9.89062 20.6406 9.73438C19.4844 9.57812 19.375 9.51562 19.2031 9C19.0469 8.5625 19.0781 8.4375 19.5781 7.71875C20.4219 6.5 20.3438 6.07812 19.1406 4.85938C17.9219 3.65625 17.5 3.57812 16.2812 4.42188C15.5625 4.92188 15.4375 4.95312 15 4.79688C14.4844 4.625 14.4219 4.51562 14.2656 3.35938C14.1094 2.15625 13.8438 2 12 2C10.6719 2 10.3906 2.04688 10.1406 2.29688ZM13.5625 8.26562C14.4219 8.65625 15.2031 9.375 15.6406 10.2031C16.0938 11.0312 16.1094 12.9062 15.6875 13.7188C15.2812 14.4844 14.5312 15.25 13.7969 15.6406C12.9219 16.1094 11.0781 16.1094 10.2031 15.6406C9.46875 15.25 8.71875 14.4844 8.3125 13.7188C7.89062 12.9062 7.90625 11.0312 8.35938 10.2031C9.39062 8.28125 11.7031 7.42188 13.5625 8.26562Z" fill="white"/>
</g>
<defs>
<clipPath id="clip0_2419_66604">
<rect width="20" height="20" fill="white" transform="translate(2 2)"/>
</clipPath>
</defs>
</svg>
