<svg width="20" height="20" viewBox="0 0 20 20" fill="none" xmlns="http://www.w3.org/2000/svg">
<g clip-path="url(#clip0_2187_61875)">
<path d="M1.86882 11.9699C1.68554 11.7929 1.53651 11.5703 1.43681 11.3067C1.33712 11.0432 1.27218 10.7641 1.25184 10.4591C1.21783 9.94418 1.28476 9.47753 1.45738 9.04408C1.62508 8.61572 1.87845 8.2209 2.22259 7.86454C2.72405 7.34526 3.3821 6.90834 4.19692 6.56378C5.01174 6.21923 5.91311 5.95824 6.89611 5.78593C7.9 5.61225 8.91551 5.51422 9.93409 5.49265C10.9495 5.47831 11.9645 5.54091 12.9704 5.6799C13.9539 5.82289 14.8588 6.04735 15.67 6.35852C16.4864 6.6746 17.1593 7.08829 17.6887 7.59958C18.0349 7.93388 18.3068 8.31453 18.4943 8.73169C18.6868 9.15376 18.7851 9.62252 18.7791 10.1382C18.7852 10.7737 18.5989 11.2825 18.2351 11.6592C18.0974 11.8017 17.9292 11.9148 17.7452 11.9831C17.5563 12.0564 17.3516 12.085 17.1307 12.0488L14.3254 11.6223C14.1097 11.5911 13.9287 11.5442 13.7724 11.4818C13.6213 11.4244 13.4898 11.3466 13.3931 11.2532C13.2709 11.1352 13.1831 10.9816 13.1348 10.7972C13.0817 10.618 13.0529 10.4033 13.0487 10.1631L13.0202 9.38781C13.0182 9.27773 12.9766 9.18836 12.8952 9.1097C12.8544 9.07037 12.8139 9.04105 12.7633 9.0119C12.7079 8.98785 12.6626 8.97362 12.6222 8.95431C12.3657 8.88371 11.9944 8.83013 11.5133 8.79848C11.0274 8.77193 10.5216 8.75573 9.99612 8.7599C9.46083 8.77425 8.95573 8.79808 8.46608 8.84667C7.98643 8.89508 7.62231 8.9665 7.36352 9.0511C7.32876 9.06672 7.28399 9.08252 7.2343 9.10341C7.1797 9.12939 7.13528 9.1652 7.09103 9.21102C7.00745 9.29756 6.97409 9.39324 6.97601 9.50332L6.98419 10.2589C6.98856 10.5091 6.9673 10.7247 6.91532 10.9008C6.87351 11.0867 6.79608 11.2382 6.67317 11.3655C6.57976 11.4622 6.46108 11.5444 6.3071 11.6121C6.15312 11.6799 5.97387 11.7331 5.76442 11.7768L2.94078 12.3065C2.72132 12.3504 2.52592 12.3388 2.34457 12.2719C2.16813 12.1999 2.01136 12.1075 1.86882 11.9699V11.9699Z" stroke="#FA0101" stroke-width="1.5" stroke-miterlimit="10"/>
<path d="M9.52897 14.0015L8.35757 12.8314L7.18617 14.0015M8.35757 18.4932V12.8314M10.5051 17.3231L11.6765 18.4932L12.8479 17.3231M11.6765 12.8314V18.4932" stroke="#FA0101" stroke-width="1.5" stroke-linecap="round" stroke-linejoin="round"/>
</g>
<defs>
<clipPath id="clip0_2187_61875">
<rect width="20.0005" height="20" fill="white"/>
</clipPath>
</defs>
</svg>
