<svg width="170" height="20" viewBox="0 0 170 20" fill="none" xmlns="http://www.w3.org/2000/svg">
<circle cx="160" cy="10" r="10" fill="#016DEA"/>
<g clip-path="url(#clip0_2435_67751)">
<path d="M166.687 4.31221C166.429 4.07636 166.063 3.99777 165.732 4.10705L151.663 8.74458C151.28 8.87096 151.02 9.21321 151.001 9.61642C150.982 10.0197 151.209 10.3848 151.579 10.5467L155.058 12.0689C155.075 12.1477 156.074 16.7801 156.108 16.9375C156.151 17.1398 156.254 17.3199 156.471 17.3753C156.691 17.4314 156.847 17.3111 157.011 17.1883C157.102 17.1199 159.593 15.255 159.593 15.255L162.611 17.725C162.787 17.8689 163.002 17.944 163.221 17.944C163.325 17.9439 163.431 17.9269 163.533 17.8922C163.851 17.7845 164.086 17.5252 164.163 17.1986L166.974 5.24546C167.054 4.90561 166.944 4.54805 166.687 4.31221ZM157.236 12.9412C157.234 12.9453 157.232 12.9499 157.231 12.9554L156.649 14.9887L155.999 11.9764L160.465 9.49499L157.343 12.7599C157.294 12.8114 157.258 12.8735 157.236 12.9412ZM157.42 15.7076L157.685 14.784L157.938 13.9006L158.844 14.642L157.42 15.7076ZM166.06 5.03027L163.248 16.9835C163.247 16.9894 163.245 16.9976 163.231 17.0022C163.218 17.0069 163.211 17.0016 163.206 16.9977L159.903 14.295C159.903 14.2949 159.903 14.2948 159.903 14.2947L158.373 13.0425L163.289 7.90192C163.45 7.73402 163.464 7.47399 163.322 7.29008C163.18 7.10614 162.924 7.05361 162.721 7.16649L155.442 11.2111L151.955 9.68574C151.945 9.68111 151.939 9.67852 151.94 9.66055C151.941 9.64264 151.947 9.64061 151.958 9.63699L166.026 4.99949C166.033 4.99727 166.041 4.99471 166.052 5.00502C166.063 5.01539 166.061 5.02327 166.06 5.03027Z" fill="white"/>
</g>
<path d="M136.274 8.51629V7.05469C136.274 6.73109 136.011 6.46875 135.688 6.46875C135.364 6.46875 135.102 6.73109 135.102 7.05469V8.51629C135.102 11.3296 132.813 13.6185 130 13.6185C127.186 13.6185 124.897 11.3296 124.897 8.51629V7.05469C124.897 6.73109 124.635 6.46875 124.312 6.46875C123.988 6.46875 123.726 6.73109 123.726 7.05469V8.51629C123.726 11.7782 126.228 14.4663 129.414 14.7628V16.4173H127.187C125.794 16.4173 124.66 17.5511 124.66 18.9447C124.66 19.5262 125.133 19.9994 125.715 19.9994H134.285C134.866 19.9994 135.339 19.5262 135.339 18.9447C135.339 17.5511 134.206 16.4173 132.812 16.4173H130.586V14.7627C133.771 14.4663 136.274 11.7782 136.274 8.51629ZM134.163 18.8275H125.837C125.896 18.1347 126.479 17.5892 127.187 17.5892H132.812C133.52 17.5892 134.103 18.1347 134.163 18.8275Z" fill="#8D879F"/>
<path d="M130 12.4472C132.167 12.4472 133.93 10.6841 133.93 8.51691V3.93031C133.93 1.76312 132.167 0 130 0C127.832 0 126.069 1.76312 126.069 3.93031V8.51688C126.069 10.6841 127.832 12.4472 130 12.4472ZM130 1.17188C131.32 1.17188 132.425 2.10398 132.695 3.34437H131.343C131.019 3.34437 130.757 3.60672 130.757 3.93031C130.757 4.25391 131.019 4.51625 131.343 4.51625H132.758V5.68812H131.343C131.019 5.68812 130.757 5.95047 130.757 6.27406C130.757 6.59766 131.019 6.86 131.343 6.86H132.758V8.03187H131.343C131.019 8.03187 130.757 8.29422 130.757 8.61781C130.757 8.94141 131.019 9.20375 131.343 9.20375H132.672C132.365 10.3936 131.284 11.2754 130 11.2754C128.716 11.2754 127.634 10.3936 127.328 9.20375H128.617C128.94 9.20375 129.203 8.94141 129.203 8.61781C129.203 8.29422 128.94 8.03187 128.617 8.03187H127.241V6.86H128.617C128.94 6.86 129.203 6.59766 129.203 6.27406C129.203 5.95047 128.94 5.68812 128.617 5.68812H127.241V4.51625H128.617C128.94 4.51625 129.203 4.25391 129.203 3.93031C129.203 3.60672 128.94 3.34437 128.617 3.34437H127.304C127.574 2.10398 128.68 1.17188 130 1.17188Z" fill="#8D879F"/>
<g clip-path="url(#clip1_2435_67751)">
<path d="M109.414 0.15625H95.3604C95.0368 0.15625 94.7745 0.418549 94.7745 0.742188V2.62543H92.8795C92.5558 2.62543 92.2935 2.88773 92.2935 3.21136V5.09445H90.5859C90.2623 5.09445 90 5.35675 90 5.68039V19.2702C90 19.5938 90.2623 19.8561 90.5859 19.8561H104.64C104.963 19.8561 105.226 19.5938 105.226 19.2702V17.3869H106.933C107.257 17.3869 107.519 17.1246 107.519 16.801V14.9179H109.414C109.738 14.9179 110 14.6556 110 14.332V0.742188C110 0.418549 109.738 0.15625 109.414 0.15625V0.15625ZM95.9464 1.32812H108.828V9.95407L103.56 5.39749C103.436 5.29068 103.274 5.24017 103.112 5.25833C102.95 5.27634 102.802 5.36118 102.705 5.49255L96.6083 13.746H95.9464V1.32812ZM104.054 18.6842H91.1719V6.26633H92.2935V16.801C92.2935 17.1246 92.5558 17.3869 92.8795 17.3869H104.054V18.6842ZM106.347 16.2151H93.4654V3.7973H94.7745V14.332C94.7745 14.6556 95.0368 14.9179 95.3604 14.9179H106.347V16.2151ZM98.0652 13.746L103.272 6.69769L108.828 11.5034V13.746H98.0652Z" fill="#8D879F"/>
<path d="M99.109 6.42459C100.257 6.42459 101.192 5.4935 101.192 4.34909C101.192 3.20453 100.257 2.27344 99.109 2.27344C97.9607 2.27344 97.0264 3.20453 97.0264 4.34909C97.0264 5.4935 97.9607 6.42459 99.109 6.42459ZM99.109 3.44531C99.6114 3.44531 100.02 3.85074 100.02 4.34909C100.02 4.84729 99.6114 5.25272 99.109 5.25272C98.6069 5.25272 98.1982 4.84729 98.1982 4.34909C98.1982 3.85074 98.6069 3.44531 99.109 3.44531Z" fill="#8D879F"/>
</g>
<g clip-path="url(#clip2_2435_67751)">
<path d="M68.8281 19.9999C73.6744 19.9999 77.6171 16.0397 77.6171 11.1718C77.6171 6.3144 73.6862 2.38281 68.8281 2.38281C63.9603 2.38281 60 6.32557 60 11.1718C60 16.0304 63.97 19.9999 68.8281 19.9999ZM68.8281 3.55468C73.0282 3.55468 76.4452 6.97174 76.4452 11.1718C76.4452 15.3935 73.0282 18.8281 68.8281 18.8281C64.6064 18.8281 61.1719 15.3935 61.1719 11.1718C61.1719 6.97174 64.6064 3.55468 68.8281 3.55468Z" fill="#8D879F"/>
<path d="M68.8281 16.4453C71.7319 16.4453 74.1015 14.0837 74.1015 11.1719C74.1015 10.8483 73.8392 10.5859 73.5156 10.5859H64.1406C63.817 10.5859 63.5547 10.8483 63.5547 11.1719C63.5547 14.085 65.9255 16.4453 68.8281 16.4453ZM66.9237 14.8036C67.4487 14.3521 68.1161 14.1015 68.8281 14.1015C69.5401 14.1015 70.2076 14.3521 70.7325 14.8036C70.1631 15.1035 69.5151 15.2734 68.8281 15.2734C68.1411 15.2734 67.4931 15.1035 66.9237 14.8036ZM72.8879 11.7578C72.7571 12.6688 72.3256 13.4839 71.6977 14.0994C70.9361 13.3498 69.9194 12.9297 68.8281 12.9297C67.7369 12.9297 66.7201 13.3498 65.9586 14.0994C65.3307 13.4839 64.8992 12.6687 64.7684 11.7578H72.8879Z" fill="#8D879F"/>
<path d="M74.9922 2.3279L75.2653 0.68192C75.3183 0.362662 75.1024 0.0609429 74.7831 0.00797417C74.4639 -0.0449165 74.1622 0.170865 74.1092 0.490123L73.8361 2.1361C73.7831 2.45536 73.999 2.75708 74.3183 2.81004C74.6381 2.86301 74.9393 2.64665 74.9922 2.3279Z" fill="#8D879F"/>
<path d="M77.1896 5.68158C77.2425 6.00013 77.5436 6.21673 77.8636 6.16372L79.5096 5.89064C79.8288 5.83767 80.0447 5.53595 79.9917 5.21669C79.9387 4.89747 79.637 4.68162 79.3178 4.73455L77.6718 5.00763C77.3525 5.0606 77.1367 5.36232 77.1896 5.68158Z" fill="#8D879F"/>
<path d="M77.5245 1.6482L75.8679 3.3048C75.6391 3.53359 75.6391 3.9046 75.8679 4.13343C76.0967 4.36226 76.4677 4.3623 76.6965 4.13343L78.3531 2.47683C78.582 2.24804 78.582 1.87703 78.3531 1.6482C78.1243 1.41937 77.7533 1.41933 77.5245 1.6482Z" fill="#8D879F"/>
<path d="M64.7266 8.82812C65.0502 8.82812 65.3125 8.56578 65.3125 8.24219C65.3125 7.9191 65.5754 7.65625 65.8984 7.65625C66.2215 7.65625 66.4844 7.9191 66.4844 8.24219C66.4844 8.56578 66.7467 8.82812 67.0703 8.82812C67.3939 8.82812 67.6562 8.56578 67.6562 8.24219C67.6562 7.27293 66.8677 6.48438 65.8984 6.48438C64.9292 6.48438 64.1406 7.27293 64.1406 8.24219C64.1406 8.56578 64.403 8.82812 64.7266 8.82812Z" fill="#8D879F"/>
<path d="M70.5859 8.82812C70.9095 8.82812 71.1719 8.56578 71.1719 8.24219C71.1719 7.9191 71.4347 7.65625 71.7578 7.65625C72.0809 7.65625 72.3438 7.9191 72.3438 8.24219C72.3438 8.56578 72.6061 8.82812 72.9297 8.82812C73.2533 8.82812 73.5156 8.56578 73.5156 8.24219C73.5156 7.27293 72.7271 6.48438 71.7578 6.48438C70.7886 6.48438 70 7.27293 70 8.24219C70 8.56578 70.2623 8.82812 70.5859 8.82812Z" fill="#8D879F"/>
</g>
<g clip-path="url(#clip3_2435_67751)">
<path d="M50 10C50 4.49379 45.5059 0 40 0C34.4938 0 30 4.4941 30 10C30 15.5062 34.4941 20 40 20C40.1273 20 40.2512 19.9585 40.3528 19.8819L49.3554 13.0927C49.542 12.9518 49.5824 12.7327 49.565 12.7891C49.622 12.5378 50 11.4202 50 10ZM31.1719 10C31.1719 5.13215 35.1321 1.17188 40 1.17188C44.8679 1.17188 48.8281 5.13215 48.8281 10C48.8281 10.6023 48.7479 11.2339 48.5843 11.9173C48.1983 11.8371 47.8059 11.7869 47.4102 11.7673C47.5477 11.191 47.6172 10.5994 47.6172 10C47.6172 5.79988 44.2001 2.38281 40 2.38281C35.7999 2.38281 32.3828 5.79988 32.3828 10C32.3828 14.0732 35.5965 17.4098 39.6215 17.6077C39.5285 17.9977 39.4654 18.3991 39.4351 18.8096C34.8297 18.5171 31.1719 14.6779 31.1719 10ZM40 16.4453C36.4461 16.4453 33.5547 13.5539 33.5547 10C33.5547 6.44605 36.4461 3.55469 40 3.55469C43.5539 3.55469 46.4453 6.44605 46.4453 10C46.4453 10.6154 46.3587 11.2207 46.188 11.8047C43.3916 12.1141 41.0469 13.943 40.0004 16.4453C40.0002 16.4453 40.0001 16.4453 40 16.4453ZM47.0312 12.9297C47.2189 12.9297 47.4059 12.9387 47.5919 12.9549L40.7032 18.1498C41.2771 15.1798 43.8961 12.9297 47.0312 12.9297Z" fill="#8D879F"/>
<path d="M42.32 13.1921C42.4995 13.0617 42.59 12.841 42.5536 12.622L42.2384 10.7254L43.6078 9.37676C43.7659 9.22102 43.8225 8.9893 43.7539 8.7782C43.6852 8.56711 43.5033 8.41289 43.2838 8.37988L41.3829 8.09387L40.5238 6.3748C40.4246 6.17625 40.2217 6.05078 39.9997 6.05078C39.7777 6.05078 39.5748 6.17621 39.4756 6.3748L38.6165 8.09387L36.7156 8.37988C36.4961 8.41289 36.3141 8.56711 36.2455 8.7782C36.1769 8.9893 36.2335 9.22102 36.3916 9.37676L37.761 10.7254L37.4458 12.622C37.4094 12.841 37.4999 13.0617 37.6794 13.1921C37.859 13.3226 38.0968 13.3404 38.2938 13.2381L39.9998 12.3523L41.7056 13.2381C41.9034 13.3408 42.1412 13.322 42.32 13.1921ZM40.2698 11.1721C40.1006 11.0842 39.8991 11.0842 39.7298 11.1721L38.7941 11.658L38.967 10.6175C38.9983 10.4293 38.9361 10.2378 38.8002 10.1039L38.0492 9.3643L39.0919 9.20738C39.2806 9.17898 39.4436 9.06055 39.5289 8.88988L39.9998 7.9475L40.4707 8.88988C40.556 9.06055 40.719 9.17898 40.9077 9.20738L41.9504 9.3643L41.1994 10.1039C41.0635 10.2378 41.0013 10.4293 41.0325 10.6175L41.2055 11.658L40.2698 11.1721Z" fill="#8D879F"/>
</g>
<path d="M16.2021 1.75H3.79793C1.70375 1.75 0 3.45379 0 5.54801V14.4549C0 16.5491 1.70375 18.2529 3.79793 18.2529H16.202C18.2962 18.2529 20 16.5491 20 14.4549V5.54801C20 3.45379 18.2963 1.75 16.2021 1.75ZM18.7805 14.4549C18.7805 15.8767 17.6238 17.0334 16.202 17.0334H3.79793C2.37617 17.0334 1.21945 15.8767 1.21945 14.4549V5.54801C1.21945 4.12621 2.37617 2.96949 3.79793 2.96949H16.202C17.6238 2.96949 18.7805 4.12621 18.7805 5.54801V14.4549Z" fill="#8D879F"/>
<path d="M8.70664 9.39125H7.20719C6.87043 9.39125 6.59746 9.66426 6.59746 10.001C6.59746 10.3377 6.87047 10.6107 7.20719 10.6107H8.04266C7.82727 11.8 6.99598 12.6888 6.00633 12.6888C4.85359 12.6888 3.91574 11.483 3.91574 10.001C3.91574 8.51895 4.85355 7.3132 6.00633 7.3132C6.57812 7.3132 7.11359 7.60863 7.51398 8.14508C7.71539 8.41496 8.09746 8.47043 8.36734 8.26902C8.63723 8.06766 8.6927 7.68555 8.49129 7.4157C7.86426 6.57555 6.95852 6.09375 6.00637 6.09375C5.09887 6.09375 4.25324 6.51609 3.6252 7.28301C3.02617 8.01445 2.69629 8.97977 2.69629 10.001C2.69629 11.0222 3.02621 11.9875 3.6252 12.7189C4.25324 13.4859 5.09887 13.9082 6.00637 13.9082C6.91387 13.9082 7.75949 13.4859 8.38754 12.7189C8.98656 11.9875 9.31645 11.0222 9.31645 10.001C9.31641 9.66426 9.0434 9.39125 8.70664 9.39125Z" fill="#8D879F"/>
<path d="M11.1908 6.09375C10.854 6.09375 10.5811 6.36676 10.5811 6.70348V13.2985C10.5811 13.6352 10.8541 13.9082 11.1908 13.9082C11.5275 13.9082 11.8005 13.6352 11.8005 13.2985V6.70348C11.8005 6.36676 11.5275 6.09375 11.1908 6.09375Z" fill="#8D879F"/>
<path d="M16.6935 8.6123H14.2849V7.3132H16.6935C17.0302 7.3132 17.3032 7.0402 17.3032 6.70348C17.3032 6.36672 17.0302 6.09375 16.6935 6.09375H13.6752C13.3384 6.09375 13.0654 6.36676 13.0654 6.70348V13.2985C13.0654 13.6352 13.3384 13.9082 13.6752 13.9082C14.0119 13.9082 14.2849 13.6352 14.2849 13.2985V9.83184H16.6935C17.0302 9.83184 17.3032 9.55883 17.3032 9.22211C17.3032 8.88531 17.0302 8.6123 16.6935 8.6123Z" fill="#8D879F"/>
<defs>
<clipPath id="clip0_2435_67751">
<rect width="16" height="16" fill="white" transform="translate(151 3)"/>
</clipPath>
<clipPath id="clip1_2435_67751">
<rect width="20" height="20" fill="white" transform="translate(90)"/>
</clipPath>
<clipPath id="clip2_2435_67751">
<rect width="20" height="20" fill="white" transform="translate(60)"/>
</clipPath>
<clipPath id="clip3_2435_67751">
<rect width="20" height="20" fill="white" transform="translate(30)"/>
</clipPath>
</defs>
</svg>
