<svg width="12" height="12" viewBox="0 0 12 12" fill="none" xmlns="http://www.w3.org/2000/svg">
<g clip-path="url(#clip0_1072_24596)">
<path d="M3.27203 11.4548H1.63569C1.34637 11.4548 1.06889 11.3398 0.864311 11.1353C0.659728 10.9307 0.544795 10.6532 0.544795 10.3639V6.54575C0.544795 6.25642 0.659728 5.97895 0.864311 5.77437C1.06889 5.56979 1.34637 5.45485 1.63569 5.45485H3.27203M7.09016 4.36396V2.18217C7.09016 1.74819 6.91776 1.33198 6.61088 1.0251C6.30401 0.718231 5.8878 0.545831 5.45382 0.545831L3.27203 5.45485V11.4548H9.42467C9.68775 11.4577 9.94305 11.3655 10.1435 11.1951C10.344 11.0247 10.4761 10.7876 10.5156 10.5275L11.2683 5.61849C11.292 5.46214 11.2815 5.3025 11.2374 5.15063C11.1933 4.99876 11.1167 4.85829 11.0129 4.73896C10.9092 4.61963 10.7807 4.52428 10.6364 4.45953C10.4921 4.39478 10.3355 4.36217 10.1774 4.36396H7.09016Z" stroke="white" stroke-width="0.514286" stroke-linecap="round" stroke-linejoin="round"/>
</g>
<defs>
<clipPath id="clip0_1072_24596">
<rect width="11.3143" height="11.3143" fill="white" transform="scale(1.06059)"/>
</clipPath>
</defs>
</svg>
