<svg width="16" height="16" viewBox="0 0 16 16" fill="none" xmlns="http://www.w3.org/2000/svg">
<path d="M12.8924 0C12.718 0 12.576 0.140143 12.5737 0.314549C12.5672 0.806564 12.1617 1.20685 11.6697 1.20685C11.1777 1.20685 10.7721 0.806564 10.7657 0.314549C10.7634 0.140143 10.6205 0 10.4461 0C10.2717 0 10.1297 0.140175 10.1274 0.314581C10.121 0.806564 9.71542 1.20685 9.22341 1.20685C8.73139 1.20685 8.32585 0.806564 8.31938 0.314549C8.31708 0.140143 8.17429 0 7.99989 0C7.82548 0 7.68346 0.140143 7.6812 0.314549C7.67473 0.806564 7.26918 1.20685 6.77717 1.20685C6.28515 1.20685 5.87961 0.806564 5.87314 0.314549C5.87084 0.140143 5.72802 0 5.55361 0C5.37921 0 5.23719 0.140143 5.23495 0.314549C5.22848 0.806564 4.82297 1.20685 4.33092 1.20685C3.83888 1.20685 3.43336 0.806564 3.42689 0.314549C3.4246 0.140143 3.28219 0 3.10779 0C2.93176 0 2.78906 0.142693 2.78906 0.318724V15.6813C2.78906 15.8573 2.93217 16 3.1082 16C3.28261 16 3.4246 15.8598 3.42689 15.6855C3.43336 15.1934 3.83888 14.7931 4.33092 14.7931C4.82297 14.7931 5.22848 15.1934 5.23495 15.6855C5.23725 15.8599 5.38007 16 5.55448 16C5.72888 16 5.87087 15.8598 5.87317 15.6855C5.87964 15.1934 6.28518 14.7931 6.7772 14.7931C7.26921 14.7931 7.67476 15.1934 7.68123 15.6855C7.68349 15.8599 7.82631 16 8.00072 16C8.17512 16 8.31711 15.8598 8.31941 15.6855C8.32588 15.1934 8.73143 14.7931 9.22344 14.7931C9.71546 14.7931 10.121 15.1934 10.1274 15.6854C10.1297 15.8598 10.2726 16 10.447 16C10.6214 16 10.7634 15.8598 10.7657 15.6854C10.7721 15.1934 11.1776 14.7931 11.6697 14.7931C12.1617 14.7931 12.5672 15.1934 12.5737 15.6854C12.576 15.8598 12.7184 16 12.8928 16C13.0688 16 13.2115 15.8573 13.2115 15.6812V0.318724C13.2115 0.142693 13.0684 0 12.8924 0ZM12.5741 14.4515C12.3193 14.2656 12.0064 14.1557 11.6697 14.1557C11.1737 14.1557 10.7293 14.3942 10.4465 14.7626C10.1638 14.3942 9.71941 14.1557 9.22341 14.1557C8.72744 14.1557 8.28304 14.3942 8.00027 14.7626C7.7175 14.3942 7.2731 14.1557 6.77713 14.1557C6.2812 14.1557 5.83677 14.3942 5.55403 14.7625C5.27126 14.3942 4.82686 14.1557 4.33089 14.1557C3.99419 14.1557 3.68124 14.2656 3.42648 14.4515V1.54846C3.68124 1.73434 3.99419 1.84427 4.33089 1.84427C4.82686 1.84427 5.27126 1.60577 5.55403 1.23742C5.83677 1.60577 6.28117 1.84427 6.77713 1.84427C7.2731 1.84427 7.7175 1.60577 8.00027 1.23742C8.28304 1.60577 8.72744 1.84427 9.22341 1.84427C9.71941 1.84427 10.1638 1.60577 10.4465 1.23742C10.7293 1.60577 11.1737 1.84427 11.6697 1.84427C12.0064 1.84427 12.3193 1.73434 12.5741 1.54846V14.4515Z" fill="#016DEA"/>
<path d="M11.1308 3.68555H10.6742C10.4982 3.68555 10.3555 3.82824 10.3555 4.00427C10.3555 4.1803 10.4982 4.323 10.6742 4.323H11.1308C11.3069 4.323 11.4496 4.1803 11.4496 4.00427C11.4496 3.82824 11.3068 3.68555 11.1308 3.68555Z" fill="#016DEA"/>
<path d="M11.1319 5.64258H4.86951C4.69347 5.64258 4.55078 5.78527 4.55078 5.9613C4.55078 6.13733 4.69347 6.28003 4.86951 6.28003H11.1319C11.308 6.28003 11.4507 6.13733 11.4507 5.9613C11.4507 5.78527 11.3079 5.64258 11.1319 5.64258Z" fill="#016DEA"/>
<path d="M11.1319 7.59961H4.86951C4.69347 7.59961 4.55078 7.7423 4.55078 7.91833C4.55078 8.09437 4.69347 8.23706 4.86951 8.23706H11.1319C11.308 8.23706 11.4507 8.09437 11.4507 7.91833C11.4507 7.7423 11.3079 7.59961 11.1319 7.59961Z" fill="#016DEA"/>
<path d="M11.1319 9.55664H4.86951C4.69347 9.55664 4.55078 9.69933 4.55078 9.87537C4.55078 10.0514 4.69347 10.1941 4.86951 10.1941H11.1319C11.308 10.1941 11.4507 10.0514 11.4507 9.87537C11.4507 9.69933 11.3079 9.55664 11.1319 9.55664Z" fill="#016DEA"/>
<path d="M11.1312 11.6768H9.82654C9.65054 11.6768 9.50781 11.8195 9.50781 11.9955C9.50781 12.1715 9.65054 12.3142 9.82654 12.3142H11.1312C11.3073 12.3142 11.45 12.1715 11.45 11.9955C11.45 11.8195 11.3072 11.6768 11.1312 11.6768Z" fill="#016DEA"/>
<path d="M4.86951 4.323H9.59896C9.77496 4.323 9.91769 4.1803 9.91769 4.00427C9.91769 3.82824 9.77496 3.68555 9.59896 3.68555H4.86951C4.69347 3.68555 4.55078 3.82824 4.55078 4.00427C4.55078 4.1803 4.69347 4.323 4.86951 4.323Z" fill="#016DEA"/>
</svg>
