<svg width="16" height="16" viewBox="0 0 16 16" fill="none" xmlns="http://www.w3.org/2000/svg">
<path d="M14.875 0C14.6562 0 14.4688 0.0625 14.25 0.15625C12.8438 0.8125 11.7812 1.03125 10.9062 1.03125C9.03125 1.03125 7.9375 0.03125 5.78125 0.03125C4.6875 0.03125 3.34375 0.28125 1.5 1.03125V0.75C1.5 0.34375 1.15625 0 0.75 0C0.3125 0 0 0.34375 0 0.75V15.25C0 15.6875 0.3125 16 0.75 16C1.15625 16 1.5 15.6875 1.5 15.25V12C3.15625 11.2812 4.5 11.0312 5.625 11.0312C7.9375 11.0312 9.53125 12 11.8438 12C12.8438 12 13.9688 11.8125 15.3125 11.2812C15.75 11.125 16 10.7812 16 10.4062V0.96875C16 0.375 15.4688 0 14.875 0ZM14.5 10C13.5312 10.3438 12.6562 10.5 11.8438 10.5C10.875 10.5 10.0312 10.2812 9.09375 10.0625C8.09375 9.8125 6.96875 9.53125 5.625 9.53125C4.3125 9.53125 2.9375 9.8125 1.5 10.375V2.65625L2.0625 2.40625C3.53125 1.8125 4.75 1.53125 5.78125 1.53125C6.65625 1.53125 7.3125 1.75 8.0625 1.96875C8.84375 2.21875 9.75 2.53125 10.9062 2.53125C12 2.53125 13.1562 2.25 14.5 1.6875V10Z" fill="#8D879F"/>
</svg>
