<svg width="15" height="14" viewBox="0 0 15 14" fill="none" xmlns="http://www.w3.org/2000/svg">
<path d="M7.23449 0.570136C7.24501 0.53775 7.25907 0.524821 7.26947 0.517737C7.28305 0.508479 7.304 0.500892 7.32979 0.500892C7.35559 0.500892 7.37653 0.508479 7.39011 0.517736C7.40051 0.52482 7.41457 0.537749 7.4251 0.570135L8.74314 4.62665C8.89071 5.08083 9.31395 5.38833 9.79149 5.38833H14.0568C14.0908 5.38833 14.1075 5.39771 14.1174 5.4054C14.1304 5.41546 14.1441 5.43304 14.1521 5.45757C14.16 5.4821 14.1593 5.50437 14.1547 5.52014C14.1512 5.53222 14.1432 5.54959 14.1157 5.56961L10.665 8.07667C10.2786 8.35737 10.117 8.85491 10.2646 9.30909L11.5826 13.3656C11.5931 13.398 11.5893 13.4167 11.5851 13.4286C11.5795 13.444 11.5671 13.4625 11.5462 13.4776C11.5253 13.4928 11.5039 13.499 11.4875 13.4995C11.4749 13.4998 11.4559 13.4977 11.4284 13.4776L7.97771 10.9706C7.59137 10.6899 7.06822 10.6899 6.68187 10.9706L3.23119 13.4776C3.20365 13.4977 3.18467 13.4998 3.17209 13.4995C3.15566 13.499 3.13426 13.4928 3.11339 13.4776C3.09252 13.4625 3.08004 13.444 3.07449 13.4286C3.07024 13.4167 3.06646 13.398 3.07699 13.3656L4.39503 9.30909C4.5426 8.85491 4.38094 8.35737 3.99459 8.07667L0.543915 5.56961C0.516366 5.54959 0.508416 5.53222 0.504891 5.52015C0.500283 5.50437 0.499541 5.4821 0.507512 5.45757C0.515482 5.43304 0.529171 5.41546 0.542172 5.4054C0.552121 5.39771 0.568764 5.38833 0.602817 5.38833H4.86809C5.34564 5.38833 5.76887 5.08083 5.91644 4.62665L7.23449 0.570136Z" fill="#016DEA" stroke="#016DEA"/>
</svg>
