<svg width="24" height="24" viewBox="0 0 24 24" fill="none" xmlns="http://www.w3.org/2000/svg">
<g clip-path="url(#clip0_1072_33349)">
<path d="M16.9799 21V19C16.9799 17.9391 16.5589 16.9217 15.8096 16.1716C15.0603 15.4214 14.0441 15 12.9844 15H4.99351C3.93384 15 2.91758 15.4214 2.16829 16.1716C1.419 16.9217 0.998047 17.9391 0.998047 19V21" stroke="#8D879F" stroke-linecap="round" stroke-linejoin="round"/>
<path d="M8.9896 11C11.1962 11 12.9851 9.20914 12.9851 7C12.9851 4.79086 11.1962 3 8.9896 3C6.78297 3 4.99414 4.79086 4.99414 7C4.99414 9.20914 6.78297 11 8.9896 11Z" stroke="#8D879F" stroke-linecap="round" stroke-linejoin="round"/>
<path d="M22.9732 20.9999V18.9999C22.9725 18.1136 22.6778 17.2527 22.1355 16.5522C21.5931 15.8517 20.8337 15.3515 19.9766 15.1299" stroke="#8D879F" stroke-linecap="round" stroke-linejoin="round"/>
<path d="M15.9824 3.12988C16.8419 3.35018 17.6036 3.85058 18.1476 4.55219C18.6916 5.2538 18.9869 6.11671 18.9869 7.00488C18.9869 7.89305 18.6916 8.75596 18.1476 9.45757C17.6036 10.1592 16.8419 10.6596 15.9824 10.8799" stroke="#8D879F" stroke-linecap="round" stroke-linejoin="round"/>
</g>
<defs>
<clipPath id="clip0_1072_33349">
<rect width="23.9728" height="24" fill="white"/>
</clipPath>
</defs>
</svg>
