<svg width="80" height="67" viewBox="0 0 80 67" fill="none" xmlns="http://www.w3.org/2000/svg">
<path d="M0 6.10352e-05H30.7463C33.3333 10.5473 34.6269 20.3981 34.6269 29.5523C34.6269 54.4279 23.4826 66.8657 1.19404 66.8657V51.9404C10.7463 51.9404 15.5224 46.2687 15.5224 34.9254V28.6568L0 28.6568V6.10352e-05ZM45.3731 6.10352e-05L76.1194 6.10352e-05C78.7065 10.5473 80 20.3981 80 29.5523C80 54.4279 68.8557 66.8657 46.5672 66.8657L46.5672 51.9404C56.1194 51.9404 60.8955 46.2687 60.8955 34.9254L60.8955 28.6568H45.3731L45.3731 6.10352e-05Z" fill="#0478FF" fill-opacity="0.4"/>
</svg>
