<svg width="12" height="12" viewBox="0 0 12 12" fill="none" xmlns="http://www.w3.org/2000/svg">
<g clip-path="url(#clip0_0_1227)">
<path d="M5.82773 0.152344C5.7293 0.250781 5.7293 0.405469 5.82773 0.501563C5.87461 0.550781 5.91211 0.5625 5.99883 0.5625C6.16758 0.5625 6.2707 0.438281 6.23789 0.269531C6.2332 0.239063 6.20039 0.185156 6.16992 0.152344C6.08555 0.0679688 5.91211 0.0679688 5.82773 0.152344Z" fill="#016DEA"/>
<path d="M2.95078 0.817969C2.89453 0.874219 2.88281 0.907031 2.88281 1.00078V1.11328L3.74531 1.97344L4.60547 2.83594H4.72734C4.83281 2.83594 4.85391 2.82656 4.90781 2.76328C4.95234 2.71172 4.96875 2.66484 4.96875 2.59453C4.96875 2.49844 4.96406 2.49141 4.09453 1.62422L3.22266 0.75H3.12188C3.03984 0.75 3.00469 0.764062 2.95078 0.817969Z" fill="#016DEA"/>
<path d="M7.90547 1.62422C7.03594 2.49141 7.03125 2.49844 7.03125 2.59453C7.03125 2.66484 7.04766 2.71172 7.09219 2.76328C7.14609 2.82656 7.16719 2.83594 7.27266 2.83594H7.39453L8.25469 1.97344L9.11719 1.11328V1.00078C9.11719 0.907031 9.10547 0.874219 9.04922 0.817969C8.99531 0.764062 8.96016 0.75 8.87813 0.75H8.77734L7.90547 1.62422Z" fill="#016DEA"/>
<path d="M5.83281 1.09922L5.75547 1.16719L5.74844 1.84453C5.74375 2.21484 5.74609 2.56406 5.75547 2.61797C5.77656 2.76094 5.86094 2.83594 6.00156 2.83594C6.14219 2.83594 6.22656 2.76094 6.24766 2.61797C6.25703 2.56406 6.25937 2.21484 6.25469 1.84453L6.24766 1.16719L6.17031 1.09922C6.11406 1.04766 6.07187 1.03125 6.00156 1.03125C5.93125 1.03125 5.88906 1.04766 5.83281 1.09922Z" fill="#016DEA"/>
<path d="M2.30625 2.45671C2.28047 2.47781 1.86328 2.9864 1.37813 3.5864C0.895313 4.1864 0.389063 4.81687 0.250782 4.98562C0.0164071 5.27859 8.50253e-07 5.30437 8.50253e-07 5.40281C8.50253e-07 5.5364 -0.00468664 5.53171 0.682032 6.12234L1.2375 6.59812L1.75313 7.29187L2.26875 7.98562L2.20078 8.08406C2.09297 8.24578 2.05547 8.39343 2.06719 8.6114C2.07891 8.84343 2.13516 8.97937 2.2875 9.14109C2.39531 9.25593 2.56641 9.35437 2.70938 9.38484C2.78203 9.40124 2.78203 9.40359 2.79609 9.56531C2.82891 9.96609 3.13594 10.2989 3.51797 10.3505L3.62813 10.3645L3.64219 10.4864C3.69141 10.8731 4.01719 11.1731 4.42031 11.1989L4.58906 11.2106L4.61719 11.3184C4.67578 11.5528 4.84688 11.7544 5.08594 11.8669C5.21719 11.9302 5.26172 11.9395 5.42578 11.9372C5.67656 11.9372 5.84063 11.8716 6.01875 11.7075L6.15234 11.5833L6.24375 11.663C6.38203 11.7825 6.5625 11.8434 6.78516 11.8434C6.94922 11.8458 6.99375 11.8364 7.125 11.7731C7.38984 11.6489 7.57734 11.4028 7.61016 11.1403L7.62422 11.0208L7.76484 10.9927C8.13516 10.92 8.41172 10.6387 8.45391 10.2966L8.46797 10.177L8.60156 10.1536C8.96484 10.088 9.25547 9.79499 9.29766 9.45046C9.30469 9.38249 9.31406 9.32859 9.31641 9.32859C9.31875 9.32859 9.38203 9.31687 9.45703 9.30281C9.73125 9.25124 9.94922 9.08718 10.0711 8.84109C10.1297 8.72156 10.1367 8.68171 10.1367 8.47312C10.1367 8.27624 10.1273 8.22234 10.0828 8.12859L10.0289 8.02078L10.4063 7.22624L10.7836 6.43406L11.3602 5.94187C11.6742 5.67 11.9484 5.42859 11.9672 5.40281C11.9859 5.37703 12 5.31375 12 5.2575C12 5.17546 11.9813 5.13328 11.8781 4.99968C11.025 3.88171 9.94453 2.48718 9.90469 2.45671C9.87656 2.43328 9.81563 2.41453 9.75938 2.41453C9.675 2.41453 9.58594 2.46609 9.00234 2.8364L8.33906 3.25828H7.49062H6.64453L5.95312 3.45515L5.26406 3.65437L4.58672 3.46687L3.91172 3.28171L3.22969 2.84812C2.62734 2.46375 2.53594 2.41453 2.45156 2.41453C2.39531 2.41453 2.33438 2.43328 2.30625 2.45671ZM2.95078 3.26296C3.17813 3.40593 3.37734 3.53718 3.39609 3.55359C3.42188 3.57703 3.25313 3.795 2.41641 4.81453C1.85859 5.49187 1.39453 6.04734 1.38516 6.04734C1.36172 6.04734 0.597657 5.39109 0.597657 5.37C0.597657 5.34421 2.49609 3.00046 2.51719 3.00046C2.52891 3.00046 2.72344 3.11765 2.95078 3.26296ZM10.5586 4.10203C11.0227 4.70671 11.4023 5.21296 11.4023 5.22234C11.4023 5.25046 10.6336 5.90906 10.6125 5.89968C10.6031 5.89734 10.1859 5.37234 9.68438 4.73484L8.77031 3.57468L8.92734 3.47625C9.01172 3.42234 9.21328 3.29343 9.375 3.19031C9.53672 3.08718 9.67969 3.00281 9.69141 3.00281C9.70547 3.00281 10.0945 3.49734 10.5586 4.10203ZM9.26016 5.00906C9.80391 5.70281 10.2586 6.28171 10.268 6.29343C10.2773 6.3075 10.1484 6.60281 9.98203 6.94968C9.81797 7.2989 9.67734 7.59187 9.67031 7.60593C9.66563 7.61765 9.06094 7.03171 8.32969 6.30046C7.29609 5.26921 6.97969 4.96687 6.92578 4.9575C6.88828 4.95046 6.5625 4.92468 6.20391 4.8989C5.61328 4.85671 5.54297 4.85437 5.475 4.88718C5.41172 4.91765 5.34375 5.02312 5.05313 5.53875C4.86094 5.87625 4.67813 6.18093 4.64531 6.21609C4.52109 6.34968 4.32656 6.35671 4.18359 6.2325C4.09219 6.15046 4.04297 6.02859 4.06406 5.92312C4.07344 5.88093 4.28203 5.48953 4.53281 5.05125L4.98516 4.25437L5.83828 4.00359L6.69141 3.75515L7.48125 3.75281L8.27109 3.75046L9.26016 5.00906ZM4.26094 3.89109C4.41797 3.93328 4.54688 3.97781 4.54688 3.98953C4.54688 4.00359 4.34297 4.37156 4.09453 4.81218C3.84375 5.25281 3.62578 5.65125 3.60703 5.69578C3.58828 5.745 3.57422 5.85984 3.57422 5.98875C3.57422 6.17156 3.58359 6.21609 3.63984 6.33328C3.87422 6.80906 4.45313 6.96375 4.88906 6.66609C5.04141 6.56296 5.08594 6.49734 5.43516 5.87625C5.69766 5.41453 5.72813 5.36765 5.78672 5.36765C5.81953 5.36765 6.05391 5.38406 6.30469 5.40281L6.76172 5.43796L8.175 6.8489C8.98594 7.65984 9.60469 8.29499 9.62344 8.33718C9.69141 8.49421 9.64219 8.66062 9.48984 8.77078C9.40781 8.83406 9.23438 8.83171 9.13359 8.76843C9.09141 8.74265 8.71406 8.37234 8.29922 7.94578C7.88203 7.51921 7.51172 7.15359 7.47422 7.13718C7.28438 7.0364 7.0875 7.19109 7.12031 7.4114C7.12734 7.46296 7.32891 7.68093 7.94766 8.30671C8.39766 8.7614 8.775 9.16218 8.78906 9.19734C8.84531 9.34968 8.79844 9.49265 8.65781 9.60046C8.55234 9.68249 8.40938 9.68718 8.28984 9.61218C8.24297 9.58406 7.98047 9.32859 7.70625 9.04265C7.43203 8.75906 7.17891 8.51296 7.14375 8.49421C7.03359 8.43796 6.94219 8.45203 6.85313 8.54109C6.76172 8.63249 6.74766 8.74031 6.81094 8.8364C6.83203 8.86921 7.08984 9.1364 7.38516 9.43406C7.67812 9.72937 7.93125 10.0036 7.94531 10.0387C8.04375 10.3059 7.80234 10.5708 7.52813 10.4958C7.4625 10.477 7.35234 10.3856 7.0875 10.1231C6.78047 9.82078 6.72422 9.7739 6.65859 9.7739C6.4875 9.7739 6.37969 9.90281 6.40547 10.0716C6.41719 10.1419 6.47813 10.2145 6.75938 10.4981C7.04063 10.7841 7.10156 10.8591 7.11328 10.9317C7.17656 11.2645 6.80156 11.4802 6.54141 11.2598C6.47109 11.2012 6.47109 11.2012 6.50625 11.1052C6.66797 10.6411 6.42188 10.1419 5.9625 10.0083L5.86406 9.98015L5.85469 9.76453C5.84766 9.57703 5.83594 9.53249 5.76562 9.40359C5.63906 9.16687 5.41172 9.00515 5.175 8.98171C5.05547 8.96999 5.01563 8.92781 5.01563 8.81296C5.01563 8.71687 4.91484 8.50593 4.81641 8.39812C4.64297 8.20359 4.34531 8.0864 4.11094 8.11921C4.01484 8.13093 4.01016 8.13093 3.99375 8.05593C3.96797 7.92937 3.87656 7.77468 3.76875 7.6739C3.63516 7.54734 3.57188 7.51218 3.40781 7.46296C3.17813 7.39734 2.91328 7.44187 2.69063 7.58718C2.62734 7.62703 2.625 7.62703 2.59219 7.58249C2.57344 7.55671 2.37422 7.28718 2.14922 6.98484L1.73906 6.43406L1.82578 6.32859C1.87266 6.26765 2.35781 5.67468 2.90625 5.00671C3.57891 4.18875 3.91406 3.79734 3.9375 3.80437C3.95625 3.80906 4.10156 3.8489 4.26094 3.89109ZM3.31172 7.95515C3.47344 8.02312 3.55781 8.19421 3.51094 8.36296C3.47813 8.48249 3.11719 8.85046 2.99766 8.88562C2.75156 8.96062 2.53125 8.77312 2.56172 8.51765C2.57109 8.41921 2.59219 8.38874 2.77969 8.1989C3.04922 7.92468 3.14297 7.88249 3.31172 7.95515ZM4.32891 8.64656C4.48359 8.71921 4.56328 8.88093 4.51875 9.04031C4.48594 9.16687 3.84844 9.8114 3.72188 9.8489C3.47578 9.92156 3.22266 9.6614 3.30234 9.41765C3.33516 9.31921 3.98906 8.66531 4.08984 8.63015C4.19063 8.59499 4.21875 8.59734 4.32891 8.64656ZM5.21484 9.51609C5.35078 9.60046 5.40938 9.81374 5.33438 9.95671C5.28281 10.0528 4.66172 10.6575 4.58672 10.688C4.42734 10.7466 4.24922 10.6716 4.17188 10.5122C4.11797 10.402 4.11328 10.3458 4.14844 10.2497C4.17656 10.177 4.75078 9.58406 4.86328 9.51374C4.95703 9.45515 5.11641 9.45515 5.21484 9.51609ZM5.90859 10.5309C5.95781 10.5637 6.00469 10.627 6.03281 10.6927C6.10313 10.8661 6.06563 10.9575 5.81719 11.2083C5.59453 11.4286 5.50781 11.4731 5.35313 11.438C5.18203 11.3981 5.0625 11.2083 5.09531 11.0278C5.10703 10.9645 5.15859 10.8942 5.29219 10.7536C5.39063 10.6481 5.50547 10.545 5.54297 10.5216C5.64375 10.4583 5.80781 10.463 5.90859 10.5309Z" fill="#016DEA"/>
</g>
<defs>
<clipPath id="clip0_0_1227">
<rect width="12" height="12" fill="white"/>
</clipPath>
</defs>
</svg>
