<svg width="99" height="15" viewBox="0 0 99 15" fill="none" xmlns="http://www.w3.org/2000/svg">
<path d="M9.88627 4.14674L13.8133 4.72344C14.1429 4.77836 14.4175 4.99806 14.5273 5.3276C14.6372 5.62968 14.5548 5.98669 14.3076 6.20638L11.4516 9.03495L12.1381 13.0444C12.1931 13.3739 12.0558 13.7035 11.7811 13.8957C11.5065 14.1154 11.1495 14.1154 10.8474 13.9781L7.33232 12.0832L3.78974 13.9781C3.51512 14.1154 3.13065 14.1154 2.8835 13.8957C2.60888 13.7035 2.47157 13.3739 2.52649 13.0444L3.18558 9.03495L0.329542 6.20638C0.0823856 5.98669 0 5.62968 0.109847 5.3276C0.219695 4.99806 0.494313 4.77836 0.823856 4.72344L4.77836 4.14674L6.53592 0.494313C6.67323 0.192233 6.97531 0 7.33232 0C7.66186 0 7.96394 0.192233 8.10125 0.494313L9.88627 4.14674ZM30.977 4.14674L34.904 4.72344C35.2336 4.77836 35.5082 4.99806 35.618 5.3276C35.7279 5.62968 35.6455 5.98669 35.3983 6.20638L32.5423 9.03495L33.2288 13.0444C33.2838 13.3739 33.1465 13.7035 32.8718 13.8957C32.5972 14.1154 32.2402 14.1154 31.9381 13.9781L28.423 12.0832L24.8804 13.9781C24.6058 14.1154 24.2214 14.1154 23.9742 13.8957C23.6996 13.7035 23.5623 13.3739 23.6172 13.0444L24.2763 9.03495L21.4202 6.20638C21.1731 5.98669 21.0907 5.62968 21.2006 5.3276C21.3104 4.99806 21.585 4.77836 21.9146 4.72344L25.8691 4.14674L27.6266 0.494313C27.7639 0.192233 28.066 0 28.423 0C28.7526 0 29.0546 0.192233 29.192 0.494313L30.977 4.14674ZM52.0677 4.14674L55.9947 4.72344C56.3243 4.77836 56.5989 4.99806 56.7087 5.3276C56.8186 5.62968 56.7362 5.98669 56.489 6.20638L53.633 9.03495L54.3196 13.0444C54.3745 13.3739 54.2372 13.7035 53.9626 13.8957C53.6879 14.1154 53.3309 14.1154 53.0288 13.9781L49.5137 12.0832L45.9712 13.9781C45.6965 14.1154 45.3121 14.1154 45.0649 13.8957C44.7903 13.7035 44.653 13.3739 44.7079 13.0444L45.367 9.03495L42.511 6.20638C42.2638 5.98669 42.1814 5.62968 42.2913 5.3276C42.4011 4.99806 42.6757 4.77836 43.0053 4.72344L46.9598 4.14674L48.7173 0.494313C48.8546 0.192233 49.1567 0 49.5137 0C49.8433 0 50.1454 0.192233 50.2827 0.494313L52.0677 4.14674ZM73.1584 4.14674L77.0854 4.72344C77.415 4.77836 77.6896 4.99806 77.7994 5.3276C77.9093 5.62968 77.8269 5.98669 77.5798 6.20638L74.7237 9.03495L75.4103 13.0444C75.4652 13.3739 75.3279 13.7035 75.0533 13.8957C74.7786 14.1154 74.4216 14.1154 74.1196 13.9781L70.6044 12.0832L67.0619 13.9781C66.7872 14.1154 66.4028 14.1154 66.1556 13.8957C65.881 13.7035 65.7437 13.3739 65.7986 13.0444L66.4577 9.03495L63.6017 6.20638C63.3545 5.98669 63.2721 5.62968 63.382 5.3276C63.4918 4.99806 63.7664 4.77836 64.096 4.72344L68.0505 4.14674L69.808 0.494313C69.9454 0.192233 70.2474 0 70.6044 0C70.934 0 71.2361 0.192233 71.3734 0.494313L73.1584 4.14674ZM94.2491 4.14674L98.1761 4.72344C98.5057 4.77836 98.7803 4.99806 98.8902 5.3276C99 5.62968 98.9176 5.98669 98.6705 6.20638L95.8144 9.03495L96.501 13.0444C96.5559 13.3739 96.4186 13.7035 96.144 13.8957C95.8693 14.1154 95.5123 14.1154 95.2103 13.9781L91.6951 12.0832L88.1526 13.9781C87.8779 14.1154 87.4935 14.1154 87.2463 13.8957C86.9717 13.7035 86.8344 13.3739 86.8893 13.0444L87.5484 9.03495L84.6924 6.20638C84.4452 5.98669 84.3628 5.62968 84.4727 5.3276C84.5825 4.99806 84.8571 4.77836 85.1867 4.72344L89.1412 4.14674L90.8988 0.494313C91.0361 0.192233 91.3381 0 91.6951 0C92.0247 0 92.3268 0.192233 92.4641 0.494313L94.2491 4.14674Z" fill="#FF9110"/>
</svg>
