<svg width="20" height="20" viewBox="0 0 20 20" fill="none" xmlns="http://www.w3.org/2000/svg">
<path d="M6.85925 14.9981C6.85689 14.5303 6.74953 14.0689 6.54509 13.6482C6.34064 13.2274 6.04432 12.8578 5.678 12.5669L8.53425 7.9981C9.07164 8.16461 9.64685 8.16461 10.1842 7.9981L13.0405 12.5669C12.4663 13.0306 12.0748 13.6825 11.9352 14.4073C11.7957 15.1321 11.9172 15.8828 12.2782 16.5266C12.6392 17.1703 13.2164 17.6655 13.9076 17.9244C14.5987 18.1833 15.3592 18.1893 16.0544 17.9412C16.7495 17.6931 17.3343 17.207 17.7054 16.569C18.0764 15.9309 18.2096 15.1822 18.0814 14.4553C17.9532 13.7285 17.5719 13.0705 17.005 12.5978C16.4382 12.1252 15.7223 11.8685 14.9842 11.8731C14.7048 11.8761 14.4271 11.9181 14.1592 11.9981L11.303 7.42935C11.8108 7.026 12.1805 6.47469 12.3609 5.85182C12.5413 5.22895 12.5235 4.56539 12.3099 3.95311C12.0963 3.34083 11.6975 2.81016 11.1688 2.43466C10.6401 2.05915 10.0077 1.85742 9.35925 1.85742C8.71078 1.85742 8.07837 2.05915 7.54969 2.43466C7.021 2.81016 6.62222 3.34083 6.40863 3.95311C6.19504 4.56539 6.17721 5.22895 6.35762 5.85182C6.53803 6.47469 6.90773 7.026 7.4155 7.42935L4.55925 11.9981C4.29143 11.9181 4.01373 11.8761 3.73425 11.8731C3.11618 11.8731 2.51199 12.0564 1.99809 12.3998C1.48419 12.7431 1.08365 13.2312 0.847122 13.8022C0.610598 14.3732 0.548712 15.0016 0.669292 15.6078C0.789871 16.2139 1.0875 16.7708 1.52454 17.2078C1.96158 17.6448 2.5184 17.9425 3.12459 18.0631C3.73078 18.1836 4.35911 18.1217 4.93013 17.8852C5.50115 17.6487 5.98921 17.2482 6.33259 16.7343C6.67597 16.2204 6.85925 15.6162 6.85925 14.9981ZM16.8592 14.9981C16.8592 15.3689 16.7493 15.7315 16.5433 16.0398C16.3372 16.3481 16.0444 16.5885 15.7018 16.7304C15.3592 16.8723 14.9822 16.9094 14.6185 16.8371C14.2547 16.7647 13.9206 16.5861 13.6584 16.3239C13.3962 16.0617 13.2176 15.7276 13.1453 15.3639C13.0729 15.0002 13.1101 14.6232 13.252 14.2806C13.3939 13.938 13.6342 13.6451 13.9426 13.4391C14.2509 13.2331 14.6134 13.1231 14.9842 13.1231C15.4815 13.1231 15.9584 13.3206 16.3101 13.6723C16.6617 14.0239 16.8592 14.5008 16.8592 14.9981ZM7.48425 4.9981C7.48425 4.62726 7.59421 4.26475 7.80024 3.95641C8.00627 3.64806 8.2991 3.40774 8.64172 3.26583C8.98433 3.12391 9.36133 3.08678 9.72504 3.15913C10.0888 3.23148 10.4228 3.41005 10.6851 3.67228C10.9473 3.9345 11.1259 4.26859 11.1982 4.63231C11.2706 4.99602 11.2334 5.37302 11.0915 5.71563C10.9496 6.05824 10.7093 6.35108 10.4009 6.55711C10.0926 6.76313 9.73009 6.8731 9.35925 6.8731C8.86197 6.8731 8.38505 6.67556 8.03342 6.32393C7.68179 5.9723 7.48425 5.49538 7.48425 4.9981ZM1.85925 14.9981C1.85925 14.6273 1.96921 14.2647 2.17524 13.9564C2.38127 13.6481 2.6741 13.4077 3.01671 13.2658C3.35933 13.1239 3.73633 13.0868 4.10004 13.1591C4.46376 13.2315 4.79785 13.4101 5.06007 13.6723C5.3223 13.9345 5.50087 14.2686 5.57322 14.6323C5.64557 14.996 5.60843 15.373 5.46652 15.7156C5.32461 16.0582 5.08428 16.3511 4.77594 16.5571C4.4676 16.7631 4.10509 16.8731 3.73425 16.8731C3.23697 16.8731 2.76005 16.6756 2.40842 16.3239C2.05679 15.9723 1.85925 15.4954 1.85925 14.9981Z" fill="#016DEA"/>
</svg>
