<svg width="25" height="25" viewBox="0 0 25 25" fill="none" xmlns="http://www.w3.org/2000/svg">
<g clip-path="url(#clip0_1492_32228)">
<path d="M21.5216 20.1841C11.4016 25.0004 5.12106 20.9708 1.10068 18.5233C0.8519 18.369 0.429061 18.5593 0.795932 18.9807C2.13532 20.6048 6.52479 24.5192 12.2543 24.5192C17.9878 24.5192 21.3987 21.3907 21.8254 20.845C22.2492 20.3038 21.9498 20.0054 21.5215 20.1841H21.5216ZM24.3637 18.6145C24.092 18.2606 22.7112 18.1947 21.8423 18.3014C20.972 18.4051 19.6657 18.937 19.7793 19.2563C19.8375 19.376 19.9565 19.3223 20.5543 19.2685C21.1538 19.2087 22.8333 18.9968 23.1832 19.4542C23.5348 19.9149 22.6476 22.1092 22.4855 22.463C22.329 22.8169 22.5454 22.9082 22.8394 22.6725C23.1295 22.4369 23.6545 21.8267 24.0069 20.9633C24.3568 20.0951 24.5702 18.884 24.3636 18.6145H24.3637Z" fill="#FF9900"/>
<path fill-rule="evenodd" clip-rule="evenodd" d="M14.718 10.3562C14.718 11.6199 14.75 12.6738 14.1112 13.7961C13.5957 14.7086 12.779 15.2697 11.8666 15.2697C10.6211 15.2697 9.89572 14.3207 9.89572 12.9202C9.89572 10.1554 12.3729 9.65365 14.718 9.65365V10.3562ZM17.9891 18.2626C17.7746 18.4541 17.4644 18.4679 17.2227 18.3401C16.146 17.4459 15.9543 17.0308 15.3613 16.1776C13.582 17.9934 12.3228 18.5362 10.0144 18.5362C7.28618 18.5362 5.16016 16.8528 5.16016 13.4813C5.16016 10.849 6.58821 9.05598 8.61826 8.18011C10.3793 7.40444 12.8384 7.2676 14.718 7.05324V6.63348C14.718 5.86243 14.7773 4.95001 14.3257 4.28397C13.9287 3.68631 13.1714 3.43993 12.5053 3.43993C11.269 3.43993 10.1649 4.07404 9.89572 5.38795C9.84091 5.68 9.62655 5.96744 9.3346 5.9811L6.18662 5.64356C5.92207 5.58413 5.63012 5.36978 5.70311 4.96367C6.42848 1.14975 9.87283 0 12.9569 0C14.5354 0 16.5975 0.419762 17.843 1.6151C19.4216 3.08864 19.271 5.05493 19.271 7.19461V12.2495C19.271 13.7688 19.9006 14.4348 20.4936 15.2561C20.7035 15.548 20.7491 15.8994 20.4845 16.1183C19.823 16.6703 18.6459 17.6968 17.9981 18.2717L17.989 18.2626" fill="black"/>
<path d="M21.5216 20.1841C11.4016 25.0004 5.12106 20.9708 1.10068 18.5233C0.8519 18.369 0.429061 18.5593 0.795932 18.9807C2.13532 20.6048 6.52479 24.5192 12.2543 24.5192C17.9878 24.5192 21.3987 21.3907 21.8254 20.845C22.2492 20.3038 21.9498 20.0054 21.5215 20.1841H21.5216ZM24.3637 18.6145C24.092 18.2606 22.7112 18.1947 21.8423 18.3014C20.972 18.4051 19.6657 18.937 19.7793 19.2563C19.8375 19.376 19.9565 19.3223 20.5543 19.2685C21.1538 19.2087 22.8333 18.9968 23.1832 19.4542C23.5348 19.9149 22.6476 22.1092 22.4855 22.463C22.329 22.8169 22.5454 22.9082 22.8394 22.6725C23.1295 22.4369 23.6545 21.8267 24.0069 20.9633C24.3568 20.0951 24.5702 18.884 24.3636 18.6145H24.3637Z" fill="#FF9900"/>
<path fill-rule="evenodd" clip-rule="evenodd" d="M14.718 10.3562C14.718 11.6199 14.75 12.6738 14.1112 13.7961C13.5957 14.7086 12.779 15.2697 11.8666 15.2697C10.6211 15.2697 9.89572 14.3207 9.89572 12.9202C9.89572 10.1554 12.3729 9.65365 14.718 9.65365V10.3562ZM17.9891 18.2626C17.7746 18.4541 17.4644 18.4679 17.2227 18.3401C16.146 17.4459 15.9543 17.0308 15.3613 16.1776C13.582 17.9934 12.3228 18.5362 10.0144 18.5362C7.28618 18.5362 5.16016 16.8528 5.16016 13.4813C5.16016 10.849 6.58821 9.05598 8.61826 8.18011C10.3793 7.40444 12.8384 7.2676 14.718 7.05324V6.63348C14.718 5.86243 14.7773 4.95001 14.3257 4.28397C13.9287 3.68631 13.1714 3.43993 12.5053 3.43993C11.269 3.43993 10.1649 4.07404 9.89572 5.38795C9.84091 5.68 9.62655 5.96744 9.3346 5.9811L6.18662 5.64356C5.92207 5.58413 5.63012 5.36978 5.70311 4.96367C6.42848 1.14975 9.87283 0 12.9569 0C14.5354 0 16.5975 0.419762 17.843 1.6151C19.4216 3.08864 19.271 5.05493 19.271 7.19461V12.2495C19.271 13.7688 19.9006 14.4348 20.4936 15.2561C20.7035 15.548 20.7491 15.8994 20.4845 16.1183C19.823 16.6703 18.6459 17.6968 17.9981 18.2717L17.989 18.2626" fill="black"/>
</g>
<defs>
<clipPath id="clip0_1492_32228">
<rect width="25" height="25" fill="white"/>
</clipPath>
</defs>
</svg>
