<svg width="170" height="20" viewBox="0 0 170 20" fill="none" xmlns="http://www.w3.org/2000/svg">
<circle cx="160" cy="10" r="10" fill="#016DEA"/>
<g clip-path="url(#clip0_1015_37894)">
<path d="M166.687 4.31123C166.429 4.07539 166.063 3.99679 165.732 4.10607L151.663 8.7436C151.28 8.86998 151.02 9.21223 151.001 9.61545C150.982 10.0187 151.209 10.3839 151.579 10.5457L155.058 12.0679C155.075 12.1467 156.074 16.7791 156.108 16.9365C156.151 17.1388 156.254 17.3189 156.471 17.3744C156.691 17.4304 156.847 17.3102 157.011 17.1873C157.102 17.1189 159.593 15.254 159.593 15.254L162.611 17.724C162.787 17.8679 163.002 17.943 163.221 17.943C163.325 17.9429 163.431 17.9259 163.533 17.8912C163.851 17.7835 164.086 17.5242 164.163 17.1977L166.974 5.24448C167.054 4.90464 166.944 4.54707 166.687 4.31123ZM157.236 12.9402C157.234 12.9443 157.232 12.9489 157.231 12.9544L156.649 14.9878L155.999 11.9754L160.465 9.49401L157.343 12.7589C157.294 12.8104 157.258 12.8726 157.236 12.9402ZM157.42 15.7066L157.685 14.783L157.938 13.8996L158.844 14.641L157.42 15.7066ZM166.06 5.02929L163.248 16.9825C163.247 16.9884 163.245 16.9966 163.231 17.0013C163.218 17.0059 163.211 17.0006 163.206 16.9967L159.903 14.294C159.903 14.2939 159.903 14.2938 159.903 14.2938L158.373 13.0415L163.289 7.90095C163.45 7.73304 163.464 7.47301 163.322 7.2891C163.18 7.10517 162.924 7.05264 162.721 7.16551L155.442 11.2102L151.955 9.68476C151.945 9.68014 151.939 9.67754 151.94 9.65957C151.941 9.64167 151.947 9.63964 151.958 9.63601L166.026 4.99851C166.033 4.99629 166.041 4.99373 166.052 5.00404C166.063 5.01442 166.061 5.02229 166.06 5.02929Z" fill="white"/>
</g>
<path d="M136.275 8.51727V7.05566C136.275 6.73207 136.012 6.46973 135.689 6.46973C135.365 6.46973 135.103 6.73207 135.103 7.05566V8.51727C135.103 11.3306 132.814 13.6195 130.001 13.6195C127.187 13.6195 124.898 11.3306 124.898 8.51727V7.05566C124.898 6.73207 124.636 6.46973 124.312 6.46973C123.989 6.46973 123.727 6.73207 123.727 7.05566V8.51727C123.727 11.7792 126.229 14.4673 129.415 14.7638V16.4183H127.188C125.795 16.4183 124.661 17.5521 124.661 18.9457C124.661 19.5272 125.134 20.0004 125.716 20.0004H134.286C134.867 20.0004 135.34 19.5272 135.34 18.9457C135.34 17.5521 134.207 16.4183 132.813 16.4183H130.587V14.7637C133.772 14.4673 136.275 11.7792 136.275 8.51727ZM134.164 18.8285H125.838C125.897 18.1357 126.48 17.5902 127.188 17.5902H132.813C133.521 17.5902 134.104 18.1357 134.164 18.8285Z" fill="#8D879F"/>
<path d="M130.001 12.4472C132.168 12.4472 133.931 10.6841 133.931 8.51691V3.93031C133.931 1.76312 132.168 0 130.001 0C127.833 0 126.07 1.76312 126.07 3.93031V8.51688C126.07 10.6841 127.833 12.4472 130.001 12.4472ZM130.001 1.17188C131.321 1.17188 132.426 2.10398 132.696 3.34437H131.344C131.02 3.34437 130.758 3.60672 130.758 3.93031C130.758 4.25391 131.02 4.51625 131.344 4.51625H132.759V5.68812H131.344C131.02 5.68812 130.758 5.95047 130.758 6.27406C130.758 6.59766 131.02 6.86 131.344 6.86H132.759V8.03187H131.344C131.02 8.03187 130.758 8.29422 130.758 8.61781C130.758 8.94141 131.02 9.20375 131.344 9.20375H132.672C132.366 10.3936 131.285 11.2754 130.001 11.2754C128.717 11.2754 127.635 10.3936 127.329 9.20375H128.618C128.941 9.20375 129.204 8.94141 129.204 8.61781C129.204 8.29422 128.941 8.03187 128.618 8.03187H127.242V6.86H128.618C128.941 6.86 129.204 6.59766 129.204 6.27406C129.204 5.95047 128.941 5.68812 128.618 5.68812H127.242V4.51625H128.618C128.941 4.51625 129.204 4.25391 129.204 3.93031C129.204 3.60672 128.941 3.34437 128.618 3.34437H127.305C127.575 2.10398 128.681 1.17188 130.001 1.17188Z" fill="#8D879F"/>
<g clip-path="url(#clip1_1015_37894)">
<path d="M109.414 0.15625H95.3604C95.0368 0.15625 94.7745 0.418549 94.7745 0.742188V2.62543H92.8795C92.5558 2.62543 92.2935 2.88773 92.2935 3.21136V5.09445H90.5859C90.2623 5.09445 90 5.35675 90 5.68039V19.2702C90 19.5938 90.2623 19.8561 90.5859 19.8561H104.64C104.963 19.8561 105.226 19.5938 105.226 19.2702V17.3869H106.933C107.257 17.3869 107.519 17.1246 107.519 16.801V14.9179H109.414C109.738 14.9179 110 14.6556 110 14.332V0.742188C110 0.418549 109.738 0.15625 109.414 0.15625V0.15625ZM95.9464 1.32812H108.828V9.95407L103.56 5.39749C103.436 5.29068 103.274 5.24017 103.112 5.25833C102.95 5.27634 102.802 5.36118 102.705 5.49255L96.6083 13.746H95.9464V1.32812ZM104.054 18.6842H91.1719V6.26633H92.2935V16.801C92.2935 17.1246 92.5558 17.3869 92.8795 17.3869H104.054V18.6842ZM106.347 16.2151H93.4654V3.7973H94.7745V14.332C94.7745 14.6556 95.0368 14.9179 95.3604 14.9179H106.347V16.2151ZM98.0652 13.746L103.272 6.69769L108.828 11.5034V13.746H98.0652Z" fill="#8D879F"/>
<path d="M99.11 6.42654C100.258 6.42654 101.193 5.49545 101.193 4.35104C101.193 3.20648 100.258 2.27539 99.11 2.27539C97.9616 2.27539 97.0273 3.20648 97.0273 4.35104C97.0273 5.49545 97.9616 6.42654 99.11 6.42654ZM99.11 3.44727C99.6123 3.44727 100.021 3.85269 100.021 4.35104C100.021 4.84924 99.6123 5.25467 99.11 5.25467C98.6078 5.25467 98.1992 4.84924 98.1992 4.35104C98.1992 3.85269 98.6078 3.44727 99.11 3.44727Z" fill="#8D879F"/>
</g>
<g clip-path="url(#clip2_1015_37894)">
<path d="M68.8281 19.9999C73.6744 19.9999 77.6171 16.0397 77.6171 11.1718C77.6171 6.3144 73.6862 2.38281 68.8281 2.38281C63.9603 2.38281 60 6.32557 60 11.1718C60 16.0304 63.97 19.9999 68.8281 19.9999ZM68.8281 3.55468C73.0282 3.55468 76.4452 6.97174 76.4452 11.1718C76.4452 15.3935 73.0282 18.8281 68.8281 18.8281C64.6064 18.8281 61.1719 15.3935 61.1719 11.1718C61.1719 6.97174 64.6064 3.55468 68.8281 3.55468Z" fill="#8D879F"/>
<path d="M68.8281 16.4453C71.7319 16.4453 74.1015 14.0837 74.1015 11.1719C74.1015 10.8483 73.8392 10.5859 73.5156 10.5859H64.1406C63.817 10.5859 63.5547 10.8483 63.5547 11.1719C63.5547 14.085 65.9255 16.4453 68.8281 16.4453ZM66.9237 14.8036C67.4487 14.3521 68.1161 14.1015 68.8281 14.1015C69.5401 14.1015 70.2076 14.3521 70.7325 14.8036C70.1631 15.1035 69.5151 15.2734 68.8281 15.2734C68.1411 15.2734 67.4931 15.1035 66.9237 14.8036ZM72.8879 11.7578C72.7571 12.6688 72.3256 13.4839 71.6977 14.0994C70.9361 13.3498 69.9194 12.9297 68.8281 12.9297C67.7369 12.9297 66.7201 13.3498 65.9586 14.0994C65.3307 13.4839 64.8992 12.6687 64.7684 11.7578H72.8879Z" fill="#8D879F"/>
<path d="M74.9922 2.3279L75.2653 0.68192C75.3183 0.362662 75.1024 0.0609429 74.7831 0.00797417C74.4639 -0.0449165 74.1622 0.170865 74.1092 0.490123L73.8361 2.1361C73.7831 2.45536 73.999 2.75708 74.3183 2.81004C74.6381 2.86301 74.9393 2.64665 74.9922 2.3279Z" fill="#8D879F"/>
<path d="M77.1896 5.68158C77.2425 6.00013 77.5436 6.21673 77.8636 6.16372L79.5096 5.89064C79.8288 5.83767 80.0447 5.53595 79.9917 5.21669C79.9387 4.89747 79.637 4.68162 79.3178 4.73455L77.6718 5.00763C77.3525 5.0606 77.1367 5.36232 77.1896 5.68158Z" fill="#8D879F"/>
<path d="M77.5255 1.64722L75.8689 3.30382C75.6401 3.53261 75.6401 3.90363 75.8689 4.13246C76.0977 4.36128 76.4687 4.36132 76.6975 4.13246L78.3541 2.47585C78.5829 2.24707 78.5829 1.87605 78.3541 1.64722C78.1253 1.41839 77.7543 1.41835 77.5255 1.64722Z" fill="#8D879F"/>
<path d="M64.7266 8.82812C65.0502 8.82812 65.3125 8.56578 65.3125 8.24219C65.3125 7.9191 65.5754 7.65625 65.8984 7.65625C66.2215 7.65625 66.4844 7.9191 66.4844 8.24219C66.4844 8.56578 66.7467 8.82812 67.0703 8.82812C67.3939 8.82812 67.6562 8.56578 67.6562 8.24219C67.6562 7.27293 66.8677 6.48438 65.8984 6.48438C64.9292 6.48438 64.1406 7.27293 64.1406 8.24219C64.1406 8.56578 64.403 8.82812 64.7266 8.82812Z" fill="#8D879F"/>
<path d="M70.5859 8.82812C70.9095 8.82812 71.1719 8.56578 71.1719 8.24219C71.1719 7.9191 71.4347 7.65625 71.7578 7.65625C72.0809 7.65625 72.3438 7.9191 72.3438 8.24219C72.3438 8.56578 72.6061 8.82812 72.9297 8.82812C73.2533 8.82812 73.5156 8.56578 73.5156 8.24219C73.5156 7.27293 72.7271 6.48438 71.7578 6.48438C70.7886 6.48438 70 7.27293 70 8.24219C70 8.56578 70.2623 8.82812 70.5859 8.82812Z" fill="#8D879F"/>
</g>
<g clip-path="url(#clip3_1015_37894)">
<path d="M50 10C50 4.49379 45.5059 0 40 0C34.4938 0 30 4.4941 30 10C30 15.5062 34.4941 20 40 20C40.1273 20 40.2512 19.9585 40.3528 19.8819L49.3554 13.0927C49.542 12.9518 49.5824 12.7327 49.565 12.7891C49.622 12.5378 50 11.4202 50 10ZM31.1719 10C31.1719 5.13215 35.1321 1.17188 40 1.17188C44.8679 1.17188 48.8281 5.13215 48.8281 10C48.8281 10.6023 48.7479 11.2339 48.5843 11.9173C48.1983 11.8371 47.8059 11.7869 47.4102 11.7673C47.5477 11.191 47.6172 10.5994 47.6172 10C47.6172 5.79988 44.2001 2.38281 40 2.38281C35.7999 2.38281 32.3828 5.79988 32.3828 10C32.3828 14.0732 35.5965 17.4098 39.6215 17.6077C39.5285 17.9977 39.4654 18.3991 39.4351 18.8096C34.8297 18.5171 31.1719 14.6779 31.1719 10ZM40 16.4453C36.4461 16.4453 33.5547 13.5539 33.5547 10C33.5547 6.44605 36.4461 3.55469 40 3.55469C43.5539 3.55469 46.4453 6.44605 46.4453 10C46.4453 10.6154 46.3587 11.2207 46.188 11.8047C43.3916 12.1141 41.0469 13.943 40.0004 16.4453C40.0002 16.4453 40.0001 16.4453 40 16.4453ZM47.0312 12.9297C47.2189 12.9297 47.4059 12.9387 47.5919 12.9549L40.7032 18.1498C41.2771 15.1798 43.8961 12.9297 47.0312 12.9297Z" fill="#8D879F"/>
<path d="M42.32 13.1941C42.4995 13.0636 42.59 12.8429 42.5536 12.624L42.2384 10.7274L43.6078 9.37871C43.7659 9.22297 43.8225 8.99125 43.7539 8.78016C43.6852 8.56906 43.5033 8.41484 43.2838 8.38184L41.3829 8.09582L40.5238 6.37676C40.4246 6.1782 40.2217 6.05273 39.9997 6.05273C39.7777 6.05273 39.5748 6.17816 39.4756 6.37676L38.6165 8.09582L36.7156 8.38184C36.4961 8.41484 36.3141 8.56906 36.2455 8.78016C36.1769 8.99125 36.2335 9.22297 36.3916 9.37871L37.761 10.7274L37.4458 12.624C37.4094 12.8429 37.4999 13.0636 37.6794 13.1941C37.859 13.3245 38.0968 13.3423 38.2938 13.2401L39.9998 12.3543L41.7056 13.24C41.9034 13.3428 42.1412 13.324 42.32 13.1941ZM40.2698 11.1741C40.1006 11.0862 39.8991 11.0861 39.7298 11.1741L38.7941 11.6599L38.967 10.6194C38.9983 10.4313 38.9361 10.2397 38.8002 10.1059L38.0492 9.36625L39.0919 9.20934C39.2806 9.18094 39.4436 9.0625 39.5289 8.89184L39.9998 7.94945L40.4707 8.89184C40.556 9.0625 40.719 9.18094 40.9077 9.20934L41.9504 9.36625L41.1994 10.1059C41.0635 10.2397 41.0013 10.4313 41.0325 10.6194L41.2055 11.6599L40.2698 11.1741Z" fill="#8D879F"/>
</g>
<path d="M16.2021 1.74902H3.79793C1.70375 1.74902 0 3.45281 0 5.54703V14.4539C0 16.5481 1.70375 18.2519 3.79793 18.2519H16.202C18.2962 18.2519 20 16.5481 20 14.4539V5.54703C20 3.45281 18.2963 1.74902 16.2021 1.74902ZM18.7805 14.4539C18.7805 15.8757 17.6238 17.0324 16.202 17.0324H3.79793C2.37617 17.0324 1.21945 15.8757 1.21945 14.4539V5.54703C1.21945 4.12523 2.37617 2.96852 3.79793 2.96852H16.202C17.6238 2.96852 18.7805 4.12523 18.7805 5.54703V14.4539Z" fill="#8D879F"/>
<path d="M8.70762 9.39027H7.20816C6.87141 9.39027 6.59844 9.66328 6.59844 10C6.59844 10.3367 6.87145 10.6097 7.20816 10.6097H8.04363C7.82824 11.799 6.99695 12.6878 6.0073 12.6878C4.85457 12.6878 3.91672 11.482 3.91672 10C3.91672 8.51797 4.85453 7.31223 6.0073 7.31223C6.5791 7.31223 7.11457 7.60766 7.51496 8.1441C7.71637 8.41398 8.09844 8.46945 8.36832 8.26805C8.6382 8.06668 8.69367 7.68457 8.49227 7.41473C7.86523 6.57457 6.95949 6.09277 6.00734 6.09277C5.09984 6.09277 4.25422 6.51512 3.62617 7.28203C3.02715 8.01348 2.69727 8.97879 2.69727 10C2.69727 11.0212 3.02719 11.9865 3.62617 12.718C4.25422 13.4849 5.09984 13.9072 6.00734 13.9072C6.91484 13.9072 7.76047 13.4849 8.38852 12.718C8.98754 11.9865 9.31742 11.0212 9.31742 10C9.31738 9.66328 9.04437 9.39027 8.70762 9.39027Z" fill="#8D879F"/>
<path d="M11.1918 6.09277C10.855 6.09277 10.582 6.36578 10.582 6.7025V13.2975C10.582 13.6343 10.855 13.9073 11.1918 13.9073C11.5285 13.9073 11.8015 13.6343 11.8015 13.2975V6.7025C11.8015 6.36578 11.5285 6.09277 11.1918 6.09277Z" fill="#8D879F"/>
<path d="M16.6945 8.61133H14.2859V7.31223H16.6945C17.0312 7.31223 17.3042 7.03922 17.3042 6.7025C17.3042 6.36574 17.0312 6.09277 16.6945 6.09277H13.6761C13.3394 6.09277 13.0664 6.36578 13.0664 6.7025V13.2975C13.0664 13.6343 13.3394 13.9073 13.6761 13.9073C14.0129 13.9073 14.2859 13.6343 14.2859 13.2975V9.83086H16.6945C17.0312 9.83086 17.3042 9.55785 17.3042 9.22113C17.3042 8.88434 17.0312 8.61133 16.6945 8.61133Z" fill="#8D879F"/>
<defs>
<clipPath id="clip0_1015_37894">
<rect width="16" height="16" fill="white" transform="translate(151 3)"/>
</clipPath>
<clipPath id="clip1_1015_37894">
<rect width="20" height="20" fill="white" transform="translate(90)"/>
</clipPath>
<clipPath id="clip2_1015_37894">
<rect width="20" height="20" fill="white" transform="translate(60)"/>
</clipPath>
<clipPath id="clip3_1015_37894">
<rect width="20" height="20" fill="white" transform="translate(30)"/>
</clipPath>
</defs>
</svg>
